{
.appVersion = "1361";
DisplayStrings = (
A,
B,
C,
D,
E,
F,
G,
H,
I,
J,
K,
L,
M,
N,
O,
P,
Q,
R,
S,
T,
U,
V,
W,
X,
Y,
Z,
a,
b,
c,
d,
e,
f,
g,
h,
i,
j,
k,
l,
m,
n,
off,
p,
q,
r,
s,
t,
u,
v,
w,
x,
y,
z,
"/a.ss01",
"/b.ss01",
"/d.ss01",
"/g.ss01",
"/h.ss01",
"/n.ss01",
"/p.ss01",
"/q.ss01",
"/r.ss01",
"/u.ss01",
"/y.ss01",
"/a.ss02",
"/b.ss02",
"/d.ss02",
"/g.ss02",
"/n.ss02",
"/p.ss02",
"/q.ss02",
"/r.ss02",
"/u.ss02",
"/y.ss02",
"",
"0",
"1",
"2",
"3",
"4",
"5",
"6",
"7",
"8",
"9",
".",
",",
":",
";",
"/ellipsis",
"!",
"¡",
"?",
"¿",
"·",
"/bullet",
"*",
"#",
"//",
"/backslash",
"(",
")",
"{",
"}",
"[",
"]",
"-",
"/endash",
"/emdash",
_,
"/quotedblleft",
"/quotedblright",
"/quoteleft",
"/quoteright",
"\"",
"'",
"/.notdef",
"+",
"/minus",
"×",
"÷",
"=",
">",
"<",
"%",
"@",
"&",
"©",
"°",
"|",
"/doubleprimemod",
"/primemod",
"/e.ss01",
"/f_f",
off,
"/f_i g",
"/f_i",
"/e.ss02",
o,
"f/f_l",
"l/f_l",
"/f_l ute",
"/f_l ight",
"/f_l"
);
copyright = "Copyright © 2022 by Jonathan Maghen. All rights reserved.";
date = "2022-10-01 17:13:10 +0000";
designer = "Jonathan Maghen";
familyName = Arena;
featurePrefixes = (
{
automatic = 1;
code = "languagesystem DFLT dflt;\012";
name = Languagesystems;
}
);
features = (
{
automatic = 1;
code = "feature salt;\012feature ss01;\012feature ss02;\012";
name = aalt;
},
{
automatic = 1;
code = "lookupflag IgnoreMarks;\012sub f f by f_f;\012sub f i by f_i;\012sub f l by f_l;\012";
name = liga;
},
{
automatic = 1;
code = "sub a by a.ss01;\012sub b by b.ss01;\012sub d by d.ss01;\012sub e by e.ss01;\012sub g by g.ss01;\012sub h by h.ss01;\012sub n by n.ss01;\012sub p by p.ss01;\012sub q by q.ss01;\012sub r by r.ss01;\012sub u by u.ss01;\012sub y by y.ss01;\012";
name = salt;
},
{
automatic = 1;
code = "sub a by a.ss01;\012sub b by b.ss01;\012sub d by d.ss01;\012sub e by e.ss01;\012sub g by g.ss01;\012sub h by h.ss01;\012sub n by n.ss01;\012sub p by p.ss01;\012sub q by q.ss01;\012sub r by r.ss01;\012sub u by u.ss01;\012sub y by y.ss01;\012";

glyphs = (
{
glyphname = A;
lastChange = "2022-10-07 03:42:18 +0000";
layers = (
{
layerId = "56B7CB81-CC11-4115-9FB5-EB39306C4A9F";
paths = (
{
closed = 1;
nodes = (
"140 0 LINE",
"140 320 LINE",
"460 320 LINE",
"460 0 LINE",
"540 0 LINE",
"540 580 LINE SMOOTH",
"540 713 OFFCURVE",
"433 820 OFFCURVE",
"300 820 CURVE SMOOTH",
"167 820 OFFCURVE",
"60 713 OFFCURVE",
"60 580 CURVE SMOOTH",
"60 0 LINE"
);
},
{
closed = 1;
nodes = (
"140 580 LINE SMOOTH",
"140 669 OFFCURVE",
"211 740 OFFCURVE",
"300 740 CURVE SMOOTH",
"389 740 OFFCURVE",
"460 669 OFFCURVE",
"460 580 CURVE SMOOTH",
"460 400 LINE",
"140 400 LINE"
);
}
);
width = 600;
},
{
layerId = "0F8A7298-526A-4D73-8A76-82A4C1EFD640";
paths = (
{
closed = 1;
nodes = (
"140 0 LINE",
"140 320 LINE",
"460 320 LINE",
"460 0 LINE",
"540 0 LINE",
"540 580 LINE SMOOTH",
"540 713 OFFCURVE",
"433 820 OFFCURVE",
"300 820 CURVE SMOOTH",
"167 820 OFFCURVE",
"60 713 OFFCURVE",
"60 580 CURVE SMOOTH",
"60 0 LINE"
);
},
{
closed = 1;
nodes = (
"140 580 LINE SMOOTH",
"140 669 OFFCURVE",
"211 740 OFFCURVE",
"300 740 CURVE SMOOTH",
"389 740 OFFCURVE",
"460 669 OFFCURVE",
"460 580 CURVE SMOOTH",
"460 400 LINE",
"140 400 LINE"
);
}
);
width = 600;
}
);
unicode = 0041;
},
{
glyphname = B;
lastChange = "2022-10-03 19:24:53 +0000";
layers = (
{
layerId = "56B7CB81-CC11-4115-9FB5-EB39306C4A9F";
paths = (
{
closed = 1;
nodes = (
"300 0 LINE SMOOTH",
"433 0 OFFCURVE",
"540 107 OFFCURVE",
"540 240 CURVE SMOOTH",
"540 327 OFFCURVE",
"494 403 OFFCURVE",
"426 445 CURVE",
"471 481 OFFCURVE",
"500 538 OFFCURVE",
"500 600 CURVE SMOOTH",
"500 710 OFFCURVE",
"410 800 OFFCURVE",
"300 800 CURVE SMOOTH",
"60 800 LINE",
"60 0 LINE"
);
},
{
closed = 1;
nodes = (
"140 400 LINE",
"300 400 LINE SMOOTH",
"389 400 OFFCURVE",
"460 329 OFFCURVE",
"460 240 CURVE SMOOTH",
"460 151 OFFCURVE",
"389 80 OFFCURVE",
"300 80 CURVE SMOOTH",
"140 80 LINE"
);
},
{
closed = 1;
nodes = (
"140 720 LINE",
"300 720 LINE SMOOTH",
"366 720 OFFCURVE",
"420 666 OFFCURVE",
"420 600 CURVE SMOOTH",
"420 534 OFFCURVE",
"366 480 OFFCURVE",
"300 480 CURVE SMOOTH",
"140 480 LINE"
);
}
);
width = 600;
},
{
layerId = "0F8A7298-526A-4D73-8A76-82A4C1EFD640";
paths = (
{
closed = 1;
nodes = (
"300 0 LINE SMOOTH",
"433 0 OFFCURVE",
"540 107 OFFCURVE",
"540 240 CURVE SMOOTH",
"540 327 OFFCURVE",
"494 403 OFFCURVE",
"426 445 CURVE",
"471 481 OFFCURVE",
"500 538 OFFCURVE",
"500 600 CURVE SMOOTH",
"500 710 OFFCURVE",
"410 800 OFFCURVE",
"300 800 CURVE SMOOTH",
"60 800 LINE",
"60 0 LINE"
);
},
{
closed = 1;
nodes = (
"140 400 LINE",
"300 400 LINE SMOOTH",
"389 400 OFFCURVE",
"460 329 OFFCURVE",
"460 240 CURVE SMOOTH",
"460 151 OFFCURVE",
"389 80 OFFCURVE",
"300 80 CURVE SMOOTH",
"140 80 LINE"
);
},
{
closed = 1;
nodes = (
"140 720 LINE",
"300 720 LINE SMOOTH",
"366 720 OFFCURVE",
"420 666 OFFCURVE",
"420 600 CURVE SMOOTH",
"420 534 OFFCURVE",
"366 480 OFFCURVE",
"300 480 CURVE SMOOTH",
"140 480 LINE"
);
}
);
width = 600;
}
);
unicode = 0042;
},
{
glyphname = C;
lastChange = "2022-10-08 03:07:42 +0000";
layers = (
{
layerId = "56B7CB81-CC11-4115-9FB5-EB39306C4A9F";
paths = (
{
closed = 1;
nodes = (
"40 87 OFFCURVE",
"147 -20 OFFCURVE",
"280 -20 CURVE SMOOTH",
"347 -20 OFFCURVE",
"406 7 OFFCURVE",
"449 51 CURVE",
"393 106 LINE",
"364 77 OFFCURVE",
"324 60 OFFCURVE",
"280 60 CURVE SMOOTH",
"191 60 OFFCURVE",
"120 131 OFFCURVE",
"120 220 CURVE SMOOTH",
"120 580 LINE SMOOTH",
"120 669 OFFCURVE",
"191 740 OFFCURVE",
"280 740 CURVE SMOOTH",
"324 740 OFFCURVE",
"364 723 OFFCURVE",
"393 694 CURVE",
"449 749 LINE",
"406 793 OFFCURVE",
"347 820 OFFCURVE",
"280 820 CURVE SMOOTH",
"147 820 OFFCURVE",
"40 713 OFFCURVE",
"40 580 CURVE SMOOTH",
"40 220 LINE SMOOTH"
);
}
);
width = 489;
},
{
layerId = "0F8A7298-526A-4D73-8A76-82A4C1EFD640";
paths = (
{
closed = 1;
nodes = (
"40 87 OFFCURVE",
"147 -20 OFFCURVE",
"280 -20 CURVE SMOOTH",
"347 -20 OFFCURVE",
"406 7 OFFCURVE",
"449 51 CURVE",
"393 106 LINE",
"364 77 OFFCURVE",
"324 60 OFFCURVE",
"280 60 CURVE SMOOTH",
"191 60 OFFCURVE",
"120 131 OFFCURVE",
"120 220 CURVE SMOOTH",
"120 580 LINE SMOOTH",
"120 669 OFFCURVE",
"191 740 OFFCURVE",
"280 740 CURVE SMOOTH",
"324 740 OFFCURVE",
"364 723 OFFCURVE",
"393 694 CURVE",
"449 749 LINE",
"406 793 OFFCURVE",
"347 820 OFFCURVE",
"280 820 CURVE SMOOTH",
"147 820 OFFCURVE",
"40 713 OFFCURVE",
"40 580 CURVE SMOOTH",
"40 220 LINE SMOOTH"
);
}
);
width = 489;
}
);
unicode = 0043;
},
{
glyphname = D;
lastChange = "2022-10-03 19:24:53 +0000";
layers = (
{
layerId = "56B7CB81-CC11-4115-9FB5-EB39306C4A9F";
paths = (
{
closed = 1;
nodes = (
"300 0 LINE SMOOTH",
"433 0 OFFCURVE",
"540 107 OFFCURVE",
"540 240 CURVE SMOOTH",
"540 560 LINE SMOOTH",
"540 693 OFFCURVE",
"433 800 OFFCURVE",
"300 800 CURVE SMOOTH",
"60 800 LINE",
"60 0 LINE"
);
},
{
closed = 1;
nodes = (
"140 720 LINE",
"300 720 LINE SMOOTH",
"389 720 OFFCURVE",
"460 649 OFFCURVE",
"460 560 CURVE SMOOTH",
"460 240 LINE SMOOTH",
"460 151 OFFCURVE",
"389 80 OFFCURVE",
"300 80 CURVE SMOOTH",
"140 80 LINE"
);
}
);
width = 600;
},
{
layerId = "0F8A7298-526A-4D73-8A76-82A4C1EFD640";
paths = (
{
closed = 1;
nodes = (
"300 0 LINE SMOOTH",
"433 0 OFFCURVE",
"540 107 OFFCURVE",
"540 240 CURVE SMOOTH",
"540 560 LINE SMOOTH",
"540 693 OFFCURVE",
"433 800 OFFCURVE",
"300 800 CURVE SMOOTH",
"60 800 LINE",
"60 0 LINE"
);
},
{
closed = 1;
nodes = (
"140 720 LINE",
"300 720 LINE SMOOTH",
"389 720 OFFCURVE",
"460 649 OFFCURVE",
"460 560 CURVE SMOOTH",
"460 240 LINE SMOOTH",
"460 151 OFFCURVE",
"389 80 OFFCURVE",
"300 80 CURVE SMOOTH",
"140 80 LINE"
);
}
);
width = 600;
}
);
unicode = 0044;
},
{
glyphname = E;
lastChange = "2022-10-07 03:39:42 +0000";
layers = (
{
layerId = "56B7CB81-CC11-4115-9FB5-EB39306C4A9F";
paths = (
{
closed = 1;
nodes = (
"460 0 LINE",
"460 80 LINE",
"140 80 LINE",
"140 340 LINE",
"380 340 LINE",
"380 420 LINE",
"140 420 LINE",
"140 720 LINE",
"460 720 LINE",
"460 800 LINE",
"60 800 LINE",
"60 0 LINE"
);
}
);
width = 520;
},
{
layerId = "0F8A7298-526A-4D73-8A76-82A4C1EFD640";
paths = (
{
closed = 1;
nodes = (
"460 0 LINE",
"460 80 LINE",
"140 80 LINE",
"140 340 LINE",
"380 340 LINE",
"380 420 LINE",
"140 420 LINE",
"140 720 LINE",
"460 720 LINE",
"460 800 LINE",
"60 800 LINE",
"60 0 LINE"
);
}
);
width = 520;
}
);
unicode = 0045;
},
{
glyphname = F;
lastChange = "2022-10-07 03:41:45 +0000";
layers = (
{
layerId = "56B7CB81-CC11-4115-9FB5-EB39306C4A9F";
paths = (
{
closed = 1;
nodes = (
"140 0 LINE",
"140 340 LINE",
"380 340 LINE",
"380 420 LINE",
"140 420 LINE",
"140 720 LINE",
"460 720 LINE",
"460 800 LINE",
"60 800 LINE",
"60 0 LINE"
);
}
);
width = 520;
},
{
layerId = "0F8A7298-526A-4D73-8A76-82A4C1EFD640";
paths = (
{
closed = 1;
nodes = (
"140 0 LINE",
"140 340 LINE",
"380 340 LINE",
"380 420 LINE",
"140 420 LINE",
"140 720 LINE",
"460 720 LINE",
"460 800 LINE",
"60 800 LINE",
"60 0 LINE"
);
}
);
width = 520;
}
);
unicode = 0046;
},
{
glyphname = G;
lastChange = "2022-10-09 00:34:50 +0000";
layers = (
{
layerId = "56B7CB81-CC11-4115-9FB5-EB39306C4A9F";
paths = (
{
closed = 1;
nodes = (
"40 87 OFFCURVE",
"147 -20 OFFCURVE",
"280 -20 CURVE SMOOTH",
"413 -20 OFFCURVE",
"520 87 OFFCURVE",
"520 220 CURVE SMOOTH",
"520 420 LINE",
"280 420 LINE",
"280 340 LINE",
"440 340 LINE",
"440 220 LINE SMOOTH",
"440 131 OFFCURVE",
"369 60 OFFCURVE",
"280 60 CURVE SMOOTH",
"191 60 OFFCURVE",
"120 131 OFFCURVE",
"120 220 CURVE SMOOTH",
"120 580 LINE SMOOTH",
"120 669 OFFCURVE",
"191 740 OFFCURVE",
"280 740 CURVE SMOOTH",
"324 740 OFFCURVE",
"364 723 OFFCURVE",
"393 694 CURVE",
"449 749 LINE",
"406 793 OFFCURVE",
"347 820 OFFCURVE",
"280 820 CURVE SMOOTH",
"147 820 OFFCURVE",
"40 713 OFFCURVE",
"40 580 CURVE SMOOTH",
"40 220 LINE SMOOTH"
);
}
);
width = 560;
},
{
layerId = "0F8A7298-526A-4D73-8A76-82A4C1EFD640";
paths = (
{
closed = 1;
nodes = (
"40 87 OFFCURVE",
"147 -20 OFFCURVE",
"280 -20 CURVE SMOOTH",
"413 -20 OFFCURVE",
"520 87 OFFCURVE",
"520 220 CURVE SMOOTH",
"520 420 LINE",
"280 420 LINE",
"280 340 LINE",
"440 340 LINE",
"440 220 LINE SMOOTH",
"440 131 OFFCURVE",
"369 60 OFFCURVE",
"280 60 CURVE SMOOTH",
"191 60 OFFCURVE",
"120 131 OFFCURVE",
"120 220 CURVE SMOOTH",
"120 580 LINE SMOOTH",
"120 669 OFFCURVE",
"191 740 OFFCURVE",
"280 740 CURVE SMOOTH",
"324 740 OFFCURVE",
"364 723 OFFCURVE",
"393 694 CURVE",
"449 749 LINE",
"406 793 OFFCURVE",
"347 820 OFFCURVE",
"280 820 CURVE SMOOTH",
"147 820 OFFCURVE",
"40 713 OFFCURVE",
"40 580 CURVE SMOOTH",
"40 220 LINE SMOOTH"
);
}
);
width = 560;
}
);
unicode = 0047;
},
{
glyphname = H;
lastChange = "2022-10-07 03:40:13 +0000";
layers = (
{
layerId = "56B7CB81-CC11-4115-9FB5-EB39306C4A9F";
paths = (
{
closed = 1;
nodes = (
"140 0 LINE",
"140 340 LINE",
"460 340 LINE",
"460 0 LINE",
"540 0 LINE",
"540 800 LINE",
"460 800 LINE",
"460 420 LINE",
"140 420 LINE",
"140 800 LINE",
"60 800 LINE",
"60 0 LINE"
);
}
);
width = 600;
},
{
layerId = "0F8A7298-526A-4D73-8A76-82A4C1EFD640";
paths = (
{
closed = 1;
nodes = (
"140 0 LINE",
"140 340 LINE",
"460 340 LINE",
"460 0 LINE",
"540 0 LINE",
"540 800 LINE",
"460 800 LINE",
"460 420 LINE",
"140 420 LINE",
"140 800 LINE",
"60 800 LINE",
"60 0 LINE"
);
}
);
width = 600;
}
);
unicode = 0048;
},
{
glyphname = I;
lastChange = "2022-10-03 19:24:53 +0000";
layers = (
{
layerId = "56B7CB81-CC11-4115-9FB5-EB39306C4A9F";
paths = (
{
closed = 1;
nodes = (
"80 800 LINE",
"80 0 LINE",
"160 0 LINE",
"160 800 LINE"
);
}
);
width = 240;
},
{
layerId = "0F8A7298-526A-4D73-8A76-82A4C1EFD640";
paths = (
{
closed = 1;
nodes = (
"80 800 LINE",
"80 0 LINE",
"160 0 LINE",
"160 800 LINE"
);
}
);
width = 240;
}
);
unicode = 0049;
},
{
glyphname = J;
lastChange = "2022-10-03 19:24:53 +0000";
layers = (
{
layerId = "56B7CB81-CC11-4115-9FB5-EB39306C4A9F";
paths = (
{
closed = 1;
nodes = (
"60 87 OFFCURVE",
"167 -20 OFFCURVE",
"300 -20 CURVE SMOOTH",
"433 -20 OFFCURVE",
"540 87 OFFCURVE",
"540 220 CURVE SMOOTH",
"540 800 LINE",
"460 800 LINE",
"460 220 LINE SMOOTH",
"460 131 OFFCURVE",
"389 60 OFFCURVE",
"300 60 CURVE SMOOTH",
"211 60 OFFCURVE",
"140 131 OFFCURVE",
"140 220 CURVE",
"60 220 LINE"
);
}
);
width = 600;
},
{
layerId = "0F8A7298-526A-4D73-8A76-82A4C1EFD640";
paths = (
{
closed = 1;
nodes = (
"60 87 OFFCURVE",
"167 -20 OFFCURVE",
"300 -20 CURVE SMOOTH",
"433 -20 OFFCURVE",
"540 87 OFFCURVE",
"540 220 CURVE SMOOTH",
"540 800 LINE",
"460 800 LINE",
"460 220 LINE SMOOTH",
"460 131 OFFCURVE",
"389 60 OFFCURVE",
"300 60 CURVE SMOOTH",
"211 60 OFFCURVE",
"140 131 OFFCURVE",
"140 220 CURVE",
"60 220 LINE"
);
}
);
width = 600;
}
);
unicode = 004A;
},
{
glyphname = K;
lastChange = "2022-10-03 19:24:53 +0000";
layers = (
{
layerId = "56B7CB81-CC11-4115-9FB5-EB39306C4A9F";
paths = (
{
closed = 1;
nodes = (
"140 0 LINE",
"140 360 LINE",
"300 360 LINE SMOOTH",
"389 360 OFFCURVE",
"460 289 OFFCURVE",
"460 200 CURVE SMOOTH",
"460 0 LINE",
"540 0 LINE",
"540 200 LINE SMOOTH",
"540 303 OFFCURVE",
"476 391 OFFCURVE",
"384 425 CURVE",
"431 469 OFFCURVE",
"460 531 OFFCURVE",
"460 600 CURVE SMOOTH",
"460 800 LINE",
"380 800 LINE",
"380 600 LINE SMOOTH",
"380 511 OFFCURVE",
"309 440 OFFCURVE",
"220 440 CURVE SMOOTH",
"140 440 LINE",
"140 800 LINE",
"60 800 LINE",
"60 0 LINE"
);
}
);
width = 600;
},
{
layerId = "0F8A7298-526A-4D73-8A76-82A4C1EFD640";
paths = (
{
closed = 1;
nodes = (
"140 0 LINE",
"140 360 LINE",
"300 360 LINE SMOOTH",
"389 360 OFFCURVE",
"460 289 OFFCURVE",
"460 200 CURVE SMOOTH",
"460 0 LINE",
"540 0 LINE",
"540 200 LINE SMOOTH",
"540 303 OFFCURVE",
"476 391 OFFCURVE",
"384 425 CURVE",
"431 469 OFFCURVE",
"460 531 OFFCURVE",
"460 600 CURVE SMOOTH",
"460 800 LINE",
"380 800 LINE",
"380 600 LINE SMOOTH",
"380 511 OFFCURVE",
"309 440 OFFCURVE",
"220 440 CURVE SMOOTH",
"140 440 LINE",
"140 800 LINE",
"60 800 LINE",
"60 0 LINE"
);
}
);
width = 600;
}
);
unicode = 004B;
},
{
glyphname = L;
lastChange = "2022-10-03 19:24:53 +0000";
layers = (
{
layerId = "56B7CB81-CC11-4115-9FB5-EB39306C4A9F";
paths = (
{
closed = 1;
nodes = (
"460 0 LINE",
"460 80 LINE",
"140 80 LINE",
"140 800 LINE",
"60 800 LINE",
"60 0 LINE"
);
}
);
width = 520;
},
{
layerId = "0F8A7298-526A-4D73-8A76-82A4C1EFD640";
paths = (
{
closed = 1;
nodes = (
"460 0 LINE",
"460 80 LINE",
"140 80 LINE",
"140 800 LINE",
"60 800 LINE",
"60 0 LINE"
);
}
);
width = 520;
}
);
unicode = 004C;
},
{
glyphname = M;
lastChange = "2022-10-03 19:24:53 +0000";
layers = (
{
layerId = "56B7CB81-CC11-4115-9FB5-EB39306C4A9F";
paths = (
{
closed = 1;
nodes = (
"140 0 LINE",
"140 660 LINE SMOOTH",
"140 704 OFFCURVE",
"176 740 OFFCURVE",
"220 740 CURVE SMOOTH",
"263 740 OFFCURVE",
"300 705 OFFCURVE",
"300 662 CURVE SMOOTH",
"300 660 LINE",
"300 0 LINE",
"380 0 LINE",
"380 660 LINE SMOOTH",
"380 704 OFFCURVE",
"416 740 OFFCURVE",
"460 740 CURVE SMOOTH",
"504 740 OFFCURVE",
"540 704 OFFCURVE",
"540 660 CURVE SMOOTH",
"540 0 LINE",
"620 0 LINE",
"620 660 LINE SMOOTH",
"620 748 OFFCURVE",
"548 820 OFFCURVE",
"460 820 CURVE SMOOTH",
"412 820 OFFCURVE",
"369 799 OFFCURVE",
"340 766 CURVE",
"310 799 OFFCURVE",
"268 820 OFFCURVE",
"220 820 CURVE SMOOTH",
"131 820 OFFCURVE",
"60 748 OFFCURVE",
"60 660 CURVE SMOOTH",
"60 0 LINE"
);
}
);
width = 680;
},
{
layerId = "0F8A7298-526A-4D73-8A76-82A4C1EFD640";
paths = (
{
closed = 1;
nodes = (
"140 0 LINE",
"140 660 LINE SMOOTH",
"140 704 OFFCURVE",
"176 740 OFFCURVE",
"220 740 CURVE SMOOTH",
"263 740 OFFCURVE",
"300 705 OFFCURVE",
"300 662 CURVE SMOOTH",
"300 660 LINE",
"300 0 LINE",
"380 0 LINE",
"380 660 LINE SMOOTH",
"380 704 OFFCURVE",
"416 740 OFFCURVE",
"460 740 CURVE SMOOTH",
"504 740 OFFCURVE",
"540 704 OFFCURVE",
"540 660 CURVE SMOOTH",
"540 0 LINE",
"620 0 LINE",
"620 660 LINE SMOOTH",
"620 748 OFFCURVE",
"548 820 OFFCURVE",
"460 820 CURVE SMOOTH",
"412 820 OFFCURVE",
"369 799 OFFCURVE",
"340 766 CURVE",
"310 799 OFFCURVE",
"268 820 OFFCURVE",
"220 820 CURVE SMOOTH",
"131 820 OFFCURVE",
"60 748 OFFCURVE",
"60 660 CURVE SMOOTH",
"60 0 LINE"
);
}
);
width = 680;
}
);
unicode = 004D;
},
{
glyphname = N;
lastChange = "2022-10-08 03:06:17 +0000";
layers = (
{
layerId = "56B7CB81-CC11-4115-9FB5-EB39306C4A9F";
paths = (
{
closed = 1;
nodes = (
"140 0 LINE",
"140 660 LINE SMOOTH",
"140 704 OFFCURVE",
"176 740 OFFCURVE",
"220 740 CURVE SMOOTH",
"264 740 OFFCURVE",
"301 704 OFFCURVE",
"300 660 CURVE SMOOTH",
"300 140 LINE SMOOTH",
"300 52 OFFCURVE",
"371 -20 OFFCURVE",
"460 -20 CURVE SMOOTH",
"548 -20 OFFCURVE",
"620 52 OFFCURVE",
"620 140 CURVE SMOOTH",
"620 800 LINE",
"540 800 LINE",
"540 140 LINE SMOOTH",
"540 96 OFFCURVE",
"504 60 OFFCURVE",
"460 60 CURVE SMOOTH",
"416 60 OFFCURVE",
"381 96 OFFCURVE",
"380 140 CURVE SMOOTH",
"380 660 LINE SMOOTH",
"380 748 OFFCURVE",
"308 820 OFFCURVE",
"220 820 CURVE SMOOTH",
"131 820 OFFCURVE",
"60 748 OFFCURVE",
"60 660 CURVE SMOOTH",
"60 0 LINE"
);
}
);
width = 680;
},
{
layerId = "0F8A7298-526A-4D73-8A76-82A4C1EFD640";
paths = (
{
closed = 1;
nodes = (
"140 0 LINE",
"140 660 LINE SMOOTH",
"140 704 OFFCURVE",
"176 740 OFFCURVE",
"220 740 CURVE SMOOTH",
"264 740 OFFCURVE",
"301 704 OFFCURVE",
"300 660 CURVE SMOOTH",
"300 140 LINE SMOOTH",
"300 52 OFFCURVE",
"371 -20 OFFCURVE",
"460 -20 CURVE SMOOTH",
"548 -20 OFFCURVE",
"620 52 OFFCURVE",
"620 140 CURVE SMOOTH",
"620 800 LINE",
"540 800 LINE",
"540 140 LINE SMOOTH",
"540 96 OFFCURVE",
"504 60 OFFCURVE",
"460 60 CURVE SMOOTH",
"416 60 OFFCURVE",
"381 96 OFFCURVE",
"380 140 CURVE SMOOTH",
"380 660 LINE SMOOTH",
"380 748 OFFCURVE",
"308 820 OFFCURVE",
"220 820 CURVE SMOOTH",
"131 820 OFFCURVE",
"60 748 OFFCURVE",
"60 660 CURVE SMOOTH",
"60 0 LINE"
);
}
);
width = 680;
}
);
unicode = 004E;
},
{
glyphname = O;
lastChange = "2022-10-03 19:24:53 +0000";
layers = (
{
layerId = "56B7CB81-CC11-4115-9FB5-EB39306C4A9F";
paths = (
{
closed = 1;
nodes = (
"60 87 OFFCURVE",
"167 -20 OFFCURVE",
"300 -20 CURVE SMOOTH",
"433 -20 OFFCURVE",
"540 87 OFFCURVE",
"540 220 CURVE SMOOTH",
"540 580 LINE SMOOTH",
"540 713 OFFCURVE",
"433 820 OFFCURVE",
"300 820 CURVE SMOOTH",
"167 820 OFFCURVE",
"60 713 OFFCURVE",
"60 580 CURVE SMOOTH",
"60 220 LINE SMOOTH"
);
},
{
closed = 1;
nodes = (
"140 580 LINE SMOOTH",
"140 669 OFFCURVE",
"211 740 OFFCURVE",
"300 740 CURVE SMOOTH",
"389 740 OFFCURVE",
"460 669 OFFCURVE",
"460 580 CURVE SMOOTH",
"460 220 LINE SMOOTH",
"460 131 OFFCURVE",
"389 60 OFFCURVE",
"300 60 CURVE SMOOTH",
"211 60 OFFCURVE",
"140 131 OFFCURVE",
"140 220 CURVE SMOOTH"
);
}
);
width = 600;
},
{
layerId = "0F8A7298-526A-4D73-8A76-82A4C1EFD640";
paths = (
{
closed = 1;
nodes = (
"60 87 OFFCURVE",
"167 -20 OFFCURVE",
"300 -20 CURVE SMOOTH",
"433 -20 OFFCURVE",
"540 87 OFFCURVE",
"540 220 CURVE SMOOTH",
"540 580 LINE SMOOTH",
"540 713 OFFCURVE",
"433 820 OFFCURVE",
"300 820 CURVE SMOOTH",
"167 820 OFFCURVE",
"60 713 OFFCURVE",
"60 580 CURVE SMOOTH",
"60 220 LINE SMOOTH"
);
},
{
closed = 1;
nodes = (
"140 580 LINE SMOOTH",
"140 669 OFFCURVE",
"211 740 OFFCURVE",
"300 740 CURVE SMOOTH",
"389 740 OFFCURVE",
"460 669 OFFCURVE",
"460 580 CURVE SMOOTH",
"460 220 LINE SMOOTH",
"460 131 OFFCURVE",
"389 60 OFFCURVE",
"300 60 CURVE SMOOTH",
"211 60 OFFCURVE",
"140 131 OFFCURVE",
"140 220 CURVE SMOOTH"
);
}
);
width = 600;
}
);
unicode = 004F;
},
{
glyphname = P;
lastChange = "2022-10-03 19:24:53 +0000";
layers = (
{
layerId = "56B7CB81-CC11-4115-9FB5-EB39306C4A9F";
paths = (
{
closed = 1;
nodes = (
"140 0 LINE",
"140 320 LINE",
"300 320 LINE SMOOTH",
"433 320 OFFCURVE",
"540 427 OFFCURVE",
"540 560 CURVE SMOOTH",
"540 693 OFFCURVE",
"433 800 OFFCURVE",
"300 800 CURVE SMOOTH",
"60 800 LINE",
"60 0 LINE"
);
},
{
closed = 1;
nodes = (
"140 720 LINE",
"300 720 LINE SMOOTH",
"389 720 OFFCURVE",
"460 649 OFFCURVE",
"460 560 CURVE SMOOTH",
"460 471 OFFCURVE",
"389 400 OFFCURVE",
"300 400 CURVE SMOOTH",
"140 400 LINE"
);
}
);
width = 600;
},
{
layerId = "0F8A7298-526A-4D73-8A76-82A4C1EFD640";
paths = (
{
closed = 1;
nodes = (
"140 0 LINE",
"140 320 LINE",
"300 320 LINE SMOOTH",
"433 320 OFFCURVE",
"540 427 OFFCURVE",
"540 560 CURVE SMOOTH",
"540 693 OFFCURVE",
"433 800 OFFCURVE",
"300 800 CURVE SMOOTH",
"60 800 LINE",
"60 0 LINE"
);
},
{
closed = 1;
nodes = (
"140 720 LINE",
"300 720 LINE SMOOTH",
"389 720 OFFCURVE",
"460 649 OFFCURVE",
"460 560 CURVE SMOOTH",
"460 471 OFFCURVE",
"389 400 OFFCURVE",
"300 400 CURVE SMOOTH",
"140 400 LINE"
);
}
);
width = 600;
}
);
unicode = 0050;
},
{
glyphname = Q;
lastChange = "2022-10-03 19:24:53 +0000";
layers = (
{
layerId = "56B7CB81-CC11-4115-9FB5-EB39306C4A9F";
paths = (
{
closed = 1;
nodes = (
"60 96 OFFCURVE",
"153 -5 OFFCURVE",
"273 -19 CURVE",
"305 -113 OFFCURVE",
"395 -180 OFFCURVE",
"500 -180 CURVE",
"500 -100 LINE",
"437 -100 OFFCURVE",
"384 -65 OFFCURVE",
"357 -13 CURVE",
"462 12 OFFCURVE",
"540 107 OFFCURVE",
"540 220 CURVE SMOOTH",
"540 580 LINE SMOOTH",
"540 713 OFFCURVE",
"433 820 OFFCURVE",
"300 820 CURVE SMOOTH",
"167 820 OFFCURVE",
"60 713 OFFCURVE",
"60 580 CURVE SMOOTH",
"60 220 LINE SMOOTH"
);
},
{
closed = 1;
nodes = (
"140 580 LINE SMOOTH",
"140 669 OFFCURVE",
"211 740 OFFCURVE",
"300 740 CURVE SMOOTH",
"389 740 OFFCURVE",
"460 669 OFFCURVE",
"460 580 CURVE SMOOTH",
"460 220 LINE SMOOTH",
"460 131 OFFCURVE",
"389 60 OFFCURVE",
"300 60 CURVE SMOOTH",
"211 60 OFFCURVE",
"140 131 OFFCURVE",
"140 220 CURVE SMOOTH"
);
}
);
width = 600;
},
{
layerId = "0F8A7298-526A-4D73-8A76-82A4C1EFD640";
paths = (
{
closed = 1;
nodes = (
"60 96 OFFCURVE",
"153 -5 OFFCURVE",
"273 -19 CURVE",
"305 -113 OFFCURVE",
"395 -180 OFFCURVE",
"500 -180 CURVE",
"500 -100 LINE",
"437 -100 OFFCURVE",
"384 -65 OFFCURVE",
"357 -13 CURVE",
"462 12 OFFCURVE",
"540 107 OFFCURVE",
"540 220 CURVE SMOOTH",
"540 580 LINE SMOOTH",
"540 713 OFFCURVE",
"433 820 OFFCURVE",
"300 820 CURVE SMOOTH",
"167 820 OFFCURVE",
"60 713 OFFCURVE",
"60 580 CURVE SMOOTH",
"60 220 LINE SMOOTH"
);
},
{
closed = 1;
nodes = (
"140 580 LINE SMOOTH",
"140 669 OFFCURVE",
"211 740 OFFCURVE",
"300 740 CURVE SMOOTH",
"389 740 OFFCURVE",
"460 669 OFFCURVE",
"460 580 CURVE SMOOTH",
"460 220 LINE SMOOTH",
"460 131 OFFCURVE",
"389 60 OFFCURVE",
"300 60 CURVE SMOOTH",
"211 60 OFFCURVE",
"140 131 OFFCURVE",
"140 220 CURVE SMOOTH"
);
}
);
width = 600;
}
);
unicode = 0051;
},
{
glyphname = R;
lastChange = "2022-10-03 19:24:53 +0000";
layers = (
{
layerId = "56B7CB81-CC11-4115-9FB5-EB39306C4A9F";
paths = (
{
closed = 1;
nodes = (
"140 0 LINE",
"140 320 LINE",
"300 320 LINE SMOOTH",
"389 320 OFFCURVE",
"460 249 OFFCURVE",
"460 160 CURVE SMOOTH",
"460 0 LINE",
"540 0 LINE",
"540 160 LINE SMOOTH",
"540 244 OFFCURVE",
"497 318 OFFCURVE",
"432 361 CURVE",
"497 404 OFFCURVE",
"540 477 OFFCURVE",
"540 560 CURVE SMOOTH",
"540 693 OFFCURVE",
"433 800 OFFCURVE",
"300 800 CURVE SMOOTH",
"60 800 LINE",
"60 0 LINE"
);
},
{
closed = 1;
nodes = (
"140 720 LINE",
"300 720 LINE SMOOTH",
"389 720 OFFCURVE",
"460 649 OFFCURVE",
"460 560 CURVE SMOOTH",
"460 471 OFFCURVE",
"389 400 OFFCURVE",
"300 400 CURVE SMOOTH",
"140 400 LINE"
);
}
);
width = 600;
},
{
layerId = "0F8A7298-526A-4D73-8A76-82A4C1EFD640";
paths = (
{
closed = 1;
nodes = (
"140 0 LINE",
"140 320 LINE",
"300 320 LINE SMOOTH",
"389 320 OFFCURVE",
"460 249 OFFCURVE",
"460 160 CURVE SMOOTH",
"460 0 LINE",
"540 0 LINE",
"540 160 LINE SMOOTH",
"540 244 OFFCURVE",
"497 318 OFFCURVE",
"432 361 CURVE",
"497 404 OFFCURVE",
"540 477 OFFCURVE",
"540 560 CURVE SMOOTH",
"540 693 OFFCURVE",
"433 800 OFFCURVE",
"300 800 CURVE SMOOTH",
"60 800 LINE",
"60 0 LINE"
);
},
{
closed = 1;
nodes = (
"140 720 LINE",
"300 720 LINE SMOOTH",
"389 720 OFFCURVE",
"460 649 OFFCURVE",
"460 560 CURVE SMOOTH",
"460 471 OFFCURVE",
"389 400 OFFCURVE",
"300 400 CURVE SMOOTH",
"140 400 LINE"
);
}
);
width = 600;
}
);
unicode = 0052;
},
{
glyphname = S;
lastChange = "2022-10-03 19:24:53 +0000";
layers = (
{
layerId = "56B7CB81-CC11-4115-9FB5-EB39306C4A9F";
paths = (
{
closed = 1;
nodes = (
"60 78 OFFCURVE",
"158 -20 OFFCURVE",
"280 -20 CURVE SMOOTH",
"320 -20 LINE SMOOTH",
"442 -20 OFFCURVE",
"540 78 OFFCURVE",
"540 200 CURVE SMOOTH",
"540 220 LINE SMOOTH",
"540 342 OFFCURVE",
"442 440 OFFCURVE",
"320 440 CURVE SMOOTH",
"280 440 LINE SMOOTH",
"202 440 OFFCURVE",
"140 501 OFFCURVE",
"140 580 CURVE SMOOTH",
"140 600 LINE SMOOTH",
"140 678 OFFCURVE",
"201 740 OFFCURVE",
"280 740 CURVE SMOOTH",
"320 740 LINE SMOOTH",
"399 740 OFFCURVE",
"460 678 OFFCURVE",
"460 600 CURVE",
"540 600 LINE",
"540 722 OFFCURVE",
"442 820 OFFCURVE",
"320 820 CURVE SMOOTH",
"280 820 LINE SMOOTH",
"158 820 OFFCURVE",
"60 722 OFFCURVE",
"60 600 CURVE SMOOTH",
"60 580 LINE SMOOTH",
"60 458 OFFCURVE",
"158 360 OFFCURVE",
"280 360 CURVE SMOOTH",
"320 360 LINE SMOOTH",
"399 360 OFFCURVE",
"460 298 OFFCURVE",
"460 220 CURVE SMOOTH",
"460 200 LINE SMOOTH",
"460 122 OFFCURVE",
"399 60 OFFCURVE",
"320 60 CURVE SMOOTH",
"280 60 LINE SMOOTH",
"201 60 OFFCURVE",
"140 122 OFFCURVE",
"140 200 CURVE",
"60 200 LINE"
);
}
);
width = 600;
},
{
layerId = "0F8A7298-526A-4D73-8A76-82A4C1EFD640";
paths = (
{
closed = 1;
nodes = (
"60 78 OFFCURVE",
"158 -20 OFFCURVE",
"280 -20 CURVE SMOOTH",
"320 -20 LINE SMOOTH",
"442 -20 OFFCURVE",
"540 78 OFFCURVE",
"540 200 CURVE SMOOTH",
"540 220 LINE SMOOTH",
"540 342 OFFCURVE",
"442 440 OFFCURVE",
"320 440 CURVE SMOOTH",
"280 440 LINE SMOOTH",
"202 440 OFFCURVE",
"140 501 OFFCURVE",
"140 580 CURVE SMOOTH",
"140 600 LINE SMOOTH",
"140 678 OFFCURVE",
"201 740 OFFCURVE",
"280 740 CURVE SMOOTH",
"320 740 LINE SMOOTH",
"399 740 OFFCURVE",
"460 678 OFFCURVE",
"460 600 CURVE",
"540 600 LINE",
"540 722 OFFCURVE",
"442 820 OFFCURVE",
"320 820 CURVE SMOOTH",
"280 820 LINE SMOOTH",
"158 820 OFFCURVE",
"60 722 OFFCURVE",
"60 600 CURVE SMOOTH",
"60 580 LINE SMOOTH",
"60 458 OFFCURVE",
"158 360 OFFCURVE",
"280 360 CURVE SMOOTH",
"320 360 LINE SMOOTH",
"399 360 OFFCURVE",
"460 298 OFFCURVE",
"460 220 CURVE SMOOTH",
"460 200 LINE SMOOTH",
"460 122 OFFCURVE",
"399 60 OFFCURVE",
"320 60 CURVE SMOOTH",
"280 60 LINE SMOOTH",
"201 60 OFFCURVE",
"140 122 OFFCURVE",
"140 200 CURVE",
"60 200 LINE"
);
}
);
width = 600;
}
);
unicode = 0053;
},
{
glyphname = T;
lastChange = "2022-10-03 19:24:53 +0000";
layers = (
{
layerId = "56B7CB81-CC11-4115-9FB5-EB39306C4A9F";
paths = (
{
closed = 1;
nodes = (
"220 720 LINE",
"220 0 LINE",
"300 0 LINE",
"300 720 LINE",
"460 720 LINE",
"460 800 LINE",
"60 800 LINE",
"60 720 LINE"
);
}
);
width = 520;
},
{
layerId = "0F8A7298-526A-4D73-8A76-82A4C1EFD640";
paths = (
{
closed = 1;
nodes = (
"220 720 LINE",
"220 0 LINE",
"300 0 LINE",
"300 720 LINE",
"460 720 LINE",
"460 800 LINE",
"60 800 LINE",
"60 720 LINE"
);
}
);
width = 520;
}
);
unicode = 0054;
},
{
glyphname = U;
lastChange = "2022-10-03 19:24:53 +0000";
layers = (
{
layerId = "56B7CB81-CC11-4115-9FB5-EB39306C4A9F";
paths = (
{
closed = 1;
nodes = (
"60 87 OFFCURVE",
"167 -20 OFFCURVE",
"300 -20 CURVE SMOOTH",
"433 -20 OFFCURVE",
"540 87 OFFCURVE",
"540 220 CURVE SMOOTH",
"540 800 LINE",
"460 800 LINE",
"460 220 LINE SMOOTH",
"460 131 OFFCURVE",
"389 60 OFFCURVE",
"300 60 CURVE SMOOTH",
"211 60 OFFCURVE",
"140 131 OFFCURVE",
"140 220 CURVE SMOOTH",
"140 800 LINE",
"60 800 LINE",
"60 220 LINE SMOOTH"
);
}
);
width = 600;
},
{
layerId = "0F8A7298-526A-4D73-8A76-82A4C1EFD640";
paths = (
{
closed = 1;
nodes = (
"60 87 OFFCURVE",
"167 -20 OFFCURVE",
"300 -20 CURVE SMOOTH",
"433 -20 OFFCURVE",
"540 87 OFFCURVE",
"540 220 CURVE SMOOTH",
"540 800 LINE",
"460 800 LINE",
"460 220 LINE SMOOTH",
"460 131 OFFCURVE",
"389 60 OFFCURVE",
"300 60 CURVE SMOOTH",
"211 60 OFFCURVE",
"140 131 OFFCURVE",
"140 220 CURVE SMOOTH",
"140 800 LINE",
"60 800 LINE",
"60 220 LINE SMOOTH"
);
}
);
width = 600;
}
);
unicode = 0055;
},
{
glyphname = V;
lastChange = "2022-10-03 19:24:53 +0000";
layers = (
{
layerId = "56B7CB81-CC11-4115-9FB5-EB39306C4A9F";
paths = (
{
closed = 1;
nodes = (
"80 52 OFFCURVE",
"151 -20 OFFCURVE",
"240 -20 CURVE SMOOTH",
"328 -20 OFFCURVE",
"400 52 OFFCURVE",
"400 140 CURVE SMOOTH",
"400 800 LINE",
"320 800 LINE",
"320 140 LINE",
"323 96 OFFCURVE",
"284 60 OFFCURVE",
"240 60 CURVE SMOOTH",
"196 60 OFFCURVE",
"160 96 OFFCURVE",
"160 140 CURVE SMOOTH",
"160 800 LINE",
"80 800 LINE",
"80 140 LINE SMOOTH"
);
}
);
width = 480;
},
{
layerId = "0F8A7298-526A-4D73-8A76-82A4C1EFD640";
paths = (
{
closed = 1;
nodes = (
"80 52 OFFCURVE",
"151 -20 OFFCURVE",
"240 -20 CURVE SMOOTH",
"328 -20 OFFCURVE",
"400 52 OFFCURVE",
"400 140 CURVE SMOOTH",
"400 800 LINE",
"320 800 LINE",
"320 140 LINE",
"323 96 OFFCURVE",
"284 60 OFFCURVE",
"240 60 CURVE SMOOTH",
"196 60 OFFCURVE",
"160 96 OFFCURVE",
"160 140 CURVE SMOOTH",
"160 800 LINE",
"80 800 LINE",
"80 140 LINE SMOOTH"
);
}
);
width = 480;
}
);
unicode = 0056;
},
{
glyphname = W;
lastChange = "2022-10-03 19:24:53 +0000";
layers = (
{
layerId = "56B7CB81-CC11-4115-9FB5-EB39306C4A9F";
paths = (
{
closed = 1;
nodes = (
"60 52 OFFCURVE",
"131 -20 OFFCURVE",
"220 -20 CURVE SMOOTH",
"268 -20 OFFCURVE",
"310 1 OFFCURVE",
"340 34 CURVE",
"369 1 OFFCURVE",
"412 -20 OFFCURVE",
"460 -20 CURVE SMOOTH",
"548 -20 OFFCURVE",
"620 52 OFFCURVE",
"620 140 CURVE SMOOTH",
"620 800 LINE",
"540 800 LINE",
"540 140 LINE SMOOTH",
"540 96 OFFCURVE",
"504 60 OFFCURVE",
"460 60 CURVE SMOOTH",
"416 60 OFFCURVE",
"380 96 OFFCURVE",
"380 140 CURVE SMOOTH",
"380 800 LINE",
"300 800 LINE",
"300 140 LINE",
"300 138 LINE SMOOTH",
"300 95 OFFCURVE",
"263 60 OFFCURVE",
"220 60 CURVE SMOOTH",
"176 60 OFFCURVE",
"140 96 OFFCURVE",
"140 140 CURVE SMOOTH",
"140 800 LINE",
"60 800 LINE",
"60 140 LINE SMOOTH"
);
}
);
width = 680;
},
{
layerId = "0F8A7298-526A-4D73-8A76-82A4C1EFD640";
paths = (
{
closed = 1;
nodes = (
"60 52 OFFCURVE",
"131 -20 OFFCURVE",
"220 -20 CURVE SMOOTH",
"268 -20 OFFCURVE",
"310 1 OFFCURVE",
"340 34 CURVE",
"369 1 OFFCURVE",
"412 -20 OFFCURVE",
"460 -20 CURVE SMOOTH",
"548 -20 OFFCURVE",
"620 52 OFFCURVE",
"620 140 CURVE SMOOTH",
"620 800 LINE",
"540 800 LINE",
"540 140 LINE SMOOTH",
"540 96 OFFCURVE",
"504 60 OFFCURVE",
"460 60 CURVE SMOOTH",
"416 60 OFFCURVE",
"380 96 OFFCURVE",
"380 140 CURVE SMOOTH",
"380 800 LINE",
"300 800 LINE",
"300 140 LINE",
"300 138 LINE SMOOTH",
"300 95 OFFCURVE",
"263 60 OFFCURVE",
"220 60 CURVE SMOOTH",
"176 60 OFFCURVE",
"140 96 OFFCURVE",
"140 140 CURVE SMOOTH",
"140 800 LINE",
"60 800 LINE",
"60 140 LINE SMOOTH"
);
}
);
width = 680;
}
);
unicode = 0057;
},
{
glyphname = X;
lastChange = "2022-10-03 19:24:53 +0000";
layers = (
{
layerId = "56B7CB81-CC11-4115-9FB5-EB39306C4A9F";
paths = (
{
closed = 1;
nodes = (
"140 0 LINE",
"140 200 LINE SMOOTH",
"140 289 OFFCURVE",
"211 360 OFFCURVE",
"300 360 CURVE SMOOTH",
"389 360 OFFCURVE",
"460 289 OFFCURVE",
"460 200 CURVE SMOOTH",
"460 0 LINE",
"540 0 LINE",
"540 200 LINE SMOOTH",
"540 284 OFFCURVE",
"498 357 OFFCURVE",
"433 400 CURVE",
"498 443 OFFCURVE",
"540 516 OFFCURVE",
"540 600 CURVE SMOOTH",
"540 800 LINE",
"460 800 LINE",
"460 600 LINE SMOOTH",
"460 511 OFFCURVE",
"389 440 OFFCURVE",
"300 440 CURVE SMOOTH",
"211 440 OFFCURVE",
"140 511 OFFCURVE",
"140 600 CURVE SMOOTH",
"140 800 LINE",
"60 800 LINE",
"60 600 LINE SMOOTH",
"60 516 OFFCURVE",
"102 443 OFFCURVE",
"167 400 CURVE",
"102 357 OFFCURVE",
"60 284 OFFCURVE",
"60 200 CURVE SMOOTH",
"60 0 LINE"
);
}
);
width = 600;
},
{
layerId = "0F8A7298-526A-4D73-8A76-82A4C1EFD640";
paths = (
{
closed = 1;
nodes = (
"140 0 LINE",
"140 200 LINE SMOOTH",
"140 289 OFFCURVE",
"211 360 OFFCURVE",
"300 360 CURVE SMOOTH",
"389 360 OFFCURVE",
"460 289 OFFCURVE",
"460 200 CURVE SMOOTH",
"460 0 LINE",
"540 0 LINE",
"540 200 LINE SMOOTH",
"540 284 OFFCURVE",
"498 357 OFFCURVE",
"433 400 CURVE",
"498 443 OFFCURVE",
"540 516 OFFCURVE",
"540 600 CURVE SMOOTH",
"540 800 LINE",
"460 800 LINE",
"460 600 LINE SMOOTH",
"460 511 OFFCURVE",
"389 440 OFFCURVE",
"300 440 CURVE SMOOTH",
"211 440 OFFCURVE",
"140 511 OFFCURVE",
"140 600 CURVE SMOOTH",
"140 800 LINE",
"60 800 LINE",
"60 600 LINE SMOOTH",
"60 516 OFFCURVE",
"102 443 OFFCURVE",
"167 400 CURVE",
"102 357 OFFCURVE",
"60 284 OFFCURVE",
"60 200 CURVE SMOOTH",
"60 0 LINE"
);
}
);
width = 600;
}
);
unicode = 0058;
},
{
glyphname = Y;
lastChange = "2022-10-03 19:24:53 +0000";
layers = (
{
layerId = "56B7CB81-CC11-4115-9FB5-EB39306C4A9F";
paths = (
{
closed = 1;
nodes = (
"60 461 OFFCURVE",
"146 362 OFFCURVE",
"260 343 CURVE",
"260 0 LINE",
"340 0 LINE",
"340 343 LINE",
"454 362 OFFCURVE",
"540 460 OFFCURVE",
"540 580 CURVE SMOOTH",
"540 800 LINE",
"460 800 LINE",
"460 580 LINE SMOOTH",
"460 491 OFFCURVE",
"389 420 OFFCURVE",
"300 420 CURVE SMOOTH",
"211 420 OFFCURVE",
"141 492 OFFCURVE",
"140 580 CURVE SMOOTH",
"140 800 LINE",
"60 800 LINE",
"60 580 LINE SMOOTH"
);
}
);
width = 600;
},
{
layerId = "0F8A7298-526A-4D73-8A76-82A4C1EFD640";
paths = (
{
closed = 1;
nodes = (
"60 461 OFFCURVE",
"146 362 OFFCURVE",
"260 343 CURVE",
"260 0 LINE",
"340 0 LINE",
"340 343 LINE",
"454 362 OFFCURVE",
"540 460 OFFCURVE",
"540 580 CURVE SMOOTH",
"540 800 LINE",
"460 800 LINE",
"460 580 LINE SMOOTH",
"460 491 OFFCURVE",
"389 420 OFFCURVE",
"300 420 CURVE SMOOTH",
"211 420 OFFCURVE",
"141 492 OFFCURVE",
"140 580 CURVE SMOOTH",
"140 800 LINE",
"60 800 LINE",
"60 580 LINE SMOOTH"
);
}
);
width = 600;
}
);
unicode = 0059;
},
{
glyphname = Z;
lastChange = "2022-10-03 19:24:53 +0000";
layers = (
{
layerId = "56B7CB81-CC11-4115-9FB5-EB39306C4A9F";
paths = (
{
closed = 1;
nodes = (
"60 98 OFFCURVE",
"158 0 OFFCURVE",
"280 0 CURVE SMOOTH",
"540 0 LINE",
"540 80 LINE",
"280 80 LINE SMOOTH",
"202 80 OFFCURVE",
"140 142 OFFCURVE",
"140 220 CURVE SMOOTH",
"140 298 OFFCURVE",
"202 360 OFFCURVE",
"280 360 CURVE SMOOTH",
"320 360 LINE SMOOTH",
"442 360 OFFCURVE",
"540 458 OFFCURVE",
"540 580 CURVE SMOOTH",
"540 702 OFFCURVE",
"442 800 OFFCURVE",
"320 800 CURVE SMOOTH",
"60 800 LINE",
"60 720 LINE",
"320 720 LINE SMOOTH",
"398 720 OFFCURVE",
"460 658 OFFCURVE",
"460 580 CURVE SMOOTH",
"460 502 OFFCURVE",
"398 440 OFFCURVE",
"320 440 CURVE SMOOTH",
"280 440 LINE SMOOTH",
"158 440 OFFCURVE",
"60 342 OFFCURVE",
"60 220 CURVE SMOOTH"
);
}
);
width = 600;
},
{
layerId = "0F8A7298-526A-4D73-8A76-82A4C1EFD640";
paths = (
{
closed = 1;
nodes = (
"60 98 OFFCURVE",
"158 0 OFFCURVE",
"280 0 CURVE SMOOTH",
"540 0 LINE",
"540 80 LINE",
"280 80 LINE SMOOTH",
"202 80 OFFCURVE",
"140 142 OFFCURVE",
"140 220 CURVE SMOOTH",
"140 298 OFFCURVE",
"202 360 OFFCURVE",
"280 360 CURVE SMOOTH",
"320 360 LINE SMOOTH",
"442 360 OFFCURVE",
"540 458 OFFCURVE",
"540 580 CURVE SMOOTH",
"540 702 OFFCURVE",
"442 800 OFFCURVE",
"320 800 CURVE SMOOTH",
"60 800 LINE",
"60 720 LINE",
"320 720 LINE SMOOTH",
"398 720 OFFCURVE",
"460 658 OFFCURVE",
"460 580 CURVE SMOOTH",
"460 502 OFFCURVE",
"398 440 OFFCURVE",
"320 440 CURVE SMOOTH",
"280 440 LINE SMOOTH",
"158 440 OFFCURVE",
"60 342 OFFCURVE",
"60 220 CURVE SMOOTH"
);
}
);
width = 600;
}
);
unicode = 005A;
},
{
glyphname = a;
lastChange = "2022-10-03 19:24:53 +0000";
layers = (
{
layerId = "56B7CB81-CC11-4115-9FB5-EB39306C4A9F";
paths = (
{
closed = 1;
nodes = (
"60 87 OFFCURVE",
"167 -20 OFFCURVE",
"300 -20 CURVE SMOOTH",
"385 -20 OFFCURVE",
"435 24 OFFCURVE",
"460 90 CURVE",
"460 0 LINE",
"540 0 LINE",
"540 560 LINE",
"460 560 LINE",
"460 470 LINE",
"435 536 OFFCURVE",
"385 580 OFFCURVE",
"300 580 CURVE SMOOTH",
"167 580 OFFCURVE",
"60 473 OFFCURVE",
"60 340 CURVE SMOOTH",
"60 220 LINE SMOOTH"
);
},
{
closed = 1;
nodes = (
"140 340 LINE SMOOTH",
"140 429 OFFCURVE",
"211 500 OFFCURVE",
"300 500 CURVE SMOOTH",
"389 500 OFFCURVE",
"460 429 OFFCURVE",
"460 340 CURVE SMOOTH",
"460 220 LINE SMOOTH",
"460 131 OFFCURVE",
"389 60 OFFCURVE",
"300 60 CURVE SMOOTH",
"211 60 OFFCURVE",
"140 131 OFFCURVE",
"140 220 CURVE SMOOTH"
);
}
);
width = 600;
},
{
layerId = "0F8A7298-526A-4D73-8A76-82A4C1EFD640";
paths = (
{
closed = 1;
nodes = (
"60 87 OFFCURVE",
"167 -20 OFFCURVE",
"300 -20 CURVE SMOOTH",
"385 -20 OFFCURVE",
"435 24 OFFCURVE",
"460 90 CURVE",
"460 0 LINE",
"540 0 LINE",
"540 560 LINE",
"460 560 LINE",
"460 470 LINE",
"435 536 OFFCURVE",
"385 580 OFFCURVE",
"300 580 CURVE SMOOTH",
"167 580 OFFCURVE",
"60 473 OFFCURVE",
"60 340 CURVE SMOOTH",
"60 220 LINE SMOOTH"
);
},
{
closed = 1;
nodes = (
"140 340 LINE SMOOTH",
"140 429 OFFCURVE",
"211 500 OFFCURVE",
"300 500 CURVE SMOOTH",
"389 500 OFFCURVE",
"460 429 OFFCURVE",
"460 340 CURVE SMOOTH",
"460 220 LINE SMOOTH",
"460 131 OFFCURVE",
"389 60 OFFCURVE",
"300 60 CURVE SMOOTH",
"211 60 OFFCURVE",
"140 131 OFFCURVE",
"140 220 CURVE SMOOTH"
);
}
);
width = 600;
}
);
unicode = 0061;
},
{
glyphname = b;
lastChange = "2022-10-03 19:24:53 +0000";
layers = (
{
layerId = "56B7CB81-CC11-4115-9FB5-EB39306C4A9F";
paths = (
{
closed = 1;
nodes = (
"140 0 LINE",
"140 90 LINE",
"165 24 OFFCURVE",
"215 -20 OFFCURVE",
"300 -20 CURVE SMOOTH",
"433 -20 OFFCURVE",
"540 87 OFFCURVE",
"540 220 CURVE SMOOTH",
"540 340 LINE SMOOTH",
"540 473 OFFCURVE",
"433 580 OFFCURVE",
"300 580 CURVE SMOOTH",
"215 580 OFFCURVE",
"165 536 OFFCURVE",
"140 470 CURVE",
"140 800 LINE",
"60 800 LINE",
"60 0 LINE"
);
},
{
closed = 1;
nodes = (
"140 429 OFFCURVE",
"211 500 OFFCURVE",
"300 500 CURVE SMOOTH",
"389 500 OFFCURVE",
"460 429 OFFCURVE",
"460 340 CURVE SMOOTH",
"460 220 LINE SMOOTH",
"460 131 OFFCURVE",
"389 60 OFFCURVE",
"300 60 CURVE SMOOTH",
"211 60 OFFCURVE",
"140 131 OFFCURVE",
"140 220 CURVE SMOOTH",
"140 340 LINE SMOOTH"
);
}
);
width = 600;
},
{
layerId = "0F8A7298-526A-4D73-8A76-82A4C1EFD640";
paths = (
{
closed = 1;
nodes = (
"140 0 LINE",
"140 90 LINE",
"165 24 OFFCURVE",
"215 -20 OFFCURVE",
"300 -20 CURVE SMOOTH",
"433 -20 OFFCURVE",
"540 87 OFFCURVE",
"540 220 CURVE SMOOTH",
"540 340 LINE SMOOTH",
"540 473 OFFCURVE",
"433 580 OFFCURVE",
"300 580 CURVE SMOOTH",
"215 580 OFFCURVE",
"165 536 OFFCURVE",
"140 470 CURVE",
"140 800 LINE",
"60 800 LINE",
"60 0 LINE"
);
},
{
closed = 1;
nodes = (
"140 429 OFFCURVE",
"211 500 OFFCURVE",
"300 500 CURVE SMOOTH",
"389 500 OFFCURVE",
"460 429 OFFCURVE",
"460 340 CURVE SMOOTH",
"460 220 LINE SMOOTH",
"460 131 OFFCURVE",
"389 60 OFFCURVE",
"300 60 CURVE SMOOTH",
"211 60 OFFCURVE",
"140 131 OFFCURVE",
"140 220 CURVE SMOOTH",
"140 340 LINE SMOOTH"
);
}
);
width = 600;
}
);
unicode = 0062;
},
{
glyphname = c;
lastChange = "2022-10-09 00:38:06 +0000";
layers = (
{
layerId = "56B7CB81-CC11-4115-9FB5-EB39306C4A9F";
paths = (
{
closed = 1;
nodes = (
"40 87 OFFCURVE",
"147 -20 OFFCURVE",
"280 -20 CURVE SMOOTH",
"347 -20 OFFCURVE",
"406 7 OFFCURVE",
"449 51 CURVE",
"393 106 LINE",
"364 77 OFFCURVE",
"324 60 OFFCURVE",
"280 60 CURVE SMOOTH",
"191 60 OFFCURVE",
"120 131 OFFCURVE",
"120 220 CURVE SMOOTH",
"120 340 LINE SMOOTH",
"120 429 OFFCURVE",
"191 500 OFFCURVE",
"280 500 CURVE SMOOTH",
"324 500 OFFCURVE",
"364 483 OFFCURVE",
"393 454 CURVE",
"449 509 LINE",
"406 553 OFFCURVE",
"347 580 OFFCURVE",
"280 580 CURVE SMOOTH",
"147 580 OFFCURVE",
"40 473 OFFCURVE",
"40 340 CURVE SMOOTH",
"40 220 LINE SMOOTH"
);
}
);
width = 469;
},
{
layerId = "0F8A7298-526A-4D73-8A76-82A4C1EFD640";
paths = (
{
closed = 1;
nodes = (
"40 87 OFFCURVE",
"147 -20 OFFCURVE",
"280 -20 CURVE SMOOTH",
"347 -20 OFFCURVE",
"406 7 OFFCURVE",
"449 51 CURVE",
"393 106 LINE",
"364 77 OFFCURVE",
"324 60 OFFCURVE",
"280 60 CURVE SMOOTH",
"191 60 OFFCURVE",
"120 131 OFFCURVE",
"120 220 CURVE SMOOTH",
"120 340 LINE SMOOTH",
"120 429 OFFCURVE",
"191 500 OFFCURVE",
"280 500 CURVE SMOOTH",
"324 500 OFFCURVE",
"364 483 OFFCURVE",
"393 454 CURVE",
"449 509 LINE",
"406 553 OFFCURVE",
"347 580 OFFCURVE",
"280 580 CURVE SMOOTH",
"147 580 OFFCURVE",
"40 473 OFFCURVE",
"40 340 CURVE SMOOTH",
"40 220 LINE SMOOTH"
);
}
);
width = 469;
}
);
unicode = 0063;
},
{
glyphname = d;
lastChange = "2022-10-03 19:24:53 +0000";
layers = (
{
layerId = "56B7CB81-CC11-4115-9FB5-EB39306C4A9F";
paths = (
{
closed = 1;
nodes = (
"540 800 LINE",
"460 800 LINE",
"460 470 LINE",
"435 536 OFFCURVE",
"385 580 OFFCURVE",
"300 580 CURVE SMOOTH",
"167 580 OFFCURVE",
"60 473 OFFCURVE",
"60 340 CURVE SMOOTH",
"60 220 LINE SMOOTH",
"60 87 OFFCURVE",
"167 -20 OFFCURVE",
"300 -20 CURVE SMOOTH",
"385 -20 OFFCURVE",
"435 24 OFFCURVE",
"460 90 CURVE",
"460 0 LINE",
"540 0 LINE"
);
},
{
closed = 1;
nodes = (
"460 220 LINE SMOOTH",
"460 131 OFFCURVE",
"389 60 OFFCURVE",
"300 60 CURVE SMOOTH",
"211 60 OFFCURVE",
"140 131 OFFCURVE",
"140 220 CURVE SMOOTH",
"140 340 LINE SMOOTH",
"140 429 OFFCURVE",
"211 500 OFFCURVE",
"300 500 CURVE SMOOTH",
"389 500 OFFCURVE",
"460 429 OFFCURVE",
"460 340 CURVE SMOOTH"
);
}
);
width = 600;
},
{
layerId = "0F8A7298-526A-4D73-8A76-82A4C1EFD640";
paths = (
{
closed = 1;
nodes = (
"540 800 LINE",
"460 800 LINE",
"460 470 LINE",
"435 536 OFFCURVE",
"385 580 OFFCURVE",
"300 580 CURVE SMOOTH",
"167 580 OFFCURVE",
"60 473 OFFCURVE",
"60 340 CURVE SMOOTH",
"60 220 LINE SMOOTH",
"60 87 OFFCURVE",
"167 -20 OFFCURVE",
"300 -20 CURVE SMOOTH",
"385 -20 OFFCURVE",
"435 24 OFFCURVE",
"460 90 CURVE",
"460 0 LINE",
"540 0 LINE"
);
},
{
closed = 1;
nodes = (
"460 220 LINE SMOOTH",
"460 131 OFFCURVE",
"389 60 OFFCURVE",
"300 60 CURVE SMOOTH",
"211 60 OFFCURVE",
"140 131 OFFCURVE",
"140 220 CURVE SMOOTH",
"140 340 LINE SMOOTH",
"140 429 OFFCURVE",
"211 500 OFFCURVE",
"300 500 CURVE SMOOTH",
"389 500 OFFCURVE",
"460 429 OFFCURVE",
"460 340 CURVE SMOOTH"
);
}
);
width = 600;
}
);
unicode = 0064;
},
{
glyphname = e;
lastChange = "2022-10-09 02:37:43 +0000";
layers = (
{
layerId = "56B7CB81-CC11-4115-9FB5-EB39306C4A9F";
paths = (
{
closed = 1;
nodes = (
"40 107 OFFCURVE",
"147 0 OFFCURVE",
"280 0 CURVE SMOOTH",
"520 0 LINE",
"520 80 LINE",
"280 80 LINE SMOOTH",
"191 80 OFFCURVE",
"120 151 OFFCURVE",
"120 240 CURVE SMOOTH",
"120 260 LINE",
"520 260 LINE",
"520 340 LINE SMOOTH",
"520 473 OFFCURVE",
"413 580 OFFCURVE",
"280 580 CURVE SMOOTH",
"147 580 OFFCURVE",
"40 473 OFFCURVE",
"40 340 CURVE SMOOTH",
"40 240 LINE SMOOTH"
);
},
{
closed = 1;
nodes = (
"120 429 OFFCURVE",
"191 500 OFFCURVE",
"280 500 CURVE SMOOTH",
"369 500 OFFCURVE",
"440 429 OFFCURVE",
"440 340 CURVE",
"120 340 LINE"
);
}
);
width = 560;
},
{
layerId = "0F8A7298-526A-4D73-8A76-82A4C1EFD640";
paths = (
{
closed = 1;
nodes = (
"40 107 OFFCURVE",
"147 0 OFFCURVE",
"280 0 CURVE SMOOTH",
"520 0 LINE",
"520 80 LINE",
"280 80 LINE SMOOTH",
"191 80 OFFCURVE",
"120 151 OFFCURVE",
"120 240 CURVE SMOOTH",
"120 260 LINE",
"520 260 LINE",
"520 340 LINE SMOOTH",
"520 473 OFFCURVE",
"413 580 OFFCURVE",
"280 580 CURVE SMOOTH",
"147 580 OFFCURVE",
"40 473 OFFCURVE",
"40 340 CURVE SMOOTH",
"40 240 LINE SMOOTH"
);
},
{
closed = 1;
nodes = (
"120 429 OFFCURVE",
"191 500 OFFCURVE",
"280 500 CURVE SMOOTH",
"369 500 OFFCURVE",
"440 429 OFFCURVE",
"440 340 CURVE",
"120 340 LINE"
);
}
);
width = 560;
}
);
unicode = 0065;
},
{
glyphname = f;
lastChange = "2022-10-09 00:47:31 +0000";
layers = (
{
layerId = "56B7CB81-CC11-4115-9FB5-EB39306C4A9F";
paths = (
{
closed = 1;
nodes = (
"150 480 LINE",
"150 0 LINE",
"230 0 LINE",
"230 480 LINE",
"390 480 LINE",
"390 560 LINE",
"230 560 LINE",
"230 580 LINE SMOOTH",
"230 669 OFFCURVE",
"301 740 OFFCURVE",
"390 740 CURVE",
"390 820 LINE",
"257 820 OFFCURVE",
"150 713 OFFCURVE",
"150 580 CURVE SMOOTH",
"150 560 LINE",
"30 560 LINE",
"30 480 LINE"
);
}
);
width = 420;
},
{
layerId = "0F8A7298-526A-4D73-8A76-82A4C1EFD640";
paths = (
{
closed = 1;
nodes = (
"150 480 LINE",
"150 0 LINE",
"230 0 LINE",
"230 480 LINE",
"390 480 LINE",
"390 560 LINE",
"230 560 LINE",
"230 580 LINE SMOOTH",
"230 669 OFFCURVE",
"301 740 OFFCURVE",
"390 740 CURVE",
"390 820 LINE",
"257 820 OFFCURVE",
"150 713 OFFCURVE",
"150 580 CURVE SMOOTH",
"150 560 LINE",
"30 560 LINE",
"30 480 LINE"
);
}
);
width = 420;
}
);
unicode = 0066;
},
{
glyphname = g;
lastChange = "2022-10-03 19:24:53 +0000";
layers = (
{
layerId = "56B7CB81-CC11-4115-9FB5-EB39306C4A9F";
paths = (
{
closed = 1;
nodes = (
"60 87 OFFCURVE",
"167 -20 OFFCURVE",
"300 -20 CURVE SMOOTH",
"385 -20 OFFCURVE",
"435 24 OFFCURVE",
"460 90 CURVE",
"460 0 LINE SMOOTH",
"460 -89 OFFCURVE",
"389 -160 OFFCURVE",
"300 -160 CURVE SMOOTH",
"255 -160 OFFCURVE",
"215 -143 OFFCURVE",
"187 -114 CURVE",
"131 -169 LINE",
"174 -213 OFFCURVE",
"234 -240 OFFCURVE",
"300 -240 CURVE SMOOTH",
"433 -240 OFFCURVE",
"540 -133 OFFCURVE",
"540 0 CURVE SMOOTH",
"540 560 LINE",
"460 560 LINE",
"460 470 LINE",
"435 536 OFFCURVE",
"385 580 OFFCURVE",
"300 580 CURVE SMOOTH",
"167 580 OFFCURVE",
"60 473 OFFCURVE",
"60 340 CURVE SMOOTH",
"60 220 LINE SMOOTH"
);
},
{
closed = 1;
nodes = (
"140 340 LINE SMOOTH",
"140 429 OFFCURVE",
"211 500 OFFCURVE",
"300 500 CURVE SMOOTH",
"389 500 OFFCURVE",
"460 429 OFFCURVE",
"460 340 CURVE SMOOTH",
"460 220 LINE SMOOTH",
"460 131 OFFCURVE",
"389 60 OFFCURVE",
"300 60 CURVE SMOOTH",
"211 60 OFFCURVE",
"140 131 OFFCURVE",
"140 220 CURVE SMOOTH"
);
}
);
width = 600;
},
{
layerId = "0F8A7298-526A-4D73-8A76-82A4C1EFD640";
paths = (
{
closed = 1;
nodes = (
"60 87 OFFCURVE",
"167 -20 OFFCURVE",
"300 -20 CURVE SMOOTH",
"385 -20 OFFCURVE",
"435 24 OFFCURVE",
"460 90 CURVE",
"460 0 LINE SMOOTH",
"460 -89 OFFCURVE",
"389 -160 OFFCURVE",
"300 -160 CURVE SMOOTH",
"255 -160 OFFCURVE",
"215 -143 OFFCURVE",
"187 -114 CURVE",
"131 -169 LINE",
"174 -213 OFFCURVE",
"234 -240 OFFCURVE",
"300 -240 CURVE SMOOTH",
"433 -240 OFFCURVE",
"540 -133 OFFCURVE",
"540 0 CURVE SMOOTH",
"540 560 LINE",
"460 560 LINE",
"460 470 LINE",
"435 536 OFFCURVE",
"385 580 OFFCURVE",
"300 580 CURVE SMOOTH",
"167 580 OFFCURVE",
"60 473 OFFCURVE",
"60 340 CURVE SMOOTH",
"60 220 LINE SMOOTH"
);
},
{
closed = 1;
nodes = (
"140 340 LINE SMOOTH",
"140 429 OFFCURVE",
"211 500 OFFCURVE",
"300 500 CURVE SMOOTH",
"389 500 OFFCURVE",
"460 429 OFFCURVE",
"460 340 CURVE SMOOTH",
"460 220 LINE SMOOTH",
"460 131 OFFCURVE",
"389 60 OFFCURVE",
"300 60 CURVE SMOOTH",
"211 60 OFFCURVE",
"140 131 OFFCURVE",
"140 220 CURVE SMOOTH"
);
}
);
width = 600;
}
);
unicode = 0067;
},
{
glyphname = h;
lastChange = "2022-10-03 19:24:53 +0000";
layers = (
{
layerId = "56B7CB81-CC11-4115-9FB5-EB39306C4A9F";
paths = (
{
closed = 1;
nodes = (
"140 0 LINE",
"140 340 LINE SMOOTH",
"140 429 OFFCURVE",
"211 500 OFFCURVE",
"300 500 CURVE SMOOTH",
"389 500 OFFCURVE",
"460 429 OFFCURVE",
"460 340 CURVE SMOOTH",
"460 0 LINE",
"540 0 LINE",
"540 340 LINE SMOOTH",
"540 473 OFFCURVE",
"433 580 OFFCURVE",
"300 580 CURVE SMOOTH",
"215 580 OFFCURVE",
"165 536 OFFCURVE",
"140 470 CURVE",
"140 800 LINE",
"60 800 LINE",
"60 0 LINE"
);
}
);
width = 600;
},
{
layerId = "0F8A7298-526A-4D73-8A76-82A4C1EFD640";
paths = (
{
closed = 1;
nodes = (
"140 0 LINE",
"140 340 LINE SMOOTH",
"140 429 OFFCURVE",
"211 500 OFFCURVE",
"300 500 CURVE SMOOTH",
"389 500 OFFCURVE",
"460 429 OFFCURVE",
"460 340 CURVE SMOOTH",
"460 0 LINE",
"540 0 LINE",
"540 340 LINE SMOOTH",
"540 473 OFFCURVE",
"433 580 OFFCURVE",
"300 580 CURVE SMOOTH",
"215 580 OFFCURVE",
"165 536 OFFCURVE",
"140 470 CURVE",
"140 800 LINE",
"60 800 LINE",
"60 0 LINE"
);
}
);
width = 600;
}
);
unicode = 0068;
},
{
glyphname = i;
lastChange = "2022-10-07 20:37:26 +0000";
layers = (
{
layerId = "56B7CB81-CC11-4115-9FB5-EB39306C4A9F";
paths = (
{
closed = 1;
nodes = (
"90 560 LINE",
"90 0 LINE",
"170 0 LINE",
"170 560 LINE"
);
},
{
closed = 1;
nodes = (
"80 820 LINE",
"80 660 LINE",
"180 660 LINE",
"180 820 LINE"
);
}
);
width = 260;
},
{
layerId = "0F8A7298-526A-4D73-8A76-82A4C1EFD640";
paths = (
{
closed = 1;
nodes = (
"90 560 LINE",
"90 0 LINE",
"170 0 LINE",
"170 560 LINE"
);
},
{
closed = 1;
nodes = (
"80 820 LINE",
"80 660 LINE",
"180 660 LINE",
"180 820 LINE"
);
}
);
width = 260;
}
);
unicode = 0069;
},
{
glyphname = j;
lastChange = "2022-10-09 03:56:29 +0000";
layers = (
{
layerId = "56B7CB81-CC11-4115-9FB5-EB39306C4A9F";
paths = (
{
closed = 1;
nodes = (
"170 820 LINE",
"170 660 LINE",
"270 660 LINE",
"270 820 LINE"
);
},
{
closed = 1;
nodes = (
"153 -240 OFFCURVE",
"260 -133 OFFCURVE",
"260 0 CURVE SMOOTH",
"260 560 LINE",
"180 560 LINE",
"180 0 LINE SMOOTH",
"180 -89 OFFCURVE",
"109 -160 OFFCURVE",
"20 -160 CURVE",
"20 -240 LINE"
);
}
);
width = 330;
},
{
layerId = "0F8A7298-526A-4D73-8A76-82A4C1EFD640";
paths = (
{
closed = 1;
nodes = (
"170 820 LINE",
"170 660 LINE",
"270 660 LINE",
"270 820 LINE"
);
},
{
closed = 1;
nodes = (
"153 -240 OFFCURVE",
"260 -133 OFFCURVE",
"260 0 CURVE SMOOTH",
"260 560 LINE",
"180 560 LINE",
"180 0 LINE SMOOTH",
"180 -89 OFFCURVE",
"109 -160 OFFCURVE",
"20 -160 CURVE",
"20 -240 LINE"
);
}
);
width = 330;
}
);
unicode = 006A;
},
{
glyphname = k;
lastChange = "2022-10-03 19:24:53 +0000";
layers = (
{
layerId = "56B7CB81-CC11-4115-9FB5-EB39306C4A9F";
paths = (
{
closed = 1;
nodes = (
"140 0 LINE",
"140 280 LINE",
"220 280 LINE SMOOTH",
"309 280 OFFCURVE",
"380 209 OFFCURVE",
"380 120 CURVE SMOOTH",
"380 0 LINE",
"460 0 LINE",
"460 120 LINE SMOOTH",
"460 213 OFFCURVE",
"408 293 OFFCURVE",
"331 333 CURVE",
"385 377 OFFCURVE",
"420 444 OFFCURVE",
"420 520 CURVE SMOOTH",
"420 560 LINE",
"340 560 LINE",
"340 520 LINE SMOOTH",
"340 431 OFFCURVE",
"269 360 OFFCURVE",
"180 360 CURVE SMOOTH",
"140 360 LINE",
"140 800 LINE",
"60 800 LINE",
"60 0 LINE"
);
}
);
width = 520;
},
{
layerId = "0F8A7298-526A-4D73-8A76-82A4C1EFD640";
paths = (
{
closed = 1;
nodes = (
"140 0 LINE",
"140 280 LINE",
"220 280 LINE SMOOTH",
"309 280 OFFCURVE",
"380 209 OFFCURVE",
"380 120 CURVE SMOOTH",
"380 0 LINE",
"460 0 LINE",
"460 120 LINE SMOOTH",
"460 213 OFFCURVE",
"408 293 OFFCURVE",
"331 333 CURVE",
"385 377 OFFCURVE",
"420 444 OFFCURVE",
"420 520 CURVE SMOOTH",
"420 560 LINE",
"340 560 LINE",
"340 520 LINE SMOOTH",
"340 431 OFFCURVE",
"269 360 OFFCURVE",
"180 360 CURVE SMOOTH",
"140 360 LINE",
"140 800 LINE",
"60 800 LINE",
"60 0 LINE"
);
}
);
width = 520;
}
);
unicode = 006B;
},
{
glyphname = l;
lastChange = "2022-10-09 03:54:28 +0000";
layers = (
{
layerId = "56B7CB81-CC11-4115-9FB5-EB39306C4A9F";
paths = (
{
closed = 1;
nodes = (
"60 87 OFFCURVE",
"167 -20 OFFCURVE",
"300 -20 CURVE",
"300 60 LINE",
"211 60 OFFCURVE",
"140 131 OFFCURVE",
"140 220 CURVE SMOOTH",
"140 800 LINE",
"60 800 LINE",
"60 220 LINE SMOOTH"
);
}
);
width = 320;
},
{
layerId = "0F8A7298-526A-4D73-8A76-82A4C1EFD640";
paths = (
{
closed = 1;
nodes = (
"60 87 OFFCURVE",
"167 -20 OFFCURVE",
"300 -20 CURVE",
"300 60 LINE",
"211 60 OFFCURVE",
"140 131 OFFCURVE",
"140 220 CURVE SMOOTH",
"140 800 LINE",
"60 800 LINE",
"60 220 LINE SMOOTH"
);
}
);
width = 320;
}
);
unicode = 006C;
},
{
glyphname = m;
lastChange = "2022-10-03 19:24:53 +0000";
layers = (
{
layerId = "56B7CB81-CC11-4115-9FB5-EB39306C4A9F";
paths = (
{
closed = 1;
nodes = (
"140 0 LINE",
"140 420 LINE SMOOTH",
"140 464 OFFCURVE",
"176 500 OFFCURVE",
"220 500 CURVE SMOOTH",
"264 500 OFFCURVE",
"300 464 OFFCURVE",
"300 420 CURVE SMOOTH",
"300 0 LINE",
"380 0 LINE",
"380 420 LINE SMOOTH",
"380 464 OFFCURVE",
"416 500 OFFCURVE",
"460 500 CURVE SMOOTH",
"504 500 OFFCURVE",
"540 464 OFFCURVE",
"540 420 CURVE SMOOTH",
"540 0 LINE",
"620 0 LINE",
"620 420 LINE SMOOTH",
"620 508 OFFCURVE",
"548 580 OFFCURVE",
"460 580 CURVE SMOOTH",
"412 580 OFFCURVE",
"369 559 OFFCURVE",
"340 526 CURVE",
"310 559 OFFCURVE",
"268 580 OFFCURVE",
"220 580 CURVE SMOOTH",
"131 580 OFFCURVE",
"60 508 OFFCURVE",
"60 420 CURVE SMOOTH",
"60 0 LINE"
);
}
);
width = 680;
},
{
layerId = "0F8A7298-526A-4D73-8A76-82A4C1EFD640";
paths = (
{
closed = 1;
nodes = (
"140 0 LINE",
"140 420 LINE SMOOTH",
"140 464 OFFCURVE",
"176 500 OFFCURVE",
"220 500 CURVE SMOOTH",
"264 500 OFFCURVE",
"300 464 OFFCURVE",
"300 420 CURVE SMOOTH",
"300 0 LINE",
"380 0 LINE",
"380 420 LINE SMOOTH",
"380 464 OFFCURVE",
"416 500 OFFCURVE",
"460 500 CURVE SMOOTH",
"504 500 OFFCURVE",
"540 464 OFFCURVE",
"540 420 CURVE SMOOTH",
"540 0 LINE",
"620 0 LINE",
"620 420 LINE SMOOTH",
"620 508 OFFCURVE",
"548 580 OFFCURVE",
"460 580 CURVE SMOOTH",
"412 580 OFFCURVE",
"369 559 OFFCURVE",
"340 526 CURVE",
"310 559 OFFCURVE",
"268 580 OFFCURVE",
"220 580 CURVE SMOOTH",
"131 580 OFFCURVE",
"60 508 OFFCURVE",
"60 420 CURVE SMOOTH",
"60 0 LINE"
);
}
);
width = 680;
}
);
unicode = 006D;
},
{
glyphname = n;
lastChange = "2022-10-03 19:24:53 +0000";
layers = (
{
layerId = "56B7CB81-CC11-4115-9FB5-EB39306C4A9F";
paths = (
{
closed = 1;
nodes = (
"140 0 LINE",
"140 340 LINE SMOOTH",
"140 429 OFFCURVE",
"211 500 OFFCURVE",
"300 500 CURVE SMOOTH",
"389 500 OFFCURVE",
"460 429 OFFCURVE",
"460 340 CURVE SMOOTH",
"460 0 LINE",
"540 0 LINE",
"540 340 LINE SMOOTH",
"540 473 OFFCURVE",
"433 580 OFFCURVE",
"300 580 CURVE SMOOTH",
"215 580 OFFCURVE",
"165 536 OFFCURVE",
"140 470 CURVE",
"140 560 LINE",
"60 560 LINE",
"60 0 LINE"
);
}
);
width = 600;
},
{
layerId = "0F8A7298-526A-4D73-8A76-82A4C1EFD640";
paths = (
{
closed = 1;
nodes = (
"140 0 LINE",
"140 340 LINE SMOOTH",
"140 429 OFFCURVE",
"211 500 OFFCURVE",
"300 500 CURVE SMOOTH",
"389 500 OFFCURVE",
"460 429 OFFCURVE",
"460 340 CURVE SMOOTH",
"460 0 LINE",
"540 0 LINE",
"540 340 LINE SMOOTH",
"540 473 OFFCURVE",
"433 580 OFFCURVE",
"300 580 CURVE SMOOTH",
"215 580 OFFCURVE",
"165 536 OFFCURVE",
"140 470 CURVE",
"140 560 LINE",
"60 560 LINE",
"60 0 LINE"
);
}
);
width = 600;
}
);
unicode = 006E;
},
{
glyphname = o;
lastChange = "2022-10-08 03:08:58 +0000";
layers = (
{
layerId = "56B7CB81-CC11-4115-9FB5-EB39306C4A9F";
paths = (
{
closed = 1;
nodes = (
"60 87 OFFCURVE",
"167 -20 OFFCURVE",
"300 -20 CURVE SMOOTH",
"433 -20 OFFCURVE",
"540 87 OFFCURVE",
"540 220 CURVE SMOOTH",
"540 340 LINE SMOOTH",
"540 473 OFFCURVE",
"433 580 OFFCURVE",
"300 580 CURVE SMOOTH",
"167 580 OFFCURVE",
"60 473 OFFCURVE",
"60 340 CURVE SMOOTH",
"60 220 LINE SMOOTH"
);
},
{
closed = 1;
nodes = (
"140 340 LINE SMOOTH",
"140 429 OFFCURVE",
"211 500 OFFCURVE",
"300 500 CURVE SMOOTH",
"389 500 OFFCURVE",
"460 429 OFFCURVE",
"460 340 CURVE SMOOTH",
"460 220 LINE SMOOTH",
"460 131 OFFCURVE",
"389 60 OFFCURVE",
"300 60 CURVE SMOOTH",
"211 60 OFFCURVE",
"140 131 OFFCURVE",
"140 220 CURVE SMOOTH"
);
}
);
width = 600;
},
{
layerId = "0F8A7298-526A-4D73-8A76-82A4C1EFD640";
paths = (
{
closed = 1;
nodes = (
"60 87 OFFCURVE",
"167 -20 OFFCURVE",
"300 -20 CURVE SMOOTH",
"433 -20 OFFCURVE",
"540 87 OFFCURVE",
"540 220 CURVE SMOOTH",
"540 340 LINE SMOOTH",
"540 473 OFFCURVE",
"433 580 OFFCURVE",
"300 580 CURVE SMOOTH",
"167 580 OFFCURVE",
"60 473 OFFCURVE",
"60 340 CURVE SMOOTH",
"60 220 LINE SMOOTH"
);
},
{
closed = 1;
nodes = (
"140 340 LINE SMOOTH",
"140 429 OFFCURVE",
"211 500 OFFCURVE",
"300 500 CURVE SMOOTH",
"389 500 OFFCURVE",
"460 429 OFFCURVE",
"460 340 CURVE SMOOTH",
"460 220 LINE SMOOTH",
"460 131 OFFCURVE",
"389 60 OFFCURVE",
"300 60 CURVE SMOOTH",
"211 60 OFFCURVE",
"140 131 OFFCURVE",
"140 220 CURVE SMOOTH"
);
}
);
width = 600;
}
);
unicode = 006F;
},
{
glyphname = p;
lastChange = "2022-10-03 19:24:53 +0000";
layers = (
{
layerId = "56B7CB81-CC11-4115-9FB5-EB39306C4A9F";
paths = (
{
closed = 1;
nodes = (
"60 -240 LINE",
"140 -240 LINE",
"140 90 LINE",
"165 24 OFFCURVE",
"215 -20 OFFCURVE",
"300 -20 CURVE SMOOTH",
"433 -20 OFFCURVE",
"540 87 OFFCURVE",
"540 220 CURVE SMOOTH",
"540 340 LINE SMOOTH",
"540 473 OFFCURVE",
"433 580 OFFCURVE",
"300 580 CURVE SMOOTH",
"215 580 OFFCURVE",
"165 536 OFFCURVE",
"140 470 CURVE",
"140 560 LINE",
"60 560 LINE"
);
},
{
closed = 1;
nodes = (
"140 340 LINE SMOOTH",
"140 429 OFFCURVE",
"211 500 OFFCURVE",
"300 500 CURVE SMOOTH",
"389 500 OFFCURVE",
"460 429 OFFCURVE",
"460 340 CURVE SMOOTH",
"460 220 LINE SMOOTH",
"460 131 OFFCURVE",
"389 60 OFFCURVE",
"300 60 CURVE SMOOTH",
"211 60 OFFCURVE",
"140 131 OFFCURVE",
"140 220 CURVE SMOOTH"
);
}
);
width = 600;
},
{
layerId = "0F8A7298-526A-4D73-8A76-82A4C1EFD640";
paths = (
{
closed = 1;
nodes = (
"60 -240 LINE",
"140 -240 LINE",
"140 90 LINE",
"165 24 OFFCURVE",
"215 -20 OFFCURVE",
"300 -20 CURVE SMOOTH",
"433 -20 OFFCURVE",
"540 87 OFFCURVE",
"540 220 CURVE SMOOTH",
"540 340 LINE SMOOTH",
"540 473 OFFCURVE",
"433 580 OFFCURVE",
"300 580 CURVE SMOOTH",
"215 580 OFFCURVE",
"165 536 OFFCURVE",
"140 470 CURVE",
"140 560 LINE",
"60 560 LINE"
);
},
{
closed = 1;
nodes = (
"140 340 LINE SMOOTH",
"140 429 OFFCURVE",
"211 500 OFFCURVE",
"300 500 CURVE SMOOTH",
"389 500 OFFCURVE",
"460 429 OFFCURVE",
"460 340 CURVE SMOOTH",
"460 220 LINE SMOOTH",
"460 131 OFFCURVE",
"389 60 OFFCURVE",
"300 60 CURVE SMOOTH",
"211 60 OFFCURVE",
"140 131 OFFCURVE",
"140 220 CURVE SMOOTH"
);
}
);
width = 600;
}
);
unicode = 0070;
},
{
glyphname = q;
lastChange = "2022-10-03 19:24:53 +0000";
layers = (
{
layerId = "56B7CB81-CC11-4115-9FB5-EB39306C4A9F";
paths = (
{
closed = 1;
nodes = (
"460 560 LINE",
"460 470 LINE",
"435 536 OFFCURVE",
"385 580 OFFCURVE",
"300 580 CURVE SMOOTH",
"167 580 OFFCURVE",
"60 473 OFFCURVE",
"60 340 CURVE SMOOTH",
"60 220 LINE SMOOTH",
"60 87 OFFCURVE",
"167 -20 OFFCURVE",
"300 -20 CURVE SMOOTH",
"385 -20 OFFCURVE",
"435 24 OFFCURVE",
"460 90 CURVE",
"460 -240 LINE",
"540 -240 LINE",
"540 560 LINE"
);
},
{
closed = 1;
nodes = (
"460 131 OFFCURVE",
"389 60 OFFCURVE",
"300 60 CURVE SMOOTH",
"211 60 OFFCURVE",
"140 131 OFFCURVE",
"140 220 CURVE SMOOTH",
"140 340 LINE SMOOTH",
"140 429 OFFCURVE",
"211 500 OFFCURVE",
"300 500 CURVE SMOOTH",
"389 500 OFFCURVE",
"460 429 OFFCURVE",
"460 340 CURVE SMOOTH",
"460 220 LINE SMOOTH"
);
}
);
width = 600;
},
{
layerId = "0F8A7298-526A-4D73-8A76-82A4C1EFD640";
paths = (
{
closed = 1;
nodes = (
"460 560 LINE",
"460 470 LINE",
"435 536 OFFCURVE",
"385 580 OFFCURVE",
"300 580 CURVE SMOOTH",
"167 580 OFFCURVE",
"60 473 OFFCURVE",
"60 340 CURVE SMOOTH",
"60 220 LINE SMOOTH",
"60 87 OFFCURVE",
"167 -20 OFFCURVE",
"300 -20 CURVE SMOOTH",
"385 -20 OFFCURVE",
"435 24 OFFCURVE",
"460 90 CURVE",
"460 -240 LINE",
"540 -240 LINE",
"540 560 LINE"
);
},
{
closed = 1;
nodes = (
"460 131 OFFCURVE",
"389 60 OFFCURVE",
"300 60 CURVE SMOOTH",
"211 60 OFFCURVE",
"140 131 OFFCURVE",
"140 220 CURVE SMOOTH",
"140 340 LINE SMOOTH",
"140 429 OFFCURVE",
"211 500 OFFCURVE",
"300 500 CURVE SMOOTH",
"389 500 OFFCURVE",
"460 429 OFFCURVE",
"460 340 CURVE SMOOTH",
"460 220 LINE SMOOTH"
);
}
);
width = 600;
}
);
unicode = 0071;
},
{
glyphname = r;
lastChange = "2022-10-09 01:00:09 +0000";
layers = (
{
layerId = "56B7CB81-CC11-4115-9FB5-EB39306C4A9F";
paths = (
{
closed = 1;
nodes = (
"160 0 LINE",
"160 340 LINE SMOOTH",
"160 429 OFFCURVE",
"231 500 OFFCURVE",
"320 500 CURVE SMOOTH",
"400 500 LINE",
"400 580 LINE",
"320 580 LINE SMOOTH",
"235 580 OFFCURVE",
"185 536 OFFCURVE",
"160 470 CURVE",
"160 560 LINE",
"80 560 LINE",
"80 0 LINE"
);
}
);
width = 420;
},
{
layerId = "0F8A7298-526A-4D73-8A76-82A4C1EFD640";
paths = (
{
closed = 1;
nodes = (
"160 0 LINE",
"160 340 LINE SMOOTH",
"160 429 OFFCURVE",
"231 500 OFFCURVE",
"320 500 CURVE SMOOTH",
"400 500 LINE",
"400 580 LINE",
"320 580 LINE SMOOTH",
"235 580 OFFCURVE",
"185 536 OFFCURVE",
"160 470 CURVE",
"160 560 LINE",
"80 560 LINE",
"80 0 LINE"
);
}
);
width = 420;
}
);
unicode = 0072;
},
{
glyphname = s;
lastChange = "2022-10-03 19:24:53 +0000";
layers = (
{
layerId = "56B7CB81-CC11-4115-9FB5-EB39306C4A9F";
paths = (
{
closed = 1;
nodes = (
"60 56 OFFCURVE",
"136 -20 OFFCURVE",
"230 -20 CURVE SMOOTH",
"270 -20 LINE SMOOTH",
"364 -20 OFFCURVE",
"440 56 OFFCURVE",
"440 150 CURVE SMOOTH",
"440 244 OFFCURVE",
"364 320 OFFCURVE",
"270 320 CURVE SMOOTH",
"230 320 LINE SMOOTH",
"180 320 OFFCURVE",
"140 360 OFFCURVE",
"140 410 CURVE SMOOTH",
"140 460 OFFCURVE",
"180 500 OFFCURVE",
"230 500 CURVE SMOOTH",
"270 500 LINE SMOOTH",
"320 500 OFFCURVE",
"360 460 OFFCURVE",
"360 410 CURVE",
"440 410 LINE",
"440 504 OFFCURVE",
"364 580 OFFCURVE",
"270 580 CURVE SMOOTH",
"230 580 LINE SMOOTH",
"136 580 OFFCURVE",
"60 504 OFFCURVE",
"60 410 CURVE SMOOTH",
"60 316 OFFCURVE",
"136 240 OFFCURVE",
"230 240 CURVE SMOOTH",
"270 240 LINE SMOOTH",
"320 240 OFFCURVE",
"360 200 OFFCURVE",
"360 150 CURVE SMOOTH",
"360 100 OFFCURVE",
"320 60 OFFCURVE",
"270 60 CURVE SMOOTH",
"230 60 LINE SMOOTH",
"180 60 OFFCURVE",
"140 100 OFFCURVE",
"140 150 CURVE",
"60 150 LINE"
);
}
);
width = 500;
},
{
layerId = "0F8A7298-526A-4D73-8A76-82A4C1EFD640";
paths = (
{
closed = 1;
nodes = (
"60 56 OFFCURVE",
"136 -20 OFFCURVE",
"230 -20 CURVE SMOOTH",
"270 -20 LINE SMOOTH",
"364 -20 OFFCURVE",
"440 56 OFFCURVE",
"440 150 CURVE SMOOTH",
"440 244 OFFCURVE",
"364 320 OFFCURVE",
"270 320 CURVE SMOOTH",
"230 320 LINE SMOOTH",
"180 320 OFFCURVE",
"140 360 OFFCURVE",
"140 410 CURVE SMOOTH",
"140 460 OFFCURVE",
"180 500 OFFCURVE",
"230 500 CURVE SMOOTH",
"270 500 LINE SMOOTH",
"320 500 OFFCURVE",
"360 460 OFFCURVE",
"360 410 CURVE",
"440 410 LINE",
"440 504 OFFCURVE",
"364 580 OFFCURVE",
"270 580 CURVE SMOOTH",
"230 580 LINE SMOOTH",
"136 580 OFFCURVE",
"60 504 OFFCURVE",
"60 410 CURVE SMOOTH",
"60 316 OFFCURVE",
"136 240 OFFCURVE",
"230 240 CURVE SMOOTH",
"270 240 LINE SMOOTH",
"320 240 OFFCURVE",
"360 200 OFFCURVE",
"360 150 CURVE SMOOTH",
"360 100 OFFCURVE",
"320 60 OFFCURVE",
"270 60 CURVE SMOOTH",
"230 60 LINE SMOOTH",
"180 60 OFFCURVE",
"140 100 OFFCURVE",
"140 150 CURVE",
"60 150 LINE"
);
}
);
width = 500;
}
);
unicode = 0073;
},
{
glyphname = t;
lastChange = "2022-10-09 00:41:49 +0000";
layers = (
{
layerId = "56B7CB81-CC11-4115-9FB5-EB39306C4A9F";
paths = (
{
closed = 1;
nodes = (
"140 480 LINE",
"140 220 LINE SMOOTH",
"140 87 OFFCURVE",
"247 -20 OFFCURVE",
"380 -20 CURVE",
"380 60 LINE",
"291 60 OFFCURVE",
"220 131 OFFCURVE",
"220 220 CURVE SMOOTH",
"220 480 LINE",
"380 480 LINE",
"380 560 LINE",
"220 560 LINE",
"220 800 LINE",
"140 800 LINE",
"140 560 LINE",
"20 560 LINE",
"20 480 LINE"
);
}
);
width = 420;
},
{
layerId = "0F8A7298-526A-4D73-8A76-82A4C1EFD640";
paths = (
{
closed = 1;
nodes = (
"140 480 LINE",
"140 220 LINE SMOOTH",
"140 87 OFFCURVE",
"247 -20 OFFCURVE",
"380 -20 CURVE",
"380 60 LINE",
"291 60 OFFCURVE",
"220 131 OFFCURVE",
"220 220 CURVE SMOOTH",
"220 480 LINE",
"380 480 LINE",
"380 560 LINE",
"220 560 LINE",
"220 800 LINE",
"140 800 LINE",
"140 560 LINE",
"20 560 LINE",
"20 480 LINE"
);
}
);
width = 420;
}
);
unicode = 0074;
},
{
glyphname = u;
lastChange = "2022-10-03 19:24:53 +0000";
layers = (
{
layerId = "56B7CB81-CC11-4115-9FB5-EB39306C4A9F";
paths = (
{
closed = 1;
nodes = (
"460 560 LINE",
"460 220 LINE SMOOTH",
"460 131 OFFCURVE",
"389 60 OFFCURVE",
"300 60 CURVE SMOOTH",
"211 60 OFFCURVE",
"140 131 OFFCURVE",
"140 220 CURVE SMOOTH",
"140 560 LINE",
"60 560 LINE",
"60 220 LINE SMOOTH",
"60 87 OFFCURVE",
"167 -20 OFFCURVE",
"300 -20 CURVE SMOOTH",
"385 -20 OFFCURVE",
"435 24 OFFCURVE",
"460 90 CURVE",
"460 0 LINE",
"540 0 LINE",
"540 560 LINE"
);
}
);
width = 600;
},
{
layerId = "0F8A7298-526A-4D73-8A76-82A4C1EFD640";
paths = (
{
closed = 1;
nodes = (
"460 560 LINE",
"460 220 LINE SMOOTH",
"460 131 OFFCURVE",
"389 60 OFFCURVE",
"300 60 CURVE SMOOTH",
"211 60 OFFCURVE",
"140 131 OFFCURVE",
"140 220 CURVE SMOOTH",
"140 560 LINE",
"60 560 LINE",
"60 220 LINE SMOOTH",
"60 87 OFFCURVE",
"167 -20 OFFCURVE",
"300 -20 CURVE SMOOTH",
"385 -20 OFFCURVE",
"435 24 OFFCURVE",
"460 90 CURVE",
"460 0 LINE",
"540 0 LINE",
"540 560 LINE"
);
}
);
width = 600;
}
);
unicode = 0075;
},
{
glyphname = v;
lastChange = "2022-10-03 19:24:53 +0000";
layers = (
{
layerId = "56B7CB81-CC11-4115-9FB5-EB39306C4A9F";
paths = (
{
closed = 1;
nodes = (
"80 52 OFFCURVE",
"151 -20 OFFCURVE",
"240 -20 CURVE SMOOTH",
"328 -20 OFFCURVE",
"400 52 OFFCURVE",
"400 140 CURVE SMOOTH",
"400 560 LINE",
"320 560 LINE",
"320 140 LINE",
"323 96 OFFCURVE",
"284 60 OFFCURVE",
"240 60 CURVE SMOOTH",
"196 60 OFFCURVE",
"160 96 OFFCURVE",
"160 140 CURVE SMOOTH",
"160 560 LINE",
"80 560 LINE",
"80 140 LINE SMOOTH"
);
}
);
width = 480;
},
{
layerId = "0F8A7298-526A-4D73-8A76-82A4C1EFD640";
paths = (
{
closed = 1;
nodes = (
"80 52 OFFCURVE",
"151 -20 OFFCURVE",
"240 -20 CURVE SMOOTH",
"328 -20 OFFCURVE",
"400 52 OFFCURVE",
"400 140 CURVE SMOOTH",
"400 560 LINE",
"320 560 LINE",
"320 140 LINE",
"323 96 OFFCURVE",
"284 60 OFFCURVE",
"240 60 CURVE SMOOTH",
"196 60 OFFCURVE",
"160 96 OFFCURVE",
"160 140 CURVE SMOOTH",
"160 560 LINE",
"80 560 LINE",
"80 140 LINE SMOOTH"
);
}
);
width = 480;
}
);
unicode = 0076;
},
{
glyphname = w;
lastChange = "2022-10-03 19:24:53 +0000";
layers = (
{
layerId = "56B7CB81-CC11-4115-9FB5-EB39306C4A9F";
paths = (
{
closed = 1;
nodes = (
"60 52 OFFCURVE",
"131 -20 OFFCURVE",
"220 -20 CURVE SMOOTH",
"268 -20 OFFCURVE",
"310 1 OFFCURVE",
"340 34 CURVE",
"369 1 OFFCURVE",
"412 -20 OFFCURVE",
"460 -20 CURVE SMOOTH",
"548 -20 OFFCURVE",
"620 52 OFFCURVE",
"620 140 CURVE SMOOTH",
"620 560 LINE",
"540 560 LINE",
"540 140 LINE SMOOTH",
"540 96 OFFCURVE",
"504 60 OFFCURVE",
"460 60 CURVE SMOOTH",
"416 60 OFFCURVE",
"380 96 OFFCURVE",
"380 140 CURVE SMOOTH",
"380 560 LINE",
"300 560 LINE",
"300 140 LINE SMOOTH",
"300 96 OFFCURVE",
"264 60 OFFCURVE",
"220 60 CURVE SMOOTH",
"176 60 OFFCURVE",
"140 96 OFFCURVE",
"140 140 CURVE SMOOTH",
"140 560 LINE",
"60 560 LINE",
"60 140 LINE SMOOTH"
);
}
);
width = 680;
},
{
layerId = "0F8A7298-526A-4D73-8A76-82A4C1EFD640";
paths = (
{
closed = 1;
nodes = (
"60 52 OFFCURVE",
"131 -20 OFFCURVE",
"220 -20 CURVE SMOOTH",
"268 -20 OFFCURVE",
"310 1 OFFCURVE",
"340 34 CURVE",
"369 1 OFFCURVE",
"412 -20 OFFCURVE",
"460 -20 CURVE SMOOTH",
"548 -20 OFFCURVE",
"620 52 OFFCURVE",
"620 140 CURVE SMOOTH",
"620 560 LINE",
"540 560 LINE",
"540 140 LINE SMOOTH",
"540 96 OFFCURVE",
"504 60 OFFCURVE",
"460 60 CURVE SMOOTH",
"416 60 OFFCURVE",
"380 96 OFFCURVE",
"380 140 CURVE SMOOTH",
"380 560 LINE",
"300 560 LINE",
"300 140 LINE SMOOTH",
"300 96 OFFCURVE",
"264 60 OFFCURVE",
"220 60 CURVE SMOOTH",
"176 60 OFFCURVE",
"140 96 OFFCURVE",
"140 140 CURVE SMOOTH",
"140 560 LINE",
"60 560 LINE",
"60 140 LINE SMOOTH"
);
}
);
width = 680;
}
);
unicode = 0077;
},
{
glyphname = x;
lastChange = "2022-10-03 19:24:53 +0000";
layers = (
{
layerId = "56B7CB81-CC11-4115-9FB5-EB39306C4A9F";
paths = (
{
closed = 1;
nodes = (
"140 0 LINE",
"140 160 LINE SMOOTH",
"140 204 OFFCURVE",
"176 240 OFFCURVE",
"220 240 CURVE SMOOTH",
"264 240 OFFCURVE",
"300 199 OFFCURVE",
"300 160 CURVE SMOOTH",
"300 0 LINE",
"380 0 LINE",
"380 160 LINE SMOOTH",
"380 208 OFFCURVE",
"359 251 OFFCURVE",
"326 280 CURVE",
"359 309 OFFCURVE",
"380 352 OFFCURVE",
"380 400 CURVE SMOOTH",
"380 560 LINE",
"300 560 LINE",
"300 400 LINE SMOOTH",
"300 361 OFFCURVE",
"264 320 OFFCURVE",
"220 320 CURVE SMOOTH",
"176 320 OFFCURVE",
"140 356 OFFCURVE",
"140 400 CURVE SMOOTH",
"140 560 LINE",
"60 560 LINE",
"60 400 LINE SMOOTH",
"60 352 OFFCURVE",
"81 309 OFFCURVE",
"114 280 CURVE",
"81 251 OFFCURVE",
"60 208 OFFCURVE",
"60 160 CURVE SMOOTH",
"60 0 LINE"
);
}
);
width = 440;
},
{
layerId = "0F8A7298-526A-4D73-8A76-82A4C1EFD640";
paths = (
{
closed = 1;
nodes = (
"140 0 LINE",
"140 160 LINE SMOOTH",
"140 204 OFFCURVE",
"176 240 OFFCURVE",
"220 240 CURVE SMOOTH",
"264 240 OFFCURVE",
"300 199 OFFCURVE",
"300 160 CURVE SMOOTH",
"300 0 LINE",
"380 0 LINE",
"380 160 LINE SMOOTH",
"380 208 OFFCURVE",
"359 251 OFFCURVE",
"326 280 CURVE",
"359 309 OFFCURVE",
"380 352 OFFCURVE",
"380 400 CURVE SMOOTH",
"380 560 LINE",
"300 560 LINE",
"300 400 LINE SMOOTH",
"300 361 OFFCURVE",
"264 320 OFFCURVE",
"220 320 CURVE SMOOTH",
"176 320 OFFCURVE",
"140 356 OFFCURVE",
"140 400 CURVE SMOOTH",
"140 560 LINE",
"60 560 LINE",
"60 400 LINE SMOOTH",
"60 352 OFFCURVE",
"81 309 OFFCURVE",
"114 280 CURVE",
"81 251 OFFCURVE",
"60 208 OFFCURVE",
"60 160 CURVE SMOOTH",
"60 0 LINE"
);
}
);
width = 440;
}
);
unicode = 0078;
},
{
glyphname = y;
lastChange = "2022-10-03 19:24:53 +0000";
layers = (
{
layerId = "56B7CB81-CC11-4115-9FB5-EB39306C4A9F";
paths = (
{
closed = 1;
nodes = (
"60 87 OFFCURVE",
"167 -20 OFFCURVE",
"300 -20 CURVE SMOOTH",
"385 -20 OFFCURVE",
"435 24 OFFCURVE",
"460 90 CURVE",
"460 0 LINE SMOOTH",
"460 -89 OFFCURVE",
"389 -160 OFFCURVE",
"300 -160 CURVE SMOOTH",
"255 -160 OFFCURVE",
"215 -143 OFFCURVE",
"187 -114 CURVE",
"131 -169 LINE",
"174 -213 OFFCURVE",
"234 -240 OFFCURVE",
"300 -240 CURVE SMOOTH",
"433 -240 OFFCURVE",
"540 -133 OFFCURVE",
"540 0 CURVE SMOOTH",
"540 560 LINE",
"460 560 LINE",
"460 220 LINE SMOOTH",
"460 131 OFFCURVE",
"389 60 OFFCURVE",
"300 60 CURVE SMOOTH",
"211 60 OFFCURVE",
"140 131 OFFCURVE",
"140 220 CURVE SMOOTH",
"140 560 LINE",
"60 560 LINE",
"60 220 LINE SMOOTH"
);
}
);
width = 600;
},
{
layerId = "0F8A7298-526A-4D73-8A76-82A4C1EFD640";
paths = (
{
closed = 1;
nodes = (
"60 87 OFFCURVE",
"167 -20 OFFCURVE",
"300 -20 CURVE SMOOTH",
"385 -20 OFFCURVE",
"435 24 OFFCURVE",
"460 90 CURVE",
"460 0 LINE SMOOTH",
"460 -89 OFFCURVE",
"389 -160 OFFCURVE",
"300 -160 CURVE SMOOTH",
"255 -160 OFFCURVE",
"215 -143 OFFCURVE",
"187 -114 CURVE",
"131 -169 LINE",
"174 -213 OFFCURVE",
"234 -240 OFFCURVE",
"300 -240 CURVE SMOOTH",
"433 -240 OFFCURVE",
"540 -133 OFFCURVE",
"540 0 CURVE SMOOTH",
"540 560 LINE",
"460 560 LINE",
"460 220 LINE SMOOTH",
"460 131 OFFCURVE",
"389 60 OFFCURVE",
"300 60 CURVE SMOOTH",
"211 60 OFFCURVE",
"140 131 OFFCURVE",
"140 220 CURVE SMOOTH",
"140 560 LINE",
"60 560 LINE",
"60 220 LINE SMOOTH"
);
}
);
width = 600;
}
);
unicode = 0079;
},
{
glyphname = z;
lastChange = "2022-10-03 19:24:53 +0000";
layers = (
{
layerId = "56B7CB81-CC11-4115-9FB5-EB39306C4A9F";
paths = (
{
closed = 1;
nodes = (
"60 71 OFFCURVE",
"132 0 OFFCURVE",
"220 0 CURVE SMOOTH",
"540 0 LINE",
"540 80 LINE",
"220 80 LINE SMOOTH",
"176 80 OFFCURVE",
"140 116 OFFCURVE",
"140 160 CURVE SMOOTH",
"140 204 OFFCURVE",
"176 240 OFFCURVE",
"220 240 CURVE SMOOTH",
"380 240 LINE SMOOTH",
"468 240 OFFCURVE",
"540 312 OFFCURVE",
"540 400 CURVE SMOOTH",
"540 489 OFFCURVE",
"468 560 OFFCURVE",
"380 560 CURVE SMOOTH",
"60 560 LINE",
"60 480 LINE",
"380 480 LINE SMOOTH",
"424 480 OFFCURVE",
"460 444 OFFCURVE",
"460 400 CURVE SMOOTH",
"460 356 OFFCURVE",
"424 320 OFFCURVE",
"380 320 CURVE SMOOTH",
"220 320 LINE SMOOTH",
"132 320 OFFCURVE",
"60 248 OFFCURVE",
"60 160 CURVE SMOOTH"
);
}
);
width = 600;
},
{
layerId = "0F8A7298-526A-4D73-8A76-82A4C1EFD640";
paths = (
{
closed = 1;
nodes = (
"60 71 OFFCURVE",
"132 0 OFFCURVE",
"220 0 CURVE SMOOTH",
"540 0 LINE",
"540 80 LINE",
"220 80 LINE SMOOTH",
"176 80 OFFCURVE",
"140 116 OFFCURVE",
"140 160 CURVE SMOOTH",
"140 204 OFFCURVE",
"176 240 OFFCURVE",
"220 240 CURVE SMOOTH",
"380 240 LINE SMOOTH",
"468 240 OFFCURVE",
"540 312 OFFCURVE",
"540 400 CURVE SMOOTH",
"540 489 OFFCURVE",
"468 560 OFFCURVE",
"380 560 CURVE SMOOTH",
"60 560 LINE",
"60 480 LINE",
"380 480 LINE SMOOTH",
"424 480 OFFCURVE",
"460 444 OFFCURVE",
"460 400 CURVE SMOOTH",
"460 356 OFFCURVE",
"424 320 OFFCURVE",
"380 320 CURVE SMOOTH",
"220 320 LINE SMOOTH",
"132 320 OFFCURVE",
"60 248 OFFCURVE",
"60 160 CURVE SMOOTH"
);
}
);
width = 600;
}
);
unicode = 007A;
},
{
glyphname = a.ss01;
lastChange = "2022-10-03 19:24:53 +0000";
layers = (
{
layerId = "56B7CB81-CC11-4115-9FB5-EB39306C4A9F";
paths = (
{
closed = 1;
nodes = (
"60 87 OFFCURVE",
"167 -20 OFFCURVE",
"300 -20 CURVE SMOOTH",
"362 -20 OFFCURVE",
"418 3 OFFCURVE",
"460 41 CURVE",
"460 0 LINE",
"540 0 LINE",
"540 560 LINE",
"460 560 LINE",
"460 519 LINE",
"418 557 OFFCURVE",
"362 580 OFFCURVE",
"300 580 CURVE SMOOTH",
"167 580 OFFCURVE",
"60 473 OFFCURVE",
"60 340 CURVE SMOOTH",
"60 220 LINE SMOOTH"
);
},
{
closed = 1;
nodes = (
"140 340 LINE SMOOTH",
"140 429 OFFCURVE",
"211 500 OFFCURVE",
"300 500 CURVE SMOOTH",
"389 500 OFFCURVE",
"460 429 OFFCURVE",
"460 340 CURVE SMOOTH",
"460 220 LINE SMOOTH",
"460 131 OFFCURVE",
"389 60 OFFCURVE",
"300 60 CURVE SMOOTH",
"211 60 OFFCURVE",
"140 131 OFFCURVE",
"140 220 CURVE SMOOTH"
);
}
);
width = 600;
},
{
layerId = "0F8A7298-526A-4D73-8A76-82A4C1EFD640";
paths = (
{
closed = 1;
nodes = (
"60 87 OFFCURVE",
"167 -20 OFFCURVE",
"300 -20 CURVE SMOOTH",
"362 -20 OFFCURVE",
"418 3 OFFCURVE",
"460 41 CURVE",
"460 0 LINE",
"540 0 LINE",
"540 560 LINE",
"460 560 LINE",
"460 519 LINE",
"418 557 OFFCURVE",
"362 580 OFFCURVE",
"300 580 CURVE SMOOTH",
"167 580 OFFCURVE",
"60 473 OFFCURVE",
"60 340 CURVE SMOOTH",
"60 220 LINE SMOOTH"
);
},
{
closed = 1;
nodes = (
"140 340 LINE SMOOTH",
"140 429 OFFCURVE",
"211 500 OFFCURVE",
"300 500 CURVE SMOOTH",
"389 500 OFFCURVE",
"460 429 OFFCURVE",
"460 340 CURVE SMOOTH",
"460 220 LINE SMOOTH",
"460 131 OFFCURVE",
"389 60 OFFCURVE",
"300 60 CURVE SMOOTH",
"211 60 OFFCURVE",
"140 131 OFFCURVE",
"140 220 CURVE SMOOTH"
);
}
);
width = 600;
}
);
},
{
glyphname = b.ss01;
lastChange = "2022-10-03 19:24:53 +0000";
layers = (
{
layerId = "56B7CB81-CC11-4115-9FB5-EB39306C4A9F";
paths = (
{
closed = 1;
nodes = (
"140 0 LINE",
"140 41 LINE",
"182 3 OFFCURVE",
"238 -20 OFFCURVE",
"300 -20 CURVE SMOOTH",
"433 -20 OFFCURVE",
"540 87 OFFCURVE",
"540 220 CURVE SMOOTH",
"540 340 LINE SMOOTH",
"540 473 OFFCURVE",
"433 580 OFFCURVE",
"300 580 CURVE SMOOTH",
"238 580 OFFCURVE",
"182 557 OFFCURVE",
"140 519 CURVE",
"140 800 LINE",
"60 800 LINE",
"60 0 LINE"
);
},
{
closed = 1;
nodes = (
"140 340 LINE SMOOTH",
"140 429 OFFCURVE",
"211 500 OFFCURVE",
"300 500 CURVE SMOOTH",
"389 500 OFFCURVE",
"460 429 OFFCURVE",
"460 340 CURVE SMOOTH",
"460 220 LINE SMOOTH",
"460 131 OFFCURVE",
"389 60 OFFCURVE",
"300 60 CURVE SMOOTH",
"211 60 OFFCURVE",
"140 131 OFFCURVE",
"140 220 CURVE SMOOTH"
);
}
);
width = 600;
},
{
layerId = "0F8A7298-526A-4D73-8A76-82A4C1EFD640";
paths = (
{
closed = 1;
nodes = (
"140 0 LINE",
"140 41 LINE",
"182 3 OFFCURVE",
"238 -20 OFFCURVE",
"300 -20 CURVE SMOOTH",
"433 -20 OFFCURVE",
"540 87 OFFCURVE",
"540 220 CURVE SMOOTH",
"540 340 LINE SMOOTH",
"540 473 OFFCURVE",
"433 580 OFFCURVE",
"300 580 CURVE SMOOTH",
"238 580 OFFCURVE",
"182 557 OFFCURVE",
"140 519 CURVE",
"140 800 LINE",
"60 800 LINE",
"60 0 LINE"
);
},
{
closed = 1;
nodes = (
"140 340 LINE SMOOTH",
"140 429 OFFCURVE",
"211 500 OFFCURVE",
"300 500 CURVE SMOOTH",
"389 500 OFFCURVE",
"460 429 OFFCURVE",
"460 340 CURVE SMOOTH",
"460 220 LINE SMOOTH",
"460 131 OFFCURVE",
"389 60 OFFCURVE",
"300 60 CURVE SMOOTH",
"211 60 OFFCURVE",
"140 131 OFFCURVE",
"140 220 CURVE SMOOTH"
);
}
);
width = 600;
}
);
},
{
glyphname = d.ss01;
lastChange = "2022-10-03 19:24:53 +0000";
layers = (
{
layerId = "56B7CB81-CC11-4115-9FB5-EB39306C4A9F";
paths = (
{
closed = 1;
nodes = (
"60 87 OFFCURVE",
"167 -20 OFFCURVE",
"300 -20 CURVE SMOOTH",
"362 -20 OFFCURVE",
"418 3 OFFCURVE",
"460 41 CURVE",
"460 0 LINE",
"540 0 LINE",
"540 800 LINE",
"460 800 LINE",
"460 519 LINE",
"418 557 OFFCURVE",
"362 580 OFFCURVE",
"300 580 CURVE SMOOTH",
"167 580 OFFCURVE",
"60 473 OFFCURVE",
"60 340 CURVE SMOOTH",
"60 220 LINE SMOOTH"
);
},
{
closed = 1;
nodes = (
"140 340 LINE SMOOTH",
"140 429 OFFCURVE",
"211 500 OFFCURVE",
"300 500 CURVE SMOOTH",
"389 500 OFFCURVE",
"460 429 OFFCURVE",
"460 340 CURVE SMOOTH",
"460 220 LINE SMOOTH",
"460 131 OFFCURVE",
"389 60 OFFCURVE",
"300 60 CURVE SMOOTH",
"211 60 OFFCURVE",
"140 131 OFFCURVE",
"140 220 CURVE SMOOTH"
);
}
);
width = 600;
},
{
layerId = "0F8A7298-526A-4D73-8A76-82A4C1EFD640";
paths = (
{
closed = 1;
nodes = (
"60 87 OFFCURVE",
"167 -20 OFFCURVE",
"300 -20 CURVE SMOOTH",
"362 -20 OFFCURVE",
"418 3 OFFCURVE",
"460 41 CURVE",
"460 0 LINE",
"540 0 LINE",
"540 800 LINE",
"460 800 LINE",
"460 519 LINE",
"418 557 OFFCURVE",
"362 580 OFFCURVE",
"300 580 CURVE SMOOTH",
"167 580 OFFCURVE",
"60 473 OFFCURVE",
"60 340 CURVE SMOOTH",
"60 220 LINE SMOOTH"
);
},
{
closed = 1;
nodes = (
"140 340 LINE SMOOTH",
"140 429 OFFCURVE",
"211 500 OFFCURVE",
"300 500 CURVE SMOOTH",
"389 500 OFFCURVE",
"460 429 OFFCURVE",
"460 340 CURVE SMOOTH",
"460 220 LINE SMOOTH",
"460 131 OFFCURVE",
"389 60 OFFCURVE",
"300 60 CURVE SMOOTH",
"211 60 OFFCURVE",
"140 131 OFFCURVE",
"140 220 CURVE SMOOTH"
);
}
);
width = 600;
}
);
},
{
glyphname = e.ss01;
lastChange = "2022-10-09 02:38:28 +0000";
layers = (
{
layerId = "56B7CB81-CC11-4115-9FB5-EB39306C4A9F";
paths = (
{
closed = 1;
nodes = (
"40 87 OFFCURVE",
"147 -20 OFFCURVE",
"280 -20 CURVE SMOOTH",
"347 -20 OFFCURVE",
"406 7 OFFCURVE",
"449 51 CURVE",
"393 106 LINE",
"364 77 OFFCURVE",
"324 60 OFFCURVE",
"280 60 CURVE SMOOTH",
"191 60 OFFCURVE",
"120 131 OFFCURVE",
"120 220 CURVE SMOOTH",
"120 260 LINE",
"520 260 LINE",
"520 340 LINE SMOOTH",
"520 473 OFFCURVE",
"413 580 OFFCURVE",
"280 580 CURVE SMOOTH",
"147 580 OFFCURVE",
"40 473 OFFCURVE",
"40 340 CURVE SMOOTH",
"40 220 LINE SMOOTH"
);
},
{
closed = 1;
nodes = (
"120 429 OFFCURVE",
"191 500 OFFCURVE",
"280 500 CURVE SMOOTH",
"369 500 OFFCURVE",
"440 429 OFFCURVE",
"440 340 CURVE",
"120 340 LINE"
);
}
);
width = 560;
},
{
layerId = "0F8A7298-526A-4D73-8A76-82A4C1EFD640";
paths = (
{
closed = 1;
nodes = (
"40 87 OFFCURVE",
"147 -20 OFFCURVE",
"280 -20 CURVE SMOOTH",
"347 -20 OFFCURVE",
"406 7 OFFCURVE",
"449 51 CURVE",
"393 106 LINE",
"364 77 OFFCURVE",
"324 60 OFFCURVE",
"280 60 CURVE SMOOTH",
"191 60 OFFCURVE",
"120 131 OFFCURVE",
"120 220 CURVE SMOOTH",
"120 260 LINE",
"520 260 LINE",
"520 340 LINE SMOOTH",
"520 473 OFFCURVE",
"413 580 OFFCURVE",
"280 580 CURVE SMOOTH",
"147 580 OFFCURVE",
"40 473 OFFCURVE",
"40 340 CURVE SMOOTH",
"40 220 LINE SMOOTH"
);
},
{
closed = 1;
nodes = (
"120 429 OFFCURVE",
"191 500 OFFCURVE",
"280 500 CURVE SMOOTH",
"369 500 OFFCURVE",
"440 429 OFFCURVE",
"440 340 CURVE",
"120 340 LINE"
);
}
);
width = 560;
}
);
},
{
glyphname = g.ss01;
lastChange = "2022-10-03 19:24:53 +0000";
layers = (
{
layerId = "56B7CB81-CC11-4115-9FB5-EB39306C4A9F";
paths = (
{
closed = 1;
nodes = (
"60 87 OFFCURVE",
"167 -20 OFFCURVE",
"300 -20 CURVE SMOOTH",
"362 -20 OFFCURVE",
"418 3 OFFCURVE",
"460 41 CURVE",
"460 0 LINE SMOOTH",
"460 -89 OFFCURVE",
"389 -160 OFFCURVE",
"300 -160 CURVE SMOOTH",
"255 -160 OFFCURVE",
"215 -143 OFFCURVE",
"187 -114 CURVE",
"131 -169 LINE",
"174 -213 OFFCURVE",
"234 -240 OFFCURVE",
"300 -240 CURVE SMOOTH",
"433 -240 OFFCURVE",
"540 -133 OFFCURVE",
"540 0 CURVE SMOOTH",
"540 560 LINE",
"460 560 LINE",
"460 519 LINE",
"418 557 OFFCURVE",
"362 580 OFFCURVE",
"300 580 CURVE SMOOTH",
"167 580 OFFCURVE",
"60 473 OFFCURVE",
"60 340 CURVE SMOOTH",
"60 220 LINE SMOOTH"
);
},
{
closed = 1;
nodes = (
"140 340 LINE SMOOTH",
"140 429 OFFCURVE",
"211 500 OFFCURVE",
"300 500 CURVE SMOOTH",
"389 500 OFFCURVE",
"460 429 OFFCURVE",
"460 340 CURVE SMOOTH",
"460 220 LINE SMOOTH",
"460 131 OFFCURVE",
"389 60 OFFCURVE",
"300 60 CURVE SMOOTH",
"211 60 OFFCURVE",
"140 131 OFFCURVE",
"140 220 CURVE SMOOTH"
);
}
);
width = 600;
},
{
layerId = "0F8A7298-526A-4D73-8A76-82A4C1EFD640";
paths = (
{
closed = 1;
nodes = (
"60 87 OFFCURVE",
"167 -20 OFFCURVE",
"300 -20 CURVE SMOOTH",
"362 -20 OFFCURVE",
"418 3 OFFCURVE",
"460 41 CURVE",
"460 0 LINE SMOOTH",
"460 -89 OFFCURVE",
"389 -160 OFFCURVE",
"300 -160 CURVE SMOOTH",
"255 -160 OFFCURVE",
"215 -143 OFFCURVE",
"187 -114 CURVE",
"131 -169 LINE",
"174 -213 OFFCURVE",
"234 -240 OFFCURVE",
"300 -240 CURVE SMOOTH",
"433 -240 OFFCURVE",
"540 -133 OFFCURVE",
"540 0 CURVE SMOOTH",
"540 560 LINE",
"460 560 LINE",
"460 519 LINE",
"418 557 OFFCURVE",
"362 580 OFFCURVE",
"300 580 CURVE SMOOTH",
"167 580 OFFCURVE",
"60 473 OFFCURVE",
"60 340 CURVE SMOOTH",
"60 220 LINE SMOOTH"
);
},
{
closed = 1;
nodes = (
"140 340 LINE SMOOTH",
"140 429 OFFCURVE",
"211 500 OFFCURVE",
"300 500 CURVE SMOOTH",
"389 500 OFFCURVE",
"460 429 OFFCURVE",
"460 340 CURVE SMOOTH",
"460 220 LINE SMOOTH",
"460 131 OFFCURVE",
"389 60 OFFCURVE",
"300 60 CURVE SMOOTH",
"211 60 OFFCURVE",
"140 131 OFFCURVE",
"140 220 CURVE SMOOTH"
);
}
);
width = 600;
}
);
},
{
glyphname = h.ss01;
lastChange = "2022-10-03 19:24:53 +0000";
layers = (
{
layerId = "56B7CB81-CC11-4115-9FB5-EB39306C4A9F";
paths = (
{
closed = 1;
nodes = (
"140 0 LINE",
"140 340 LINE SMOOTH",
"140 429 OFFCURVE",
"211 500 OFFCURVE",
"300 500 CURVE SMOOTH",
"389 500 OFFCURVE",
"460 429 OFFCURVE",
"460 340 CURVE SMOOTH",
"460 0 LINE",
"540 0 LINE",
"540 340 LINE SMOOTH",
"540 473 OFFCURVE",
"433 580 OFFCURVE",
"300 580 CURVE SMOOTH",
"238 580 OFFCURVE",
"182 557 OFFCURVE",
"140 519 CURVE",
"140 800 LINE",
"60 800 LINE",
"60 0 LINE"
);
}
);
width = 600;
},
{
layerId = "0F8A7298-526A-4D73-8A76-82A4C1EFD640";
paths = (
{
closed = 1;
nodes = (
"140 0 LINE",
"140 340 LINE SMOOTH",
"140 429 OFFCURVE",
"211 500 OFFCURVE",
"300 500 CURVE SMOOTH",
"389 500 OFFCURVE",
"460 429 OFFCURVE",
"460 340 CURVE SMOOTH",
"460 0 LINE",
"540 0 LINE",
"540 340 LINE SMOOTH",
"540 473 OFFCURVE",
"433 580 OFFCURVE",
"300 580 CURVE SMOOTH",
"238 580 OFFCURVE",
"182 557 OFFCURVE",
"140 519 CURVE",
"140 800 LINE",
"60 800 LINE",
"60 0 LINE"
);
}
);
width = 600;
}
);
},
{
glyphname = n.ss01;
lastChange = "2022-10-03 19:24:53 +0000";
layers = (
{
layerId = "56B7CB81-CC11-4115-9FB5-EB39306C4A9F";
paths = (
{
closed = 1;
nodes = (
"140 0 LINE",
"140 340 LINE SMOOTH",
"140 429 OFFCURVE",
"211 500 OFFCURVE",
"300 500 CURVE SMOOTH",
"389 500 OFFCURVE",
"460 429 OFFCURVE",
"460 340 CURVE SMOOTH",
"460 0 LINE",
"540 0 LINE",
"540 340 LINE SMOOTH",
"540 473 OFFCURVE",
"433 580 OFFCURVE",
"300 580 CURVE SMOOTH",
"238 580 OFFCURVE",
"182 557 OFFCURVE",
"140 519 CURVE",
"140 560 LINE",
"60 560 LINE",
"60 0 LINE"
);
}
);
width = 600;
},
{
layerId = "0F8A7298-526A-4D73-8A76-82A4C1EFD640";
paths = (
{
closed = 1;
nodes = (
"140 0 LINE",
"140 340 LINE SMOOTH",
"140 429 OFFCURVE",
"211 500 OFFCURVE",
"300 500 CURVE SMOOTH",
"389 500 OFFCURVE",
"460 429 OFFCURVE",
"460 340 CURVE SMOOTH",
"460 0 LINE",
"540 0 LINE",
"540 340 LINE SMOOTH",
"540 473 OFFCURVE",
"433 580 OFFCURVE",
"300 580 CURVE SMOOTH",
"238 580 OFFCURVE",
"182 557 OFFCURVE",
"140 519 CURVE",
"140 560 LINE",
"60 560 LINE",
"60 0 LINE"
);
}
);
width = 600;
}
);
},
{
glyphname = p.ss01;
lastChange = "2022-10-03 19:24:53 +0000";
layers = (
{
layerId = "56B7CB81-CC11-4115-9FB5-EB39306C4A9F";
paths = (
{
closed = 1;
nodes = (
"140 -240 LINE",
"140 41 LINE",
"182 3 OFFCURVE",
"238 -20 OFFCURVE",
"300 -20 CURVE SMOOTH",
"433 -20 OFFCURVE",
"540 87 OFFCURVE",
"540 220 CURVE SMOOTH",
"540 340 LINE SMOOTH",
"540 473 OFFCURVE",
"433 580 OFFCURVE",
"300 580 CURVE SMOOTH",
"238 580 OFFCURVE",
"182 557 OFFCURVE",
"140 519 CURVE",
"140 560 LINE",
"60 560 LINE",
"60 -240 LINE"
);
},
{
closed = 1;
nodes = (
"140 340 LINE SMOOTH",
"140 429 OFFCURVE",
"211 500 OFFCURVE",
"300 500 CURVE SMOOTH",
"389 500 OFFCURVE",
"460 429 OFFCURVE",
"460 340 CURVE SMOOTH",
"460 220 LINE SMOOTH",
"460 131 OFFCURVE",
"389 60 OFFCURVE",
"300 60 CURVE SMOOTH",
"211 60 OFFCURVE",
"140 131 OFFCURVE",
"140 220 CURVE SMOOTH"
);
}
);
width = 600;
},
{
layerId = "0F8A7298-526A-4D73-8A76-82A4C1EFD640";
paths = (
{
closed = 1;
nodes = (
"140 -240 LINE",
"140 41 LINE",
"182 3 OFFCURVE",
"238 -20 OFFCURVE",
"300 -20 CURVE SMOOTH",
"433 -20 OFFCURVE",
"540 87 OFFCURVE",
"540 220 CURVE SMOOTH",
"540 340 LINE SMOOTH",
"540 473 OFFCURVE",
"433 580 OFFCURVE",
"300 580 CURVE SMOOTH",
"238 580 OFFCURVE",
"182 557 OFFCURVE",
"140 519 CURVE",
"140 560 LINE",
"60 560 LINE",
"60 -240 LINE"
);
},
{
closed = 1;
nodes = (
"140 340 LINE SMOOTH",
"140 429 OFFCURVE",
"211 500 OFFCURVE",
"300 500 CURVE SMOOTH",
"389 500 OFFCURVE",
"460 429 OFFCURVE",
"460 340 CURVE SMOOTH",
"460 220 LINE SMOOTH",
"460 131 OFFCURVE",
"389 60 OFFCURVE",
"300 60 CURVE SMOOTH",
"211 60 OFFCURVE",
"140 131 OFFCURVE",
"140 220 CURVE SMOOTH"
);
}
);
width = 600;
}
);
},
{
glyphname = q.ss01;
lastChange = "2022-10-03 19:24:53 +0000";
layers = (
{
layerId = "56B7CB81-CC11-4115-9FB5-EB39306C4A9F";
paths = (
{
closed = 1;
nodes = (
"60 87 OFFCURVE",
"167 -20 OFFCURVE",
"300 -20 CURVE SMOOTH",
"362 -20 OFFCURVE",
"418 3 OFFCURVE",
"460 41 CURVE",
"460 -240 LINE",
"540 -240 LINE",
"540 560 LINE",
"460 560 LINE",
"460 519 LINE",
"418 557 OFFCURVE",
"362 580 OFFCURVE",
"300 580 CURVE SMOOTH",
"167 580 OFFCURVE",
"60 473 OFFCURVE",
"60 340 CURVE SMOOTH",
"60 220 LINE SMOOTH"
);
},
{
closed = 1;
nodes = (
"140 340 LINE SMOOTH",
"140 429 OFFCURVE",
"211 500 OFFCURVE",
"300 500 CURVE SMOOTH",
"389 500 OFFCURVE",
"460 429 OFFCURVE",
"460 340 CURVE SMOOTH",
"460 220 LINE SMOOTH",
"460 131 OFFCURVE",
"389 60 OFFCURVE",
"300 60 CURVE SMOOTH",
"211 60 OFFCURVE",
"140 131 OFFCURVE",
"140 220 CURVE SMOOTH"
);
}
);
width = 600;
},
{
layerId = "0F8A7298-526A-4D73-8A76-82A4C1EFD640";
paths = (
{
closed = 1;
nodes = (
"60 87 OFFCURVE",
"167 -20 OFFCURVE",
"300 -20 CURVE SMOOTH",
"362 -20 OFFCURVE",
"418 3 OFFCURVE",
"460 41 CURVE",
"460 -240 LINE",
"540 -240 LINE",
"540 560 LINE",
"460 560 LINE",
"460 519 LINE",
"418 557 OFFCURVE",
"362 580 OFFCURVE",
"300 580 CURVE SMOOTH",
"167 580 OFFCURVE",
"60 473 OFFCURVE",
"60 340 CURVE SMOOTH",
"60 220 LINE SMOOTH"
);
},
{
closed = 1;
nodes = (
"140 340 LINE SMOOTH",
"140 429 OFFCURVE",
"211 500 OFFCURVE",
"300 500 CURVE SMOOTH",
"389 500 OFFCURVE",
"460 429 OFFCURVE",
"460 340 CURVE SMOOTH",
"460 220 LINE SMOOTH",
"460 131 OFFCURVE",
"389 60 OFFCURVE",
"300 60 CURVE SMOOTH",
"211 60 OFFCURVE",
"140 131 OFFCURVE",
"140 220 CURVE SMOOTH"
);
}
);
width = 600;
}
);
},
{
glyphname = r.ss01;
lastChange = "2022-10-09 01:00:22 +0000";
layers = (
{
layerId = "56B7CB81-CC11-4115-9FB5-EB39306C4A9F";
paths = (
{
closed = 1;
nodes = (
"160 0 LINE",
"160 340 LINE SMOOTH",
"160 429 OFFCURVE",
"231 500 OFFCURVE",
"320 500 CURVE SMOOTH",
"400 500 LINE",
"400 580 LINE",
"320 580 LINE SMOOTH",
"258 580 OFFCURVE",
"202 557 OFFCURVE",
"160 519 CURVE",
"160 560 LINE",
"80 560 LINE",
"80 0 LINE"
);
}
);
width = 420;
},
{
layerId = "0F8A7298-526A-4D73-8A76-82A4C1EFD640";
paths = (
{
closed = 1;
nodes = (
"160 0 LINE",
"160 340 LINE SMOOTH",
"160 429 OFFCURVE",
"231 500 OFFCURVE",
"320 500 CURVE SMOOTH",
"400 500 LINE",
"400 580 LINE",
"320 580 LINE SMOOTH",
"258 580 OFFCURVE",
"202 557 OFFCURVE",
"160 519 CURVE",
"160 560 LINE",
"80 560 LINE",
"80 0 LINE"
);
}
);
width = 420;
}
);
},
{
glyphname = u.ss01;
lastChange = "2022-10-03 19:24:53 +0000";
layers = (
{
layerId = "56B7CB81-CC11-4115-9FB5-EB39306C4A9F";
paths = (
{
closed = 1;
nodes = (
"60 87 OFFCURVE",
"167 -20 OFFCURVE",
"300 -20 CURVE SMOOTH",
"362 -20 OFFCURVE",
"418 3 OFFCURVE",
"460 41 CURVE",
"460 0 LINE",
"540 0 LINE",
"540 560 LINE",
"460 560 LINE",
"460 220 LINE SMOOTH",
"460 131 OFFCURVE",
"389 60 OFFCURVE",
"300 60 CURVE SMOOTH",
"211 60 OFFCURVE",
"140 131 OFFCURVE",
"140 220 CURVE SMOOTH",
"140 560 LINE",
"60 560 LINE",
"60 220 LINE SMOOTH"
);
}
);
width = 600;
},
{
layerId = "0F8A7298-526A-4D73-8A76-82A4C1EFD640";
paths = (
{
closed = 1;
nodes = (
"60 87 OFFCURVE",
"167 -20 OFFCURVE",
"300 -20 CURVE SMOOTH",
"362 -20 OFFCURVE",
"418 3 OFFCURVE",
"460 41 CURVE",
"460 0 LINE",
"540 0 LINE",
"540 560 LINE",
"460 560 LINE",
"460 220 LINE SMOOTH",
"460 131 OFFCURVE",
"389 60 OFFCURVE",
"300 60 CURVE SMOOTH",
"211 60 OFFCURVE",
"140 131 OFFCURVE",
"140 220 CURVE SMOOTH",
"140 560 LINE",
"60 560 LINE",
"60 220 LINE SMOOTH"
);
}
);
width = 600;
}
);
},
{
glyphname = y.ss01;
lastChange = "2022-10-03 19:24:53 +0000";
layers = (
{
layerId = "56B7CB81-CC11-4115-9FB5-EB39306C4A9F";
paths = (
{
closed = 1;
nodes = (
"60 87 OFFCURVE",
"167 -20 OFFCURVE",
"300 -20 CURVE SMOOTH",
"362 -20 OFFCURVE",
"418 3 OFFCURVE",
"460 41 CURVE",
"460 0 LINE SMOOTH",
"460 -89 OFFCURVE",
"389 -160 OFFCURVE",
"300 -160 CURVE SMOOTH",
"255 -160 OFFCURVE",
"215 -143 OFFCURVE",
"187 -114 CURVE",
"131 -169 LINE",
"174 -213 OFFCURVE",
"234 -240 OFFCURVE",
"300 -240 CURVE SMOOTH",
"433 -240 OFFCURVE",
"540 -133 OFFCURVE",
"540 0 CURVE SMOOTH",
"540 560 LINE",
"460 560 LINE",
"460 220 LINE SMOOTH",
"460 131 OFFCURVE",
"389 60 OFFCURVE",
"300 60 CURVE SMOOTH",
"211 60 OFFCURVE",
"140 131 OFFCURVE",
"140 220 CURVE SMOOTH",
"140 560 LINE",
"60 560 LINE",
"60 220 LINE SMOOTH"
);
}
);
width = 600;
},
{
layerId = "0F8A7298-526A-4D73-8A76-82A4C1EFD640";
paths = (
{
closed = 1;
nodes = (
"60 87 OFFCURVE",
"167 -20 OFFCURVE",
"300 -20 CURVE SMOOTH",
"362 -20 OFFCURVE",
"418 3 OFFCURVE",
"460 41 CURVE",
"460 0 LINE SMOOTH",
"460 -89 OFFCURVE",
"389 -160 OFFCURVE",
"300 -160 CURVE SMOOTH",
"255 -160 OFFCURVE",
"215 -143 OFFCURVE",
"187 -114 CURVE",
"131 -169 LINE",
"174 -213 OFFCURVE",
"234 -240 OFFCURVE",
"300 -240 CURVE SMOOTH",
"433 -240 OFFCURVE",
"540 -133 OFFCURVE",
"540 0 CURVE SMOOTH",
"540 560 LINE",
"460 560 LINE",
"460 220 LINE SMOOTH",
"460 131 OFFCURVE",
"389 60 OFFCURVE",
"300 60 CURVE SMOOTH",
"211 60 OFFCURVE",
"140 131 OFFCURVE",
"140 220 CURVE SMOOTH",
"140 560 LINE",
"60 560 LINE",
"60 220 LINE SMOOTH"
);
}
);
width = 600;
}
);
},
{
glyphname = a.ss02;
lastChange = "2022-10-03 19:24:53 +0000";
layers = (
{
layerId = "56B7CB81-CC11-4115-9FB5-EB39306C4A9F";
paths = (
{
closed = 1;
nodes = (
"60 87 OFFCURVE",
"167 -20 OFFCURVE",
"300 -20 CURVE SMOOTH",
"362 -20 OFFCURVE",
"418 3 OFFCURVE",
"460 41 CURVE",
"460 0 LINE",
"540 0 LINE",
"540 340 LINE SMOOTH",
"540 473 OFFCURVE",
"433 580 OFFCURVE",
"300 580 CURVE SMOOTH",
"167 580 OFFCURVE",
"60 473 OFFCURVE",
"60 340 CURVE SMOOTH",
"60 220 LINE SMOOTH"
);
},
{
closed = 1;
nodes = (
"140 340 LINE SMOOTH",
"140 429 OFFCURVE",
"211 500 OFFCURVE",
"300 500 CURVE SMOOTH",
"389 500 OFFCURVE",
"460 429 OFFCURVE",
"460 340 CURVE SMOOTH",
"460 220 LINE SMOOTH",
"460 131 OFFCURVE",
"389 60 OFFCURVE",
"300 60 CURVE SMOOTH",
"211 60 OFFCURVE",
"140 131 OFFCURVE",
"140 220 CURVE SMOOTH"
);
}
);
width = 600;
},
{
layerId = "0F8A7298-526A-4D73-8A76-82A4C1EFD640";
paths = (
{
closed = 1;
nodes = (
"60 87 OFFCURVE",
"167 -20 OFFCURVE",
"300 -20 CURVE SMOOTH",
"362 -20 OFFCURVE",
"418 3 OFFCURVE",
"460 41 CURVE",
"460 0 LINE",
"540 0 LINE",
"540 340 LINE SMOOTH",
"540 473 OFFCURVE",
"433 580 OFFCURVE",
"300 580 CURVE SMOOTH",
"167 580 OFFCURVE",
"60 473 OFFCURVE",
"60 340 CURVE SMOOTH",
"60 220 LINE SMOOTH"
);
},
{
closed = 1;
nodes = (
"140 340 LINE SMOOTH",
"140 429 OFFCURVE",
"211 500 OFFCURVE",
"300 500 CURVE SMOOTH",
"389 500 OFFCURVE",
"460 429 OFFCURVE",
"460 340 CURVE SMOOTH",
"460 220 LINE SMOOTH",
"460 131 OFFCURVE",
"389 60 OFFCURVE",
"300 60 CURVE SMOOTH",
"211 60 OFFCURVE",
"140 131 OFFCURVE",
"140 220 CURVE SMOOTH"
);
}
);
width = 600;
}
);
},
{
glyphname = b.ss02;
lastChange = "2022-10-03 19:24:53 +0000";
layers = (
{
layerId = "56B7CB81-CC11-4115-9FB5-EB39306C4A9F";
paths = (
{
closed = 1;
nodes = (
"60 87 OFFCURVE",
"167 -20 OFFCURVE",
"300 -20 CURVE SMOOTH",
"433 -20 OFFCURVE",
"540 87 OFFCURVE",
"540 220 CURVE SMOOTH",
"540 340 LINE SMOOTH",
"540 473 OFFCURVE",
"433 580 OFFCURVE",
"300 580 CURVE SMOOTH",
"238 580 OFFCURVE",
"182 557 OFFCURVE",
"140 519 CURVE",
"140 800 LINE",
"60 800 LINE",
"60 220 LINE SMOOTH"
);
},
{
closed = 1;
nodes = (
"140 340 LINE SMOOTH",
"140 429 OFFCURVE",
"211 500 OFFCURVE",
"300 500 CURVE SMOOTH",
"389 500 OFFCURVE",
"460 429 OFFCURVE",
"460 340 CURVE SMOOTH",
"460 220 LINE SMOOTH",
"460 131 OFFCURVE",
"389 60 OFFCURVE",
"300 60 CURVE SMOOTH",
"211 60 OFFCURVE",
"140 131 OFFCURVE",
"140 220 CURVE SMOOTH"
);
}
);
width = 600;
},
{
layerId = "0F8A7298-526A-4D73-8A76-82A4C1EFD640";
paths = (
{
closed = 1;
nodes = (
"60 87 OFFCURVE",
"167 -20 OFFCURVE",
"300 -20 CURVE SMOOTH",
"433 -20 OFFCURVE",
"540 87 OFFCURVE",
"540 220 CURVE SMOOTH",
"540 340 LINE SMOOTH",
"540 473 OFFCURVE",
"433 580 OFFCURVE",
"300 580 CURVE SMOOTH",
"238 580 OFFCURVE",
"182 557 OFFCURVE",
"140 519 CURVE",
"140 800 LINE",
"60 800 LINE",
"60 220 LINE SMOOTH"
);
},
{
closed = 1;
nodes = (
"140 340 LINE SMOOTH",
"140 429 OFFCURVE",
"211 500 OFFCURVE",
"300 500 CURVE SMOOTH",
"389 500 OFFCURVE",
"460 429 OFFCURVE",
"460 340 CURVE SMOOTH",
"460 220 LINE SMOOTH",
"460 131 OFFCURVE",
"389 60 OFFCURVE",
"300 60 CURVE SMOOTH",
"211 60 OFFCURVE",
"140 131 OFFCURVE",
"140 220 CURVE SMOOTH"
);
}
);
width = 600;
}
);
},
{
glyphname = d.ss02;
lastChange = "2022-10-03 19:24:53 +0000";
layers = (
{
layerId = "56B7CB81-CC11-4115-9FB5-EB39306C4A9F";
paths = (
{
closed = 1;
nodes = (
"60 87 OFFCURVE",
"167 -20 OFFCURVE",
"300 -20 CURVE SMOOTH",
"433 -20 OFFCURVE",
"540 87 OFFCURVE",
"540 220 CURVE SMOOTH",
"540 800 LINE",
"460 800 LINE",
"460 519 LINE",
"418 557 OFFCURVE",
"362 580 OFFCURVE",
"300 580 CURVE SMOOTH",
"167 580 OFFCURVE",
"60 473 OFFCURVE",
"60 340 CURVE SMOOTH",
"60 220 LINE SMOOTH"
);
},
{
closed = 1;
nodes = (
"140 340 LINE SMOOTH",
"140 429 OFFCURVE",
"211 500 OFFCURVE",
"300 500 CURVE SMOOTH",
"389 500 OFFCURVE",
"460 429 OFFCURVE",
"460 340 CURVE SMOOTH",
"460 220 LINE SMOOTH",
"460 131 OFFCURVE",
"389 60 OFFCURVE",
"300 60 CURVE SMOOTH",
"211 60 OFFCURVE",
"140 131 OFFCURVE",
"140 220 CURVE SMOOTH"
);
}
);
width = 600;
},
{
layerId = "0F8A7298-526A-4D73-8A76-82A4C1EFD640";
paths = (
{
closed = 1;
nodes = (
"60 87 OFFCURVE",
"167 -20 OFFCURVE",
"300 -20 CURVE SMOOTH",
"433 -20 OFFCURVE",
"540 87 OFFCURVE",
"540 220 CURVE SMOOTH",
"540 800 LINE",
"460 800 LINE",
"460 519 LINE",
"418 557 OFFCURVE",
"362 580 OFFCURVE",
"300 580 CURVE SMOOTH",
"167 580 OFFCURVE",
"60 473 OFFCURVE",
"60 340 CURVE SMOOTH",
"60 220 LINE SMOOTH"
);
},
{
closed = 1;
nodes = (
"140 340 LINE SMOOTH",
"140 429 OFFCURVE",
"211 500 OFFCURVE",
"300 500 CURVE SMOOTH",
"389 500 OFFCURVE",
"460 429 OFFCURVE",
"460 340 CURVE SMOOTH",
"460 220 LINE SMOOTH",
"460 131 OFFCURVE",
"389 60 OFFCURVE",
"300 60 CURVE SMOOTH",
"211 60 OFFCURVE",
"140 131 OFFCURVE",
"140 220 CURVE SMOOTH"
);
}
);
width = 600;
}
);
},
{
glyphname = e.ss02;
lastChange = "2022-10-09 03:33:25 +0000";
layers = (
{
layerId = "56B7CB81-CC11-4115-9FB5-EB39306C4A9F";
paths = (
{
closed = 1;
nodes = (
"40 107 OFFCURVE",
"147 0 OFFCURVE",
"280 0 CURVE SMOOTH",
"520 0 LINE",
"520 80 LINE",
"280 80 LINE SMOOTH",
"191 80 OFFCURVE",
"120 151 OFFCURVE",
"120 240 CURVE SMOOTH",
"120 260 LINE",
"520 260 LINE",
"520 340 LINE SMOOTH",
"520 473 OFFCURVE",
"413 580 OFFCURVE",
"280 580 CURVE SMOOTH",
"147 580 OFFCURVE",
"40 473 OFFCURVE",
"40 340 CURVE SMOOTH",
"40 240 LINE SMOOTH"
);
},
{
closed = 1;
nodes = (
"120 429 OFFCURVE",
"191 500 OFFCURVE",
"280 500 CURVE SMOOTH",
"369 500 OFFCURVE",
"440 429 OFFCURVE",
"440 340 CURVE",
"120 340 LINE"
);
}
);
width = 560;
},
{
layerId = "0F8A7298-526A-4D73-8A76-82A4C1EFD640";
paths = (
{
closed = 1;
nodes = (
"40 107 OFFCURVE",
"147 0 OFFCURVE",
"280 0 CURVE SMOOTH",
"520 0 LINE",
"520 80 LINE",
"280 80 LINE SMOOTH",
"191 80 OFFCURVE",
"120 151 OFFCURVE",
"120 240 CURVE SMOOTH",
"120 260 LINE",
"520 260 LINE",
"520 340 LINE SMOOTH",
"520 473 OFFCURVE",
"413 580 OFFCURVE",
"280 580 CURVE SMOOTH",
"147 580 OFFCURVE",
"40 473 OFFCURVE",
"40 340 CURVE SMOOTH",
"40 240 LINE SMOOTH"
);
},
{
closed = 1;
nodes = (
"120 429 OFFCURVE",
"191 500 OFFCURVE",
"280 500 CURVE SMOOTH",
"369 500 OFFCURVE",
"440 429 OFFCURVE",
"440 340 CURVE",
"120 340 LINE"
);
}
);
width = 560;
}
);
},
{
glyphname = g.ss02;
lastChange = "2022-10-03 19:24:53 +0000";
layers = (
{
layerId = "56B7CB81-CC11-4115-9FB5-EB39306C4A9F";
paths = (
{
closed = 1;
nodes = (
"60 87 OFFCURVE",
"167 -20 OFFCURVE",
"300 -20 CURVE SMOOTH",
"362 -20 OFFCURVE",
"418 3 OFFCURVE",
"460 41 CURVE",
"460 0 LINE SMOOTH",
"460 -89 OFFCURVE",
"389 -160 OFFCURVE",
"300 -160 CURVE SMOOTH",
"255 -160 OFFCURVE",
"215 -143 OFFCURVE",
"187 -114 CURVE",
"131 -169 LINE",
"174 -213 OFFCURVE",
"234 -240 OFFCURVE",
"300 -240 CURVE SMOOTH",
"433 -240 OFFCURVE",
"540 -133 OFFCURVE",
"540 0 CURVE SMOOTH",
"540 340 LINE SMOOTH",
"540 473 OFFCURVE",
"433 580 OFFCURVE",
"300 580 CURVE SMOOTH",
"167 580 OFFCURVE",
"60 473 OFFCURVE",
"60 340 CURVE SMOOTH",
"60 220 LINE SMOOTH"
);
},
{
closed = 1;
nodes = (
"140 340 LINE SMOOTH",
"140 429 OFFCURVE",
"211 500 OFFCURVE",
"300 500 CURVE SMOOTH",
"389 500 OFFCURVE",
"460 429 OFFCURVE",
"460 340 CURVE SMOOTH",
"460 220 LINE SMOOTH",
"460 131 OFFCURVE",
"389 60 OFFCURVE",
"300 60 CURVE SMOOTH",
"211 60 OFFCURVE",
"140 131 OFFCURVE",
"140 220 CURVE SMOOTH"
);
}
);
width = 600;
},
{
layerId = "0F8A7298-526A-4D73-8A76-82A4C1EFD640";
paths = (
{
closed = 1;
nodes = (
"60 87 OFFCURVE",
"167 -20 OFFCURVE",
"300 -20 CURVE SMOOTH",
"362 -20 OFFCURVE",
"418 3 OFFCURVE",
"460 41 CURVE",
"460 0 LINE SMOOTH",
"460 -89 OFFCURVE",
"389 -160 OFFCURVE",
"300 -160 CURVE SMOOTH",
"255 -160 OFFCURVE",
"215 -143 OFFCURVE",
"187 -114 CURVE",
"131 -169 LINE",
"174 -213 OFFCURVE",
"234 -240 OFFCURVE",
"300 -240 CURVE SMOOTH",
"433 -240 OFFCURVE",
"540 -133 OFFCURVE",
"540 0 CURVE SMOOTH",
"540 340 LINE SMOOTH",
"540 473 OFFCURVE",
"433 580 OFFCURVE",
"300 580 CURVE SMOOTH",
"167 580 OFFCURVE",
"60 473 OFFCURVE",
"60 340 CURVE SMOOTH",
"60 220 LINE SMOOTH"
);
},
{
closed = 1;
nodes = (
"140 340 LINE SMOOTH",
"140 429 OFFCURVE",
"211 500 OFFCURVE",
"300 500 CURVE SMOOTH",
"389 500 OFFCURVE",
"460 429 OFFCURVE",
"460 340 CURVE SMOOTH",
"460 220 LINE SMOOTH",
"460 131 OFFCURVE",
"389 60 OFFCURVE",
"300 60 CURVE SMOOTH",
"211 60 OFFCURVE",
"140 131 OFFCURVE",
"140 220 CURVE SMOOTH"
);
}
);
width = 600;
}
);
},
{
glyphname = n.ss02;
lastChange = "2022-10-03 19:24:53 +0000";
layers = (
{
layerId = "56B7CB81-CC11-4115-9FB5-EB39306C4A9F";
paths = (
{
closed = 1;
nodes = (
"140 0 LINE",
"140 340 LINE SMOOTH",
"140 429 OFFCURVE",
"211 500 OFFCURVE",
"300 500 CURVE SMOOTH",
"389 500 OFFCURVE",
"460 429 OFFCURVE",
"460 340 CURVE SMOOTH",
"460 0 LINE",
"540 0 LINE",
"540 340 LINE SMOOTH",
"540 473 OFFCURVE",
"433 580 OFFCURVE",
"300 580 CURVE SMOOTH",
"167 580 OFFCURVE",
"60 473 OFFCURVE",
"60 340 CURVE SMOOTH",
"60 0 LINE"
);
}
);
width = 600;
},
{
layerId = "0F8A7298-526A-4D73-8A76-82A4C1EFD640";
paths = (
{
closed = 1;
nodes = (
"140 0 LINE",
"140 340 LINE SMOOTH",
"140 429 OFFCURVE",
"211 500 OFFCURVE",
"300 500 CURVE SMOOTH",
"389 500 OFFCURVE",
"460 429 OFFCURVE",
"460 340 CURVE SMOOTH",
"460 0 LINE",
"540 0 LINE",
"540 340 LINE SMOOTH",
"540 473 OFFCURVE",
"433 580 OFFCURVE",
"300 580 CURVE SMOOTH",
"167 580 OFFCURVE",
"60 473 OFFCURVE",
"60 340 CURVE SMOOTH",
"60 0 LINE"
);
}
);
width = 600;
}
);
},
{
glyphname = p.ss02;
lastChange = "2022-10-03 19:24:53 +0000";
layers = (
{
layerId = "56B7CB81-CC11-4115-9FB5-EB39306C4A9F";
paths = (
{
closed = 1;
nodes = (
"140 -240 LINE",
"140 41 LINE",
"182 3 OFFCURVE",
"238 -20 OFFCURVE",
"300 -20 CURVE SMOOTH",
"433 -20 OFFCURVE",
"540 87 OFFCURVE",
"540 220 CURVE SMOOTH",
"540 340 LINE SMOOTH",
"540 473 OFFCURVE",
"433 580 OFFCURVE",
"300 580 CURVE SMOOTH",
"167 580 OFFCURVE",
"60 473 OFFCURVE",
"60 340 CURVE SMOOTH",
"60 -240 LINE"
);
},
{
closed = 1;
nodes = (
"140 340 LINE SMOOTH",
"140 429 OFFCURVE",
"211 500 OFFCURVE",
"300 500 CURVE SMOOTH",
"389 500 OFFCURVE",
"460 429 OFFCURVE",
"460 340 CURVE SMOOTH",
"460 220 LINE SMOOTH",
"460 131 OFFCURVE",
"389 60 OFFCURVE",
"300 60 CURVE SMOOTH",
"211 60 OFFCURVE",
"140 131 OFFCURVE",
"140 220 CURVE SMOOTH"
);
}
);
width = 600;
},
{
layerId = "0F8A7298-526A-4D73-8A76-82A4C1EFD640";
paths = (
{
closed = 1;
nodes = (
"140 -240 LINE",
"140 41 LINE",
"182 3 OFFCURVE",
"238 -20 OFFCURVE",
"300 -20 CURVE SMOOTH",
"433 -20 OFFCURVE",
"540 87 OFFCURVE",
"540 220 CURVE SMOOTH",
"540 340 LINE SMOOTH",
"540 473 OFFCURVE",
"433 580 OFFCURVE",
"300 580 CURVE SMOOTH",
"167 580 OFFCURVE",
"60 473 OFFCURVE",
"60 340 CURVE SMOOTH",
"60 -240 LINE"
);
},
{
closed = 1;
nodes = (
"140 340 LINE SMOOTH",
"140 429 OFFCURVE",
"211 500 OFFCURVE",
"300 500 CURVE SMOOTH",
"389 500 OFFCURVE",
"460 429 OFFCURVE",
"460 340 CURVE SMOOTH",
"460 220 LINE SMOOTH",
"460 131 OFFCURVE",
"389 60 OFFCURVE",
"300 60 CURVE SMOOTH",
"211 60 OFFCURVE",
"140 131 OFFCURVE",
"140 220 CURVE SMOOTH"
);
}
);
width = 600;
}
);
},
{
glyphname = q.ss02;
lastChange = "2022-10-03 19:24:53 +0000";
layers = (
{
layerId = "56B7CB81-CC11-4115-9FB5-EB39306C4A9F";
paths = (
{
closed = 1;
nodes = (
"60 87 OFFCURVE",
"167 -20 OFFCURVE",
"300 -20 CURVE SMOOTH",
"362 -20 OFFCURVE",
"418 3 OFFCURVE",
"460 41 CURVE",
"460 -240 LINE",
"540 -240 LINE",
"540 340 LINE SMOOTH",
"540 473 OFFCURVE",
"433 580 OFFCURVE",
"300 580 CURVE SMOOTH",
"167 580 OFFCURVE",
"60 473 OFFCURVE",
"60 340 CURVE SMOOTH",
"60 220 LINE SMOOTH"
);
},
{
closed = 1;
nodes = (
"140 340 LINE SMOOTH",
"140 429 OFFCURVE",
"211 500 OFFCURVE",
"300 500 CURVE SMOOTH",
"389 500 OFFCURVE",
"460 429 OFFCURVE",
"460 340 CURVE SMOOTH",
"460 220 LINE SMOOTH",
"460 131 OFFCURVE",
"389 60 OFFCURVE",
"300 60 CURVE SMOOTH",
"211 60 OFFCURVE",
"140 131 OFFCURVE",
"140 220 CURVE SMOOTH"
);
}
);
width = 600;
},
{
layerId = "0F8A7298-526A-4D73-8A76-82A4C1EFD640";
paths = (
{
closed = 1;
nodes = (
"60 87 OFFCURVE",
"167 -20 OFFCURVE",
"300 -20 CURVE SMOOTH",
"362 -20 OFFCURVE",
"418 3 OFFCURVE",
"460 41 CURVE",
"460 -240 LINE",
"540 -240 LINE",
"540 340 LINE SMOOTH",
"540 473 OFFCURVE",
"433 580 OFFCURVE",
"300 580 CURVE SMOOTH",
"167 580 OFFCURVE",
"60 473 OFFCURVE",
"60 340 CURVE SMOOTH",
"60 220 LINE SMOOTH"
);
},
{
closed = 1;
nodes = (
"140 340 LINE SMOOTH",
"140 429 OFFCURVE",
"211 500 OFFCURVE",
"300 500 CURVE SMOOTH",
"389 500 OFFCURVE",
"460 429 OFFCURVE",
"460 340 CURVE SMOOTH",
"460 220 LINE SMOOTH",
"460 131 OFFCURVE",
"389 60 OFFCURVE",
"300 60 CURVE SMOOTH",
"211 60 OFFCURVE",
"140 131 OFFCURVE",
"140 220 CURVE SMOOTH"
);
}
);
width = 600;
}
);
},
{
glyphname = r.ss02;
lastChange = "2022-10-09 01:00:33 +0000";
layers = (
{
layerId = "56B7CB81-CC11-4115-9FB5-EB39306C4A9F";
paths = (
{
closed = 1;
nodes = (
"160 0 LINE",
"160 340 LINE SMOOTH",
"160 429 OFFCURVE",
"231 500 OFFCURVE",
"320 500 CURVE SMOOTH",
"400 500 LINE",
"400 580 LINE",
"320 580 LINE SMOOTH",
"187 580 OFFCURVE",
"80 473 OFFCURVE",
"80 340 CURVE SMOOTH",
"80 0 LINE"
);
}
);
width = 420;
},
{
layerId = "0F8A7298-526A-4D73-8A76-82A4C1EFD640";
paths = (
{
closed = 1;
nodes = (
"160 0 LINE",
"160 340 LINE SMOOTH",
"160 429 OFFCURVE",
"231 500 OFFCURVE",
"320 500 CURVE SMOOTH",
"400 500 LINE",
"400 580 LINE",
"320 580 LINE SMOOTH",
"187 580 OFFCURVE",
"80 473 OFFCURVE",
"80 340 CURVE SMOOTH",
"80 0 LINE"
);
}
);
width = 420;
}
);
},
{
glyphname = u.ss02;
lastChange = "2022-10-03 19:24:53 +0000";
layers = (
{
layerId = "56B7CB81-CC11-4115-9FB5-EB39306C4A9F";
paths = (
{
closed = 1;
nodes = (
"60 87 OFFCURVE",
"167 -20 OFFCURVE",
"300 -20 CURVE SMOOTH",
"433 -20 OFFCURVE",
"540 87 OFFCURVE",
"540 220 CURVE SMOOTH",
"540 560 LINE",
"460 560 LINE",
"460 220 LINE SMOOTH",
"460 131 OFFCURVE",
"389 60 OFFCURVE",
"300 60 CURVE SMOOTH",
"211 60 OFFCURVE",
"140 131 OFFCURVE",
"140 220 CURVE SMOOTH",
"140 560 LINE",
"60 560 LINE",
"60 220 LINE SMOOTH"
);
}
);
width = 600;
},
{
layerId = "0F8A7298-526A-4D73-8A76-82A4C1EFD640";
paths = (
{
closed = 1;
nodes = (
"60 87 OFFCURVE",
"167 -20 OFFCURVE",
"300 -20 CURVE SMOOTH",
"433 -20 OFFCURVE",
"540 87 OFFCURVE",
"540 220 CURVE SMOOTH",
"540 560 LINE",
"460 560 LINE",
"460 220 LINE SMOOTH",
"460 131 OFFCURVE",
"389 60 OFFCURVE",
"300 60 CURVE SMOOTH",
"211 60 OFFCURVE",
"140 131 OFFCURVE",
"140 220 CURVE SMOOTH",
"140 560 LINE",
"60 560 LINE",
"60 220 LINE SMOOTH"
);
}
);
width = 600;
}
);
},
{
glyphname = y.ss02;
lastChange = "2022-10-07 23:31:19 +0000";
layers = (
{
layerId = "56B7CB81-CC11-4115-9FB5-EB39306C4A9F";
paths = (
{
closed = 1;
nodes = (
"60 87 OFFCURVE",
"167 -20 OFFCURVE",
"300 -20 CURVE SMOOTH",
"362 -20 OFFCURVE",
"418 3 OFFCURVE",
"460 41 CURVE",
"460 -240 LINE",
"540 -240 LINE",
"540 560 LINE",
"460 560 LINE",
"460 220 LINE SMOOTH",
"460 131 OFFCURVE",
"389 60 OFFCURVE",
"300 60 CURVE SMOOTH",
"211 60 OFFCURVE",
"140 131 OFFCURVE",
"140 220 CURVE SMOOTH",
"140 560 LINE",
"60 560 LINE",
"60 220 LINE SMOOTH"
);
}
);
width = 600;
},
{
layerId = "0F8A7298-526A-4D73-8A76-82A4C1EFD640";
paths = (
{
closed = 1;
nodes = (
"60 87 OFFCURVE",
"167 -20 OFFCURVE",
"300 -20 CURVE SMOOTH",
"362 -20 OFFCURVE",
"418 3 OFFCURVE",
"460 41 CURVE",
"460 -240 LINE",
"540 -240 LINE",
"540 560 LINE",
"460 560 LINE",
"460 220 LINE SMOOTH",
"460 131 OFFCURVE",
"389 60 OFFCURVE",
"300 60 CURVE SMOOTH",
"211 60 OFFCURVE",
"140 131 OFFCURVE",
"140 220 CURVE SMOOTH",
"140 560 LINE",
"60 560 LINE",
"60 220 LINE SMOOTH"
);
}
);
width = 600;
}
);
},
{
glyphname = f_f;
lastChange = "2022-10-08 23:52:25 +0000";
layers = (
{
layerId = "56B7CB81-CC11-4115-9FB5-EB39306C4A9F";
paths = (
{
closed = 1;
nodes = (
"150 480 LINE",
"150 0 LINE",
"230 0 LINE",
"230 480 LINE",
"390 480 LINE",
"390 0 LINE",
"470 0 LINE",
"470 480 LINE",
"630 480 LINE",
"630 560 LINE",
"470 560 LINE",
"470 580 LINE SMOOTH",
"470 669 OFFCURVE",
"541 740 OFFCURVE",
"630 740 CURVE",
"630 820 LINE",
"497 820 OFFCURVE",
"390 713 OFFCURVE",
"390 580 CURVE SMOOTH",
"390 560 LINE",
"230 560 LINE",
"230 580 LINE SMOOTH",
"230 669 OFFCURVE",
"301 740 OFFCURVE",
"390 740 CURVE",
"390 820 LINE",
"257 820 OFFCURVE",
"150 713 OFFCURVE",
"150 580 CURVE SMOOTH",
"150 560 LINE",
"30 560 LINE",
"30 480 LINE"
);
}
);
width = 660;
},
{
layerId = "0F8A7298-526A-4D73-8A76-82A4C1EFD640";
paths = (
{
closed = 1;
nodes = (
"150 480 LINE",
"150 0 LINE",
"230 0 LINE",
"230 480 LINE",
"390 480 LINE",
"390 0 LINE",
"470 0 LINE",
"470 480 LINE",
"630 480 LINE",
"630 560 LINE",
"470 560 LINE",
"470 580 LINE SMOOTH",
"470 669 OFFCURVE",
"541 740 OFFCURVE",
"630 740 CURVE",
"630 820 LINE",
"497 820 OFFCURVE",
"390 713 OFFCURVE",
"390 580 CURVE SMOOTH",
"390 560 LINE",
"230 560 LINE",
"230 580 LINE SMOOTH",
"230 669 OFFCURVE",
"301 740 OFFCURVE",
"390 740 CURVE",
"390 820 LINE",
"257 820 OFFCURVE",
"150 713 OFFCURVE",
"150 580 CURVE SMOOTH",
"150 560 LINE",
"30 560 LINE",
"30 480 LINE"
);
}
);
width = 660;
}
);
},
{
glyphname = f_i;
lastChange = "2022-10-09 00:48:26 +0000";
layers = (
{
layerId = "56B7CB81-CC11-4115-9FB5-EB39306C4A9F";
paths = (
{
closed = 1;
nodes = (
"150 480 LINE",
"150 0 LINE",
"230 0 LINE",
"230 480 LINE",
"390 480 LINE",
"390 0 LINE",
"470 0 LINE",
"470 560 LINE",
"230 560 LINE",
"230 580 LINE SMOOTH",
"230 669 OFFCURVE",
"301 740 OFFCURVE",
"390 740 CURVE SMOOTH",
"470 740 LINE",
"470 820 LINE",
"390 820 LINE SMOOTH",
"257 820 OFFCURVE",
"150 713 OFFCURVE",
"150 580 CURVE SMOOTH",
"150 560 LINE",
"30 560 LINE",
"30 480 LINE"
);
}
);
width = 510;
},
{
layerId = "0F8A7298-526A-4D73-8A76-82A4C1EFD640";
paths = (
{
closed = 1;
nodes = (
"150 480 LINE",
"150 0 LINE",
"230 0 LINE",
"230 480 LINE",
"390 480 LINE",
"390 0 LINE",
"470 0 LINE",
"470 560 LINE",
"230 560 LINE",
"230 580 LINE SMOOTH",
"230 669 OFFCURVE",
"301 740 OFFCURVE",
"390 740 CURVE SMOOTH",
"470 740 LINE",
"470 820 LINE",
"390 820 LINE SMOOTH",
"257 820 OFFCURVE",
"150 713 OFFCURVE",
"150 580 CURVE SMOOTH",
"150 560 LINE",
"30 560 LINE",
"30 480 LINE"
);
}
);
width = 510;
}
);
},
{
glyphname = f_l;
lastChange = "2022-10-09 03:43:22 +0000";
layers = (
{
layerId = "56B7CB81-CC11-4115-9FB5-EB39306C4A9F";
paths = (
{
closed = 1;
nodes = (
"150 480 LINE",
"150 0 LINE",
"230 0 LINE",
"230 480 LINE",
"390 480 LINE",
"390 560 LINE",
"230 560 LINE",
"230 580 LINE SMOOTH",
"230 669 OFFCURVE",
"301 740 OFFCURVE",
"390 740 CURVE SMOOTH",
"470 740 LINE",
"470 220 LINE SMOOTH",
"470 87 OFFCURVE",
"578 -20 OFFCURVE",
"710 -20 CURVE",
"710 60 LINE",
"622 60 OFFCURVE",
"550 131 OFFCURVE",
"550 220 CURVE SMOOTH",
"550 820 LINE",
"390 820 LINE SMOOTH",
"257 820 OFFCURVE",
"150 713 OFFCURVE",
"150 580 CURVE SMOOTH",
"150 560 LINE",
"30 560 LINE",
"30 480 LINE"
);
}
);
width = 730;
},
{
layerId = "0F8A7298-526A-4D73-8A76-82A4C1EFD640";
paths = (
{
closed = 1;
nodes = (
"150 480 LINE",
"150 0 LINE",
"230 0 LINE",
"230 480 LINE",
"390 480 LINE",
"390 560 LINE",
"230 560 LINE",
"230 580 LINE SMOOTH",
"230 669 OFFCURVE",
"301 740 OFFCURVE",
"390 740 CURVE SMOOTH",
"470 740 LINE",
"470 220 LINE SMOOTH",
"470 87 OFFCURVE",
"578 -20 OFFCURVE",
"710 -20 CURVE",
"710 60 LINE",
"622 60 OFFCURVE",
"550 131 OFFCURVE",
"550 220 CURVE SMOOTH",
"550 820 LINE",
"390 820 LINE SMOOTH",
"257 820 OFFCURVE",
"150 713 OFFCURVE",
"150 580 CURVE SMOOTH",
"150 560 LINE",
"30 560 LINE",
"30 480 LINE"
);
}
);
width = 730;
}
);
},
{
glyphname = zero;
lastChange = "2022-10-03 19:24:53 +0000";
layers = (
{
layerId = "56B7CB81-CC11-4115-9FB5-EB39306C4A9F";
paths = (
{
closed = 1;
nodes = (
"60 87 OFFCURVE",
"167 -20 OFFCURVE",
"300 -20 CURVE SMOOTH",
"433 -20 OFFCURVE",
"540 87 OFFCURVE",
"540 220 CURVE SMOOTH",
"540 580 LINE SMOOTH",
"540 713 OFFCURVE",
"433 820 OFFCURVE",
"300 820 CURVE SMOOTH",
"167 820 OFFCURVE",
"60 713 OFFCURVE",
"60 580 CURVE SMOOTH",
"60 220 LINE SMOOTH"
);
},
{
closed = 1;
nodes = (
"140 580 LINE SMOOTH",
"140 669 OFFCURVE",
"211 740 OFFCURVE",
"300 740 CURVE SMOOTH",
"389 740 OFFCURVE",
"460 669 OFFCURVE",
"460 580 CURVE SMOOTH",
"460 220 LINE SMOOTH",
"460 131 OFFCURVE",
"389 60 OFFCURVE",
"300 60 CURVE SMOOTH",
"211 60 OFFCURVE",
"140 131 OFFCURVE",
"140 220 CURVE SMOOTH"
);
}
);
width = 600;
},
{
layerId = "0F8A7298-526A-4D73-8A76-82A4C1EFD640";
paths = (
{
closed = 1;
nodes = (
"60 87 OFFCURVE",
"167 -20 OFFCURVE",
"300 -20 CURVE SMOOTH",
"433 -20 OFFCURVE",
"540 87 OFFCURVE",
"540 220 CURVE SMOOTH",
"540 580 LINE SMOOTH",
"540 713 OFFCURVE",
"433 820 OFFCURVE",
"300 820 CURVE SMOOTH",
"167 820 OFFCURVE",
"60 713 OFFCURVE",
"60 580 CURVE SMOOTH",
"60 220 LINE SMOOTH"
);
},
{
closed = 1;
nodes = (
"140 580 LINE SMOOTH",
"140 669 OFFCURVE",
"211 740 OFFCURVE",
"300 740 CURVE SMOOTH",
"389 740 OFFCURVE",
"460 669 OFFCURVE",
"460 580 CURVE SMOOTH",
"460 220 LINE SMOOTH",
"460 131 OFFCURVE",
"389 60 OFFCURVE",
"300 60 CURVE SMOOTH",
"211 60 OFFCURVE",
"140 131 OFFCURVE",
"140 220 CURVE SMOOTH"
);
}
);
width = 600;
}
);
unicode = 0030;
},
{
glyphname = one;
lastChange = "2022-10-03 19:24:53 +0000";
layers = (
{
layerId = "56B7CB81-CC11-4115-9FB5-EB39306C4A9F";
paths = (
{
closed = 1;
nodes = (
"149 720 OFFCURVE",
"220 649 OFFCURVE",
"220 560 CURVE SMOOTH",
"220 0 LINE",
"300 0 LINE",
"300 560 LINE SMOOTH",
"300 693 OFFCURVE",
"193 800 OFFCURVE",
"60 800 CURVE",
"60 720 LINE"
);
}
);
width = 360;
},
{
layerId = "0F8A7298-526A-4D73-8A76-82A4C1EFD640";
paths = (
{
closed = 1;
nodes = (
"149 720 OFFCURVE",
"220 649 OFFCURVE",
"220 560 CURVE SMOOTH",
"220 0 LINE",
"300 0 LINE",
"300 560 LINE SMOOTH",
"300 693 OFFCURVE",
"193 800 OFFCURVE",
"60 800 CURVE",
"60 720 LINE"
);
}
);
width = 360;
}
);
unicode = 0031;
},
{
glyphname = two;
lastChange = "2022-10-03 19:24:53 +0000";
layers = (
{
layerId = "56B7CB81-CC11-4115-9FB5-EB39306C4A9F";
paths = (
{
closed = 1;
nodes = (
"60 98 OFFCURVE",
"158 0 OFFCURVE",
"280 0 CURVE SMOOTH",
"540 0 LINE",
"540 80 LINE",
"280 80 LINE SMOOTH",
"202 80 OFFCURVE",
"140 142 OFFCURVE",
"140 220 CURVE SMOOTH",
"140 298 OFFCURVE",
"202 360 OFFCURVE",
"280 360 CURVE SMOOTH",
"320 360 LINE SMOOTH",
"442 360 OFFCURVE",
"540 458 OFFCURVE",
"540 580 CURVE SMOOTH",
"540 702 OFFCURVE",
"442 800 OFFCURVE",
"320 800 CURVE SMOOTH",
"60 800 LINE",
"60 720 LINE",
"320 720 LINE SMOOTH",
"398 720 OFFCURVE",
"460 658 OFFCURVE",
"460 580 CURVE SMOOTH",
"460 502 OFFCURVE",
"398 440 OFFCURVE",
"320 440 CURVE SMOOTH",
"280 440 LINE SMOOTH",
"158 440 OFFCURVE",
"60 342 OFFCURVE",
"60 220 CURVE SMOOTH"
);
}
);
width = 600;
},
{
layerId = "0F8A7298-526A-4D73-8A76-82A4C1EFD640";
paths = (
{
closed = 1;
nodes = (
"60 98 OFFCURVE",
"158 0 OFFCURVE",
"280 0 CURVE SMOOTH",
"540 0 LINE",
"540 80 LINE",
"280 80 LINE SMOOTH",
"202 80 OFFCURVE",
"140 142 OFFCURVE",
"140 220 CURVE SMOOTH",
"140 298 OFFCURVE",
"202 360 OFFCURVE",
"280 360 CURVE SMOOTH",
"320 360 LINE SMOOTH",
"442 360 OFFCURVE",
"540 458 OFFCURVE",
"540 580 CURVE SMOOTH",
"540 702 OFFCURVE",
"442 800 OFFCURVE",
"320 800 CURVE SMOOTH",
"60 800 LINE",
"60 720 LINE",
"320 720 LINE SMOOTH",
"398 720 OFFCURVE",
"460 658 OFFCURVE",
"460 580 CURVE SMOOTH",
"460 502 OFFCURVE",
"398 440 OFFCURVE",
"320 440 CURVE SMOOTH",
"280 440 LINE SMOOTH",
"158 440 OFFCURVE",
"60 342 OFFCURVE",
"60 220 CURVE SMOOTH"
);
}
);
width = 600;
}
);
unicode = 0032;
},
{
glyphname = three;
lastChange = "2022-10-03 19:24:53 +0000";
layers = (
{
layerId = "56B7CB81-CC11-4115-9FB5-EB39306C4A9F";
paths = (
{
closed = 1;
nodes = (
"280 0 LINE SMOOTH",
"402 0 OFFCURVE",
"500 98 OFFCURVE",
"500 220 CURVE SMOOTH",
"500 295 OFFCURVE",
"463 360 OFFCURVE",
"407 400 CURVE",
"463 440 OFFCURVE",
"500 505 OFFCURVE",
"500 580 CURVE SMOOTH",
"500 702 OFFCURVE",
"402 800 OFFCURVE",
"280 800 CURVE SMOOTH",
"60 800 LINE",
"60 720 LINE",
"280 720 LINE SMOOTH",
"358 720 OFFCURVE",
"420 658 OFFCURVE",
"420 580 CURVE SMOOTH",
"420 502 OFFCURVE",
"358 440 OFFCURVE",
"280 440 CURVE SMOOTH",
"200 440 LINE",
"200 360 LINE",
"280 360 LINE SMOOTH",
"358 360 OFFCURVE",
"420 298 OFFCURVE",
"420 220 CURVE SMOOTH",
"420 142 OFFCURVE",
"358 80 OFFCURVE",
"280 80 CURVE SMOOTH",
"60 80 LINE",
"60 0 LINE"
);
}
);
width = 560;
},
{
layerId = "0F8A7298-526A-4D73-8A76-82A4C1EFD640";
paths = (
{
closed = 1;
nodes = (
"280 0 LINE SMOOTH",
"402 0 OFFCURVE",
"500 98 OFFCURVE",
"500 220 CURVE SMOOTH",
"500 295 OFFCURVE",
"463 360 OFFCURVE",
"407 400 CURVE",
"463 440 OFFCURVE",
"500 505 OFFCURVE",
"500 580 CURVE SMOOTH",
"500 702 OFFCURVE",
"402 800 OFFCURVE",
"280 800 CURVE SMOOTH",
"60 800 LINE",
"60 720 LINE",
"280 720 LINE SMOOTH",
"358 720 OFFCURVE",
"420 658 OFFCURVE",
"420 580 CURVE SMOOTH",
"420 502 OFFCURVE",
"358 440 OFFCURVE",
"280 440 CURVE SMOOTH",
"200 440 LINE",
"200 360 LINE",
"280 360 LINE SMOOTH",
"358 360 OFFCURVE",
"420 298 OFFCURVE",
"420 220 CURVE SMOOTH",
"420 142 OFFCURVE",
"358 80 OFFCURVE",
"280 80 CURVE SMOOTH",
"60 80 LINE",
"60 0 LINE"
);
}
);
width = 560;
}
);
unicode = 0033;
},
{
glyphname = four;
lastChange = "2022-10-03 19:24:53 +0000";
layers = (
{
layerId = "56B7CB81-CC11-4115-9FB5-EB39306C4A9F";
paths = (
{
closed = 1;
nodes = (
"383 190 LINE",
"383 0 LINE",
"463 0 LINE",
"463 190 LINE",
"578 190 LINE",
"578 270 LINE",
"463 270 LINE",
"463 800 LINE",
"383 800 LINE SMOOTH",
"338 800 OFFCURVE",
"288 790 OFFCURVE",
"271 755 CURVE SMOOTH",
"30 270 LINE",
"30 190 LINE"
);
},
{
closed = 1;
nodes = (
"327 697 LINE SMOOTH",
"335 713 OFFCURVE",
"361 720 OFFCURVE",
"383 720 CURVE",
"383 270 LINE",
"110 270 LINE"
);
}
);
width = 608;
},
{
layerId = "0F8A7298-526A-4D73-8A76-82A4C1EFD640";
paths = (
{
closed = 1;
nodes = (
"383 190 LINE",
"383 0 LINE",
"463 0 LINE",
"463 190 LINE",
"578 190 LINE",
"578 270 LINE",
"463 270 LINE",
"463 800 LINE",
"383 800 LINE SMOOTH",
"338 800 OFFCURVE",
"288 790 OFFCURVE",
"271 755 CURVE SMOOTH",
"30 270 LINE",
"30 190 LINE"
);
},
{
closed = 1;
nodes = (
"327 697 LINE SMOOTH",
"335 713 OFFCURVE",
"361 720 OFFCURVE",
"383 720 CURVE",
"383 270 LINE",
"110 270 LINE"
);
}
);
width = 608;
}
);
unicode = 0034;
},
{
glyphname = five;
lastChange = "2022-10-03 19:24:53 +0000";
layers = (
{
layerId = "56B7CB81-CC11-4115-9FB5-EB39306C4A9F";
paths = (
{
closed = 1;
nodes = (
"540 342 OFFCURVE",
"442 440 OFFCURVE",
"320 440 CURVE SMOOTH",
"280 440 LINE SMOOTH",
"202 440 OFFCURVE",
"140 502 OFFCURVE",
"140 580 CURVE SMOOTH",
"140 658 OFFCURVE",
"202 720 OFFCURVE",
"280 720 CURVE SMOOTH",
"540 720 LINE",
"540 800 LINE",
"280 800 LINE SMOOTH",
"158 800 OFFCURVE",
"60 702 OFFCURVE",
"60 580 CURVE SMOOTH",
"60 458 OFFCURVE",
"158 360 OFFCURVE",
"280 360 CURVE SMOOTH",
"320 360 LINE SMOOTH",
"398 360 OFFCURVE",
"460 298 OFFCURVE",
"460 220 CURVE SMOOTH",
"460 142 OFFCURVE",
"398 80 OFFCURVE",
"320 80 CURVE SMOOTH",
"60 80 LINE",
"60 0 LINE",
"320 0 LINE SMOOTH",
"442 0 OFFCURVE",
"540 98 OFFCURVE",
"540 220 CURVE SMOOTH"
);
}
);
width = 600;
},
{
layerId = "0F8A7298-526A-4D73-8A76-82A4C1EFD640";
paths = (
{
closed = 1;
nodes = (
"540 342 OFFCURVE",
"442 440 OFFCURVE",
"320 440 CURVE SMOOTH",
"280 440 LINE SMOOTH",
"202 440 OFFCURVE",
"140 502 OFFCURVE",
"140 580 CURVE SMOOTH",
"140 658 OFFCURVE",
"202 720 OFFCURVE",
"280 720 CURVE SMOOTH",
"540 720 LINE",
"540 800 LINE",
"280 800 LINE SMOOTH",
"158 800 OFFCURVE",
"60 702 OFFCURVE",
"60 580 CURVE SMOOTH",
"60 458 OFFCURVE",
"158 360 OFFCURVE",
"280 360 CURVE SMOOTH",
"320 360 LINE SMOOTH",
"398 360 OFFCURVE",
"460 298 OFFCURVE",
"460 220 CURVE SMOOTH",
"460 142 OFFCURVE",
"398 80 OFFCURVE",
"320 80 CURVE SMOOTH",
"60 80 LINE",
"60 0 LINE",
"320 0 LINE SMOOTH",
"442 0 OFFCURVE",
"540 98 OFFCURVE",
"540 220 CURVE SMOOTH"
);
}
);
width = 600;
}
);
unicode = 0035;
},
{
glyphname = six;
lastChange = "2022-10-03 19:24:53 +0000";
layers = (
{
layerId = "56B7CB81-CC11-4115-9FB5-EB39306C4A9F";
paths = (
{
closed = 1;
nodes = (
"60 87 OFFCURVE",
"167 -20 OFFCURVE",
"300 -20 CURVE SMOOTH",
"433 -20 OFFCURVE",
"540 87 OFFCURVE",
"540 220 CURVE SMOOTH",
"540 280 LINE SMOOTH",
"540 413 OFFCURVE",
"433 520 OFFCURVE",
"300 520 CURVE SMOOTH",
"238 520 OFFCURVE",
"182 497 OFFCURVE",
"140 459 CURVE",
"140 580 LINE SMOOTH",
"140 669 OFFCURVE",
"211 740 OFFCURVE",
"300 740 CURVE SMOOTH",
"389 740 OFFCURVE",
"461 669 OFFCURVE",
"460 580 CURVE",
"540 580 LINE",
"540 713 OFFCURVE",
"433 820 OFFCURVE",
"300 820 CURVE SMOOTH",
"167 820 OFFCURVE",
"60 713 OFFCURVE",
"60 580 CURVE SMOOTH",
"60 220 LINE SMOOTH"
);
},
{
closed = 1;
nodes = (
"140 280 LINE SMOOTH",
"140 369 OFFCURVE",
"211 440 OFFCURVE",
"300 440 CURVE SMOOTH",
"389 440 OFFCURVE",
"460 369 OFFCURVE",
"460 280 CURVE SMOOTH",
"460 220 LINE SMOOTH",
"461 131 OFFCURVE",
"389 60 OFFCURVE",
"300 60 CURVE SMOOTH",
"211 60 OFFCURVE",
"140 131 OFFCURVE",
"140 220 CURVE SMOOTH"
);
}
);
width = 600;
},
{
layerId = "0F8A7298-526A-4D73-8A76-82A4C1EFD640";
paths = (
{
closed = 1;
nodes = (
"60 87 OFFCURVE",
"167 -20 OFFCURVE",
"300 -20 CURVE SMOOTH",
"433 -20 OFFCURVE",
"540 87 OFFCURVE",
"540 220 CURVE SMOOTH",
"540 280 LINE SMOOTH",
"540 413 OFFCURVE",
"433 520 OFFCURVE",
"300 520 CURVE SMOOTH",
"238 520 OFFCURVE",
"182 497 OFFCURVE",
"140 459 CURVE",
"140 580 LINE SMOOTH",
"140 669 OFFCURVE",
"211 740 OFFCURVE",
"300 740 CURVE SMOOTH",
"389 740 OFFCURVE",
"461 669 OFFCURVE",
"460 580 CURVE",
"540 580 LINE",
"540 713 OFFCURVE",
"433 820 OFFCURVE",
"300 820 CURVE SMOOTH",
"167 820 OFFCURVE",
"60 713 OFFCURVE",
"60 580 CURVE SMOOTH",
"60 220 LINE SMOOTH"
);
},
{
closed = 1;
nodes = (
"140 280 LINE SMOOTH",
"140 369 OFFCURVE",
"211 440 OFFCURVE",
"300 440 CURVE SMOOTH",
"389 440 OFFCURVE",
"460 369 OFFCURVE",
"460 280 CURVE SMOOTH",
"460 220 LINE SMOOTH",
"461 131 OFFCURVE",
"389 60 OFFCURVE",
"300 60 CURVE SMOOTH",
"211 60 OFFCURVE",
"140 131 OFFCURVE",
"140 220 CURVE SMOOTH"
);
}
);
width = 600;
}
);
unicode = 0036;
},
{
glyphname = seven;
lastChange = "2022-10-08 03:12:13 +0000";
layers = (
{
layerId = "56B7CB81-CC11-4115-9FB5-EB39306C4A9F";
paths = (
{
closed = 1;
nodes = (
"240 720 LINE SMOOTH",
"329 720 OFFCURVE",
"400 649 OFFCURVE",
"400 560 CURVE SMOOTH",
"400 0 LINE",
"480 0 LINE",
"480 560 LINE SMOOTH",
"480 693 OFFCURVE",
"373 800 OFFCURVE",
"240 800 CURVE SMOOTH",
"60 800 LINE",
"60 720 LINE"
);
}
);
width = 540;
},
{
layerId = "0F8A7298-526A-4D73-8A76-82A4C1EFD640";
paths = (
{
closed = 1;
nodes = (
"240 720 LINE SMOOTH",
"329 720 OFFCURVE",
"400 649 OFFCURVE",
"400 560 CURVE SMOOTH",
"400 0 LINE",
"480 0 LINE",
"480 560 LINE SMOOTH",
"480 693 OFFCURVE",
"373 800 OFFCURVE",
"240 800 CURVE SMOOTH",
"60 800 LINE",
"60 720 LINE"
);
}
);
width = 540;
}
);
unicode = 0037;
},
{
glyphname = eight;
lastChange = "2022-10-05 22:14:34 +0000";
layers = (
{
layerId = "56B7CB81-CC11-4115-9FB5-EB39306C4A9F";
paths = (
{
closed = 1;
nodes = (
"60 87 OFFCURVE",
"167 -20 OFFCURVE",
"300 -20 CURVE SMOOTH",
"433 -20 OFFCURVE",
"540 87 OFFCURVE",
"540 220 CURVE SMOOTH",
"540 280 LINE SMOOTH",
"540 368 OFFCURVE",
"494 444 OFFCURVE",
"424 486 CURVE",
"464 521 OFFCURVE",
"490 572 OFFCURVE",
"490 630 CURVE SMOOTH",
"490 735 OFFCURVE",
"405 820 OFFCURVE",
"300 820 CURVE SMOOTH",
"195 820 OFFCURVE",
"110 735 OFFCURVE",
"110 630 CURVE SMOOTH",
"110 572 OFFCURVE",
"136 521 OFFCURVE",
"176 486 CURVE",
"106 444 OFFCURVE",
"60 368 OFFCURVE",
"60 280 CURVE SMOOTH",
"60 220 LINE SMOOTH"
);
},
{
closed = 1;
nodes = (
"140 280 LINE SMOOTH",
"140 369 OFFCURVE",
"211 440 OFFCURVE",
"300 440 CURVE SMOOTH",
"389 440 OFFCURVE",
"460 370 OFFCURVE",
"460 280 CURVE SMOOTH",
"460 220 LINE SMOOTH",
"460 130 OFFCURVE",
"389 60 OFFCURVE",
"300 60 CURVE SMOOTH",
"211 60 OFFCURVE",
"140 131 OFFCURVE",
"140 220 CURVE SMOOTH"
);
},
{
closed = 1;
nodes = (
"190 691 OFFCURVE",
"239 740 OFFCURVE",
"300 740 CURVE SMOOTH",
"361 740 OFFCURVE",
"410 691 OFFCURVE",
"410 630 CURVE SMOOTH",
"410 569 OFFCURVE",
"361 520 OFFCURVE",
"300 520 CURVE SMOOTH",
"239 520 OFFCURVE",
"190 569 OFFCURVE",
"190 630 CURVE SMOOTH"
);
}
);
width = 600;
},
{
layerId = "0F8A7298-526A-4D73-8A76-82A4C1EFD640";
paths = (
{
closed = 1;
nodes = (
"60 87 OFFCURVE",
"167 -20 OFFCURVE",
"300 -20 CURVE SMOOTH",
"433 -20 OFFCURVE",
"540 87 OFFCURVE",
"540 220 CURVE SMOOTH",
"540 260 LINE SMOOTH",
"540 347 OFFCURVE",
"494 423 OFFCURVE",
"426 465 CURVE",
"471 501 OFFCURVE",
"500 558 OFFCURVE",
"500 620 CURVE SMOOTH",
"500 730 OFFCURVE",
"410 820 OFFCURVE",
"300 820 CURVE SMOOTH",
"190 820 OFFCURVE",
"100 730 OFFCURVE",
"100 620 CURVE SMOOTH",
"100 558 OFFCURVE",
"129 501 OFFCURVE",
"174 465 CURVE",
"106 423 OFFCURVE",
"60 347 OFFCURVE",
"60 260 CURVE SMOOTH",
"60 220 LINE SMOOTH"
);
},
{
closed = 1;
nodes = (
"140 260 LINE SMOOTH",
"140 349 OFFCURVE",
"211 420 OFFCURVE",
"300 420 CURVE SMOOTH",
"389 420 OFFCURVE",
"460 349 OFFCURVE",
"460 260 CURVE SMOOTH",
"460 220 LINE SMOOTH",
"461 131 OFFCURVE",
"389 60 OFFCURVE",
"300 60 CURVE SMOOTH",
"211 60 OFFCURVE",
"140 131 OFFCURVE",
"140 220 CURVE SMOOTH"
);
},
{
closed = 1;
nodes = (
"180 686 OFFCURVE",
"234 740 OFFCURVE",
"300 740 CURVE SMOOTH",
"366 740 OFFCURVE",
"420 686 OFFCURVE",
"420 620 CURVE SMOOTH",
"420 554 OFFCURVE",
"366 500 OFFCURVE",
"300 500 CURVE SMOOTH",
"234 500 OFFCURVE",
"180 554 OFFCURVE",
"180 620 CURVE SMOOTH"
);
}
);
width = 600;
}
);
unicode = 0038;
},
{
glyphname = nine;
lastChange = "2022-10-03 19:24:53 +0000";
layers = (
{
layerId = "56B7CB81-CC11-4115-9FB5-EB39306C4A9F";
paths = (
{
closed = 1;
nodes = (
"540 713 OFFCURVE",
"433 820 OFFCURVE",
"300 820 CURVE SMOOTH",
"167 820 OFFCURVE",
"60 713 OFFCURVE",
"60 580 CURVE SMOOTH",
"60 520 LINE SMOOTH",
"60 387 OFFCURVE",
"167 280 OFFCURVE",
"300 280 CURVE SMOOTH",
"362 280 OFFCURVE",
"418 303 OFFCURVE",
"460 341 CURVE",
"460 220 LINE SMOOTH",
"460 131 OFFCURVE",
"389 60 OFFCURVE",
"300 60 CURVE SMOOTH",
"211 60 OFFCURVE",
"139 131 OFFCURVE",
"140 220 CURVE",
"60 220 LINE",
"60 87 OFFCURVE",
"167 -20 OFFCURVE",
"300 -20 CURVE SMOOTH",
"433 -20 OFFCURVE",
"540 87 OFFCURVE",
"540 220 CURVE SMOOTH",
"540 580 LINE SMOOTH"
);
},
{
closed = 1;
nodes = (
"460 520 LINE SMOOTH",
"460 431 OFFCURVE",
"389 360 OFFCURVE",
"300 360 CURVE SMOOTH",
"211 360 OFFCURVE",
"140 431 OFFCURVE",
"140 520 CURVE SMOOTH",
"140 580 LINE SMOOTH",
"139 669 OFFCURVE",
"211 740 OFFCURVE",
"300 740 CURVE SMOOTH",
"389 740 OFFCURVE",
"460 669 OFFCURVE",
"460 580 CURVE SMOOTH"
);
}
);
width = 600;
},
{
layerId = "0F8A7298-526A-4D73-8A76-82A4C1EFD640";
paths = (
{
closed = 1;
nodes = (
"540 713 OFFCURVE",
"433 820 OFFCURVE",
"300 820 CURVE SMOOTH",
"167 820 OFFCURVE",
"60 713 OFFCURVE",
"60 580 CURVE SMOOTH",
"60 520 LINE SMOOTH",
"60 387 OFFCURVE",
"167 280 OFFCURVE",
"300 280 CURVE SMOOTH",
"362 280 OFFCURVE",
"418 303 OFFCURVE",
"460 341 CURVE",
"460 220 LINE SMOOTH",
"460 131 OFFCURVE",
"389 60 OFFCURVE",
"300 60 CURVE SMOOTH",
"211 60 OFFCURVE",
"139 131 OFFCURVE",
"140 220 CURVE",
"60 220 LINE",
"60 87 OFFCURVE",
"167 -20 OFFCURVE",
"300 -20 CURVE SMOOTH",
"433 -20 OFFCURVE",
"540 87 OFFCURVE",
"540 220 CURVE SMOOTH",
"540 580 LINE SMOOTH"
);
},
{
closed = 1;
nodes = (
"460 520 LINE SMOOTH",
"460 431 OFFCURVE",
"389 360 OFFCURVE",
"300 360 CURVE SMOOTH",
"211 360 OFFCURVE",
"140 431 OFFCURVE",
"140 520 CURVE SMOOTH",
"140 580 LINE SMOOTH",
"139 669 OFFCURVE",
"211 740 OFFCURVE",
"300 740 CURVE SMOOTH",
"389 740 OFFCURVE",
"460 669 OFFCURVE",
"460 580 CURVE SMOOTH"
);
}
);
width = 600;
}
);
unicode = 0039;
},
{
glyphname = period;
lastChange = "2022-10-03 19:24:53 +0000";
layers = (
{
layerId = "56B7CB81-CC11-4115-9FB5-EB39306C4A9F";
paths = (
{
closed = 1;
nodes = (
"80 160 LINE",
"80 0 LINE",
"180 0 LINE",
"180 160 LINE"
);
}
);
width = 260;
},
{
layerId = "0F8A7298-526A-4D73-8A76-82A4C1EFD640";
paths = (
{
closed = 1;
nodes = (
"80 160 LINE",
"80 0 LINE",
"180 0 LINE",
"180 160 LINE"
);
}
);
width = 260;
}
);
unicode = 002E;
},
{
glyphname = comma;
lastChange = "2022-10-03 19:24:53 +0000";
layers = (
{
layerId = "56B7CB81-CC11-4115-9FB5-EB39306C4A9F";
paths = (
{
closed = 1;
nodes = (
"130 0 LINE",
"130 -100 LINE",
"180 -100 LINE",
"180 160 LINE",
"80 160 LINE",
"80 0 LINE"
);
}
);
width = 260;
},
{
layerId = "0F8A7298-526A-4D73-8A76-82A4C1EFD640";
paths = (
{
closed = 1;
nodes = (
"130 0 LINE",
"130 -100 LINE",
"180 -100 LINE",
"180 160 LINE",
"80 160 LINE",
"80 0 LINE"
);
}
);
width = 260;
}
);
unicode = 002C;
},
{
glyphname = colon;
lastChange = "2022-10-03 19:24:53 +0000";
layers = (
{
layerId = "56B7CB81-CC11-4115-9FB5-EB39306C4A9F";
paths = (
{
closed = 1;
nodes = (
"80 160 LINE",
"80 0 LINE",
"180 0 LINE",
"180 160 LINE"
);
},
{
closed = 1;
nodes = (
"80 560 LINE",
"80 400 LINE",
"180 400 LINE",
"180 560 LINE"
);
}
);
width = 260;
},
{
layerId = "0F8A7298-526A-4D73-8A76-82A4C1EFD640";
paths = (
{
closed = 1;
nodes = (
"80 160 LINE",
"80 0 LINE",
"180 0 LINE",
"180 160 LINE"
);
},
{
closed = 1;
nodes = (
"80 560 LINE",
"80 400 LINE",
"180 400 LINE",
"180 560 LINE"
);
}
);
width = 260;
}
);
unicode = 003A;
},
{
glyphname = semicolon;
lastChange = "2022-10-03 19:24:53 +0000";
layers = (
{
layerId = "56B7CB81-CC11-4115-9FB5-EB39306C4A9F";
paths = (
{
closed = 1;
nodes = (
"80 560 LINE",
"80 400 LINE",
"180 400 LINE",
"180 560 LINE"
);
},
{
closed = 1;
nodes = (
"130 0 LINE",
"130 -100 LINE",
"180 -100 LINE",
"180 160 LINE",
"80 160 LINE",
"80 0 LINE"
);
}
);
width = 260;
},
{
layerId = "0F8A7298-526A-4D73-8A76-82A4C1EFD640";
paths = (
{
closed = 1;
nodes = (
"80 560 LINE",
"80 400 LINE",
"180 400 LINE",
"180 560 LINE"
);
},
{
closed = 1;
nodes = (
"130 0 LINE",
"130 -100 LINE",
"180 -100 LINE",
"180 160 LINE",
"80 160 LINE",
"80 0 LINE"
);
}
);
width = 260;
}
);
unicode = 003B;
},
{
glyphname = exclam;
lastChange = "2022-10-07 20:39:09 +0000";
layers = (
{
layerId = "56B7CB81-CC11-4115-9FB5-EB39306C4A9F";
paths = (
{
closed = 1;
nodes = (
"170 800 LINE",
"90 800 LINE",
"90 260 LINE",
"170 260 LINE"
);
},
{
closed = 1;
nodes = (
"180 160 LINE",
"80 160 LINE",
"80 0 LINE",
"180 0 LINE"
);
}
);
width = 260;
},
{
layerId = "0F8A7298-526A-4D73-8A76-82A4C1EFD640";
paths = (
{
closed = 1;
nodes = (
"170 800 LINE",
"90 800 LINE",
"90 260 LINE",
"170 260 LINE"
);
},
{
closed = 1;
nodes = (
"180 160 LINE",
"80 160 LINE",
"80 0 LINE",
"180 0 LINE"
);
}
);
width = 260;
}
);
unicode = 0021;
},
{
glyphname = exclamdown;
lastChange = "2022-10-07 20:39:25 +0000";
layers = (
{
layerId = "56B7CB81-CC11-4115-9FB5-EB39306C4A9F";
paths = (
{
closed = 1;
nodes = (
"90 410 LINE",
"90 -130 LINE",
"170 -130 LINE",
"170 410 LINE"
);
},
{
closed = 1;
nodes = (
"80 670 LINE",
"80 510 LINE",
"180 510 LINE",
"180 670 LINE"
);
}
);
width = 260;
},
{
layerId = "0F8A7298-526A-4D73-8A76-82A4C1EFD640";
paths = (
{
closed = 1;
nodes = (
"90 410 LINE",
"90 -130 LINE",
"170 -130 LINE",
"170 410 LINE"
);
},
{
closed = 1;
nodes = (
"80 670 LINE",
"80 510 LINE",
"180 510 LINE",
"180 670 LINE"
);
}
);
width = 260;
}
);
unicode = 00A1;
},
{
glyphname = question;
lastChange = "2022-10-08 01:36:55 +0000";
layers = (
{
layerId = "56B7CB81-CC11-4115-9FB5-EB39306C4A9F";
paths = (
{
closed = 1;
nodes = (
"340 0 LINE",
"340 160 LINE",
"240 160 LINE",
"240 0 LINE"
);
},
{
closed = 1;
nodes = (
"60 329 OFFCURVE",
"129 260 OFFCURVE",
"215 260 CURVE SMOOTH",
"520 260 LINE",
"520 340 LINE",
"215 340 LINE SMOOTH",
"173 340 OFFCURVE",
"140 373 OFFCURVE",
"140 415 CURVE SMOOTH",
"140 457 OFFCURVE",
"173 490 OFFCURVE",
"215 490 CURVE SMOOTH",
"365 490 LINE SMOOTH",
"451 490 OFFCURVE",
"520 559 OFFCURVE",
"520 645 CURVE SMOOTH",
"520 731 OFFCURVE",
"451 800 OFFCURVE",
"365 800 CURVE SMOOTH",
"60 800 LINE",
"60 720 LINE",
"365 720 LINE SMOOTH",
"407 720 OFFCURVE",
"440 687 OFFCURVE",
"440 645 CURVE SMOOTH",
"440 603 OFFCURVE",
"407 570 OFFCURVE",
"365 570 CURVE SMOOTH",
"215 570 LINE SMOOTH",
"129 570 OFFCURVE",
"60 501 OFFCURVE",
"60 415 CURVE SMOOTH"
);
}
);
width = 580;
},
{
layerId = "0F8A7298-526A-4D73-8A76-82A4C1EFD640";
paths = (
{
closed = 1;
nodes = (
"340 0 LINE",
"340 160 LINE",
"240 160 LINE",
"240 0 LINE"
);
},
{
closed = 1;
nodes = (
"60 329 OFFCURVE",
"129 260 OFFCURVE",
"215 260 CURVE SMOOTH",
"520 260 LINE",
"520 340 LINE",
"215 340 LINE SMOOTH",
"173 340 OFFCURVE",
"140 373 OFFCURVE",
"140 415 CURVE SMOOTH",
"140 457 OFFCURVE",
"173 490 OFFCURVE",
"215 490 CURVE SMOOTH",
"365 490 LINE SMOOTH",
"451 490 OFFCURVE",
"520 559 OFFCURVE",
"520 645 CURVE SMOOTH",
"520 731 OFFCURVE",
"451 800 OFFCURVE",
"365 800 CURVE SMOOTH",
"60 800 LINE",
"60 720 LINE",
"365 720 LINE SMOOTH",
"407 720 OFFCURVE",
"440 687 OFFCURVE",
"440 645 CURVE SMOOTH",
"440 603 OFFCURVE",
"407 570 OFFCURVE",
"365 570 CURVE SMOOTH",
"215 570 LINE SMOOTH",
"129 570 OFFCURVE",
"60 501 OFFCURVE",
"60 415 CURVE SMOOTH"
);
}
);
width = 580;
}
);
unicode = 003F;
},
{
glyphname = questiondown;
lastChange = "2022-10-08 01:38:17 +0000";
layers = (
{
layerId = "56B7CB81-CC11-4115-9FB5-EB39306C4A9F";
paths = (
{
closed = 1;
nodes = (
"240 670 LINE",
"240 510 LINE",
"340 510 LINE",
"340 670 LINE"
);
},
{
closed = 1;
nodes = (
"520 341 OFFCURVE",
"451 410 OFFCURVE",
"365 410 CURVE SMOOTH",
"60 410 LINE",
"60 330 LINE",
"365 330 LINE SMOOTH",
"407 330 OFFCURVE",
"440 297 OFFCURVE",
"440 255 CURVE SMOOTH",
"440 213 OFFCURVE",
"407 180 OFFCURVE",
"365 180 CURVE SMOOTH",
"215 180 LINE SMOOTH",
"129 180 OFFCURVE",
"60 111 OFFCURVE",
"60 25 CURVE SMOOTH",
"60 -61 OFFCURVE",
"129 -130 OFFCURVE",
"215 -130 CURVE SMOOTH",
"520 -130 LINE",
"520 -50 LINE",
"215 -50 LINE SMOOTH",
"173 -50 OFFCURVE",
"140 -17 OFFCURVE",
"140 25 CURVE SMOOTH",
"140 67 OFFCURVE",
"173 100 OFFCURVE",
"215 100 CURVE SMOOTH",
"365 100 LINE SMOOTH",
"451 100 OFFCURVE",
"520 169 OFFCURVE",
"520 255 CURVE SMOOTH"
);
}
);
width = 580;
},
{
layerId = "0F8A7298-526A-4D73-8A76-82A4C1EFD640";
paths = (
{
closed = 1;
nodes = (
"240 670 LINE",
"240 510 LINE",
"340 510 LINE",
"340 670 LINE"
);
},
{
closed = 1;
nodes = (
"520 341 OFFCURVE",
"451 410 OFFCURVE",
"365 410 CURVE SMOOTH",
"60 410 LINE",
"60 330 LINE",
"365 330 LINE SMOOTH",
"407 330 OFFCURVE",
"440 297 OFFCURVE",
"440 255 CURVE SMOOTH",
"440 213 OFFCURVE",
"407 180 OFFCURVE",
"365 180 CURVE SMOOTH",
"215 180 LINE SMOOTH",
"129 180 OFFCURVE",
"60 111 OFFCURVE",
"60 25 CURVE SMOOTH",
"60 -61 OFFCURVE",
"129 -130 OFFCURVE",
"215 -130 CURVE SMOOTH",
"520 -130 LINE",
"520 -50 LINE",
"215 -50 LINE SMOOTH",
"173 -50 OFFCURVE",
"140 -17 OFFCURVE",
"140 25 CURVE SMOOTH",
"140 67 OFFCURVE",
"173 100 OFFCURVE",
"215 100 CURVE SMOOTH",
"365 100 LINE SMOOTH",
"451 100 OFFCURVE",
"520 169 OFFCURVE",
"520 255 CURVE SMOOTH"
);
}
);
width = 580;
}
);
unicode = 00BF;
},
{
glyphname = periodcentered;
lastChange = "2022-10-03 19:24:53 +0000";
layers = (
{
layerId = "56B7CB81-CC11-4115-9FB5-EB39306C4A9F";
paths = (
{
closed = 1;
nodes = (
"80 460 LINE",
"80 300 LINE",
"180 300 LINE",
"180 460 LINE"
);
}
);
width = 260;
},
{
layerId = "0F8A7298-526A-4D73-8A76-82A4C1EFD640";
paths = (
{
closed = 1;
nodes = (
"80 460 LINE",
"80 300 LINE",
"180 300 LINE",
"180 460 LINE"
);
}
);
width = 260;
}
);
unicode = 00B7;
},
{
glyphname = bullet;
lastChange = "2022-10-03 19:24:53 +0000";
layers = (
{
layerId = "56B7CB81-CC11-4115-9FB5-EB39306C4A9F";
paths = (
{
closed = 1;
nodes = (
"80 500 LINE",
"80 260 LINE",
"230 260 LINE",
"230 500 LINE"
);
}
);
width = 310;
},
{
layerId = "0F8A7298-526A-4D73-8A76-82A4C1EFD640";
paths = (
{
closed = 1;
nodes = (
"80 500 LINE",
"80 260 LINE",
"230 260 LINE",
"230 500 LINE"
);
}
);
width = 310;
}
);
unicode = 2022;
},
{
glyphname = asterisk;
lastChange = "2022-10-03 19:24:53 +0000";
layers = (
{
layerId = "56B7CB81-CC11-4115-9FB5-EB39306C4A9F";
paths = (
{
closed = 1;
nodes = (
"110 482 LINE",
"248 562 LINE",
"305 617 LINE",
"286 540 LINE",
"286 380 LINE",
"386 380 LINE",
"386 540 LINE",
"367 617 LINE",
"424 562 LINE",
"562 482 LINE",
"612 568 LINE",
"474 648 LINE",
"398 670 LINE",
"473 692 LINE",
"612 772 LINE",
"562 858 LINE",
"423 778 LINE",
"367 724 LINE",
"386 800 LINE",
"386 960 LINE",
"286 960 LINE",
"286 800 LINE",
"305 724 LINE",
"249 778 LINE",
"110 858 LINE",
"60 772 LINE",
"199 692 LINE",
"274 670 LINE",
"198 648 LINE",
"60 568 LINE"
);
}
);
width = 672;
},
{
layerId = "0F8A7298-526A-4D73-8A76-82A4C1EFD640";
paths = (
{
closed = 1;
nodes = (
"110 482 LINE",
"248 562 LINE",
"305 617 LINE",
"286 540 LINE",
"286 380 LINE",
"386 380 LINE",
"386 540 LINE",
"367 617 LINE",
"424 562 LINE",
"562 482 LINE",
"612 568 LINE",
"474 648 LINE",
"398 670 LINE",
"473 692 LINE",
"612 772 LINE",
"562 858 LINE",
"423 778 LINE",
"367 724 LINE",
"386 800 LINE",
"386 960 LINE",
"286 960 LINE",
"286 800 LINE",
"305 724 LINE",
"249 778 LINE",
"110 858 LINE",
"60 772 LINE",
"199 692 LINE",
"274 670 LINE",
"198 648 LINE",
"60 568 LINE"
);
}
);
width = 672;
}
);
unicode = 002A;
},
{
glyphname = numbersign;
lastChange = "2022-10-03 19:24:53 +0000";
layers = (
{
layerId = "56B7CB81-CC11-4115-9FB5-EB39306C4A9F";
paths = (
{
closed = 1;
nodes = (
"190 260 LINE",
"190 0 LINE",
"270 0 LINE",
"270 260 LINE",
"410 260 LINE",
"410 0 LINE",
"490 0 LINE",
"490 260 LINE",
"620 260 LINE",
"620 340 LINE",
"490 340 LINE",
"490 480 LINE",
"620 480 LINE",
"620 560 LINE",
"490 560 LINE",
"490 800 LINE",
"410 800 LINE",
"410 560 LINE",
"270 560 LINE",
"270 800 LINE",
"190 800 LINE",
"190 560 LINE",
"60 560 LINE",
"60 480 LINE",
"190 480 LINE",
"190 340 LINE",
"60 340 LINE",
"60 260 LINE"
);
},
{
closed = 1;
nodes = (
"270 480 LINE",
"410 480 LINE",
"410 340 LINE",
"270 340 LINE"
);
}
);
width = 680;
},
{
layerId = "0F8A7298-526A-4D73-8A76-82A4C1EFD640";
paths = (
{
closed = 1;
nodes = (
"190 260 LINE",
"190 0 LINE",
"270 0 LINE",
"270 260 LINE",
"410 260 LINE",
"410 0 LINE",
"490 0 LINE",
"490 260 LINE",
"620 260 LINE",
"620 340 LINE",
"490 340 LINE",
"490 480 LINE",
"620 480 LINE",
"620 560 LINE",
"490 560 LINE",
"490 800 LINE",
"410 800 LINE",
"410 560 LINE",
"270 560 LINE",
"270 800 LINE",
"190 800 LINE",
"190 560 LINE",
"60 560 LINE",
"60 480 LINE",
"190 480 LINE",
"190 340 LINE",
"60 340 LINE",
"60 260 LINE"
);
},
{
closed = 1;
nodes = (
"270 480 LINE",
"410 480 LINE",
"410 340 LINE",
"270 340 LINE"
);
}
);
width = 680;
}
);
unicode = 0023;
},
{
glyphname = slash;
lastChange = "2022-10-07 16:40:41 +0000";
layers = (
{
layerId = "56B7CB81-CC11-4115-9FB5-EB39306C4A9F";
paths = (
{
closed = 1;
nodes = (
"444 894 LINE",
"81 -102 LINE",
"157 -130 LINE",
"519 866 LINE"
);
}
);
width = 600;
},
{
layerId = "0F8A7298-526A-4D73-8A76-82A4C1EFD640";
paths = (
{
closed = 1;
nodes = (
"444 894 LINE",
"81 -102 LINE",
"157 -130 LINE",
"519 866 LINE"
);
}
);
width = 600;
}
);
unicode = 002F;
},
{
glyphname = backslash;
lastChange = "2022-10-07 16:41:12 +0000";
layers = (
{
layerId = "56B7CB81-CC11-4115-9FB5-EB39306C4A9F";
paths = (
{
closed = 1;
nodes = (
"443 -130 LINE",
"519 -102 LINE",
"156 894 LINE",
"81 866 LINE"
);
}
);
width = 600;
},
{
layerId = "0F8A7298-526A-4D73-8A76-82A4C1EFD640";
paths = (
{
closed = 1;
nodes = (
"443 -130 LINE",
"519 -102 LINE",
"156 894 LINE",
"81 866 LINE"
);
}
);
width = 600;
}
);
unicode = 005C;
},
{
glyphname = parenleft;
lastChange = "2022-10-06 22:08:48 +0000";
layers = (
{
layerId = "56B7CB81-CC11-4115-9FB5-EB39306C4A9F";
paths = (
{
closed = 1;
nodes = (
"80 -23 OFFCURVE",
"187 -130 OFFCURVE",
"320 -130 CURVE",
"320 -50 LINE",
"231 -50 OFFCURVE",
"160 21 OFFCURVE",
"160 110 CURVE SMOOTH",
"160 690 LINE SMOOTH",
"160 779 OFFCURVE",
"231 850 OFFCURVE",
"320 850 CURVE",
"320 930 LINE",
"187 930 OFFCURVE",
"80 823 OFFCURVE",
"80 690 CURVE SMOOTH",
"80 110 LINE SMOOTH"
);
}
);
width = 400;
},
{
layerId = "0F8A7298-526A-4D73-8A76-82A4C1EFD640";
paths = (
{
closed = 1;
nodes = (
"80 -23 OFFCURVE",
"187 -130 OFFCURVE",
"320 -130 CURVE",
"320 -50 LINE",
"231 -50 OFFCURVE",
"160 21 OFFCURVE",
"160 110 CURVE SMOOTH",
"160 690 LINE SMOOTH",
"160 779 OFFCURVE",
"231 850 OFFCURVE",
"320 850 CURVE",
"320 930 LINE",
"187 930 OFFCURVE",
"80 823 OFFCURVE",
"80 690 CURVE SMOOTH",
"80 110 LINE SMOOTH"
);
}
);
width = 400;
}
);
unicode = 0028;
},
{
glyphname = parenright;
lastChange = "2022-10-06 22:09:33 +0000";
layers = (
{
layerId = "56B7CB81-CC11-4115-9FB5-EB39306C4A9F";
paths = (
{
closed = 1;
nodes = (
"320 690 LINE SMOOTH",
"320 823 OFFCURVE",
"213 930 OFFCURVE",
"80 930 CURVE",
"80 850 LINE",
"169 850 OFFCURVE",
"240 779 OFFCURVE",
"240 690 CURVE SMOOTH",
"240 110 LINE SMOOTH",
"240 21 OFFCURVE",
"169 -50 OFFCURVE",
"80 -50 CURVE",
"80 -130 LINE",
"213 -130 OFFCURVE",
"320 -23 OFFCURVE",
"320 110 CURVE SMOOTH"
);
}
);
width = 400;
},
{
layerId = "0F8A7298-526A-4D73-8A76-82A4C1EFD640";
paths = (
{
closed = 1;
nodes = (
"320 690 LINE SMOOTH",
"320 823 OFFCURVE",
"213 930 OFFCURVE",
"80 930 CURVE",
"80 850 LINE",
"169 850 OFFCURVE",
"240 779 OFFCURVE",
"240 690 CURVE SMOOTH",
"240 110 LINE SMOOTH",
"240 21 OFFCURVE",
"169 -50 OFFCURVE",
"80 -50 CURVE",
"80 -130 LINE",
"213 -130 OFFCURVE",
"320 -23 OFFCURVE",
"320 110 CURVE SMOOTH"
);
}
);
width = 400;
}
);
unicode = 0029;
},
{
glyphname = braceleft;
lastChange = "2022-10-06 22:10:08 +0000";
layers = (
{
layerId = "56B7CB81-CC11-4115-9FB5-EB39306C4A9F";
paths = (
{
closed = 1;
nodes = (
"124 360 OFFCURVE",
"160 324 OFFCURVE",
"160 280 CURVE SMOOTH",
"160 110 LINE SMOOTH",
"160 -23 OFFCURVE",
"267 -130 OFFCURVE",
"400 -130 CURVE",
"400 -50 LINE",
"311 -50 OFFCURVE",
"240 21 OFFCURVE",
"240 110 CURVE SMOOTH",
"240 280 LINE SMOOTH",
"240 328 OFFCURVE",
"219 371 OFFCURVE",
"186 400 CURVE",
"219 429 OFFCURVE",
"240 472 OFFCURVE",
"240 520 CURVE SMOOTH",
"240 690 LINE SMOOTH",
"240 779 OFFCURVE",
"311 850 OFFCURVE",
"400 850 CURVE",
"400 930 LINE",
"267 930 OFFCURVE",
"160 823 OFFCURVE",
"160 690 CURVE SMOOTH",
"160 520 LINE SMOOTH",
"160 476 OFFCURVE",
"124 440 OFFCURVE",
"80 440 CURVE",
"80 360 LINE"
);
}
);
width = 480;
},
{
layerId = "0F8A7298-526A-4D73-8A76-82A4C1EFD640";
paths = (
{
closed = 1;
nodes = (
"124 360 OFFCURVE",
"160 324 OFFCURVE",
"160 280 CURVE SMOOTH",
"160 110 LINE SMOOTH",
"160 -23 OFFCURVE",
"267 -130 OFFCURVE",
"400 -130 CURVE",
"400 -50 LINE",
"311 -50 OFFCURVE",
"240 21 OFFCURVE",
"240 110 CURVE SMOOTH",
"240 280 LINE SMOOTH",
"240 328 OFFCURVE",
"219 371 OFFCURVE",
"186 400 CURVE",
"219 429 OFFCURVE",
"240 472 OFFCURVE",
"240 520 CURVE SMOOTH",
"240 690 LINE SMOOTH",
"240 779 OFFCURVE",
"311 850 OFFCURVE",
"400 850 CURVE",
"400 930 LINE",
"267 930 OFFCURVE",
"160 823 OFFCURVE",
"160 690 CURVE SMOOTH",
"160 520 LINE SMOOTH",
"160 476 OFFCURVE",
"124 440 OFFCURVE",
"80 440 CURVE",
"80 360 LINE"
);
}
);
width = 480;
}
);
unicode = 007B;
},
{
glyphname = braceright;
lastChange = "2022-10-07 00:38:46 +0000";
layers = (
{
layerId = "56B7CB81-CC11-4115-9FB5-EB39306C4A9F";
paths = (
{
closed = 1;
nodes = (
"400 440 LINE",
"356 440 OFFCURVE",
"320 476 OFFCURVE",
"320 520 CURVE SMOOTH",
"320 690 LINE SMOOTH",
"320 823 OFFCURVE",
"213 930 OFFCURVE",
"80 930 CURVE",
"80 850 LINE",
"169 850 OFFCURVE",
"240 779 OFFCURVE",
"240 690 CURVE SMOOTH",
"240 520 LINE SMOOTH",
"240 472 OFFCURVE",
"261 429 OFFCURVE",
"294 400 CURVE",
"261 371 OFFCURVE",
"240 328 OFFCURVE",
"240 280 CURVE SMOOTH",
"240 110 LINE SMOOTH",
"240 21 OFFCURVE",
"169 -50 OFFCURVE",
"80 -50 CURVE",
"80 -130 LINE",
"213 -130 OFFCURVE",
"320 -23 OFFCURVE",
"320 110 CURVE SMOOTH",
"320 280 LINE SMOOTH",
"320 324 OFFCURVE",
"356 360 OFFCURVE",
"400 360 CURVE"
);
}
);
width = 480;
},
{
layerId = "0F8A7298-526A-4D73-8A76-82A4C1EFD640";
paths = (
{
closed = 1;
nodes = (
"400 440 LINE",
"356 440 OFFCURVE",
"320 476 OFFCURVE",
"320 520 CURVE SMOOTH",
"320 690 LINE SMOOTH",
"320 823 OFFCURVE",
"213 930 OFFCURVE",
"80 930 CURVE",
"80 850 LINE",
"169 850 OFFCURVE",
"240 779 OFFCURVE",
"240 690 CURVE SMOOTH",
"240 520 LINE SMOOTH",
"240 472 OFFCURVE",
"261 429 OFFCURVE",
"294 400 CURVE",
"261 371 OFFCURVE",
"240 328 OFFCURVE",
"240 280 CURVE SMOOTH",
"240 110 LINE SMOOTH",
"240 21 OFFCURVE",
"169 -50 OFFCURVE",
"80 -50 CURVE",
"80 -130 LINE",
"213 -130 OFFCURVE",
"320 -23 OFFCURVE",
"320 110 CURVE SMOOTH",
"320 280 LINE SMOOTH",
"320 324 OFFCURVE",
"356 360 OFFCURVE",
"400 360 CURVE"
);
}
);
width = 480;
}
);
unicode = 007D;
},
{
glyphname = bracketleft;
lastChange = "2022-10-06 22:11:29 +0000";
layers = (
{
layerId = "56B7CB81-CC11-4115-9FB5-EB39306C4A9F";
paths = (
{
closed = 1;
nodes = (
"320 -130 LINE",
"320 -50 LINE",
"160 -50 LINE",
"160 850 LINE",
"320 850 LINE",
"320 930 LINE",
"80 930 LINE",
"80 -130 LINE"
);
}
);
width = 400;
},
{
layerId = "0F8A7298-526A-4D73-8A76-82A4C1EFD640";
paths = (
{
closed = 1;
nodes = (
"320 -130 LINE",
"320 -50 LINE",
"160 -50 LINE",
"160 850 LINE",
"320 850 LINE",
"320 930 LINE",
"80 930 LINE",
"80 -130 LINE"
);
}
);
width = 400;
}
);
unicode = 005B;
},
{
glyphname = bracketright;
lastChange = "2022-10-06 22:11:50 +0000";
layers = (
{
layerId = "56B7CB81-CC11-4115-9FB5-EB39306C4A9F";
paths = (
{
closed = 1;
nodes = (
"320 930 LINE",
"80 930 LINE",
"80 850 LINE",
"240 850 LINE",
"240 -50 LINE",
"80 -50 LINE",
"80 -130 LINE",
"320 -130 LINE"
);
}
);
width = 400;
},
{
layerId = "0F8A7298-526A-4D73-8A76-82A4C1EFD640";
paths = (
{
closed = 1;
nodes = (
"320 930 LINE",
"80 930 LINE",
"80 850 LINE",
"240 850 LINE",
"240 -50 LINE",
"80 -50 LINE",
"80 -130 LINE",
"320 -130 LINE"
);
}
);
width = 400;
}
);
unicode = 005D;
},
{
glyphname = hyphen;
lastChange = "2022-10-03 19:24:53 +0000";
layers = (
{
layerId = "56B7CB81-CC11-4115-9FB5-EB39306C4A9F";
paths = (
{
closed = 1;
nodes = (
"60 340 LINE",
"340 340 LINE",
"340 420 LINE",
"60 420 LINE"
);
}
);
width = 400;
},
{
layerId = "0F8A7298-526A-4D73-8A76-82A4C1EFD640";
paths = (
{
closed = 1;
nodes = (
"60 340 LINE",
"340 340 LINE",
"340 420 LINE",
"60 420 LINE"
);
}
);
width = 400;
}
);
unicode = 002D;
},
{
glyphname = endash;
lastChange = "2022-10-03 19:24:53 +0000";
layers = (
{
layerId = "56B7CB81-CC11-4115-9FB5-EB39306C4A9F";
paths = (
{
closed = 1;
nodes = (
"60 340 LINE",
"480 340 LINE",
"480 420 LINE",
"60 420 LINE"
);
}
);
width = 540;
},
{
layerId = "0F8A7298-526A-4D73-8A76-82A4C1EFD640";
paths = (
{
closed = 1;
nodes = (
"60 340 LINE",
"480 340 LINE",
"480 420 LINE",
"60 420 LINE"
);
}
);
width = 540;
}
);
unicode = 2013;
},
{
glyphname = emdash;
lastChange = "2022-10-03 19:24:53 +0000";
layers = (
{
layerId = "56B7CB81-CC11-4115-9FB5-EB39306C4A9F";
paths = (
{
closed = 1;
nodes = (
"60 340 LINE",
"620 340 LINE",
"620 420 LINE",
"60 420 LINE"
);
}
);
width = 680;
},
{
layerId = "0F8A7298-526A-4D73-8A76-82A4C1EFD640";
paths = (
{
closed = 1;
nodes = (
"60 340 LINE",
"620 340 LINE",
"620 420 LINE",
"60 420 LINE"
);
}
);
width = 680;
}
);
unicode = 2014;
},
{
glyphname = underscore;
lastChange = "2022-10-03 19:24:53 +0000";
layers = (
{
layerId = "56B7CB81-CC11-4115-9FB5-EB39306C4A9F";
paths = (
{
closed = 1;
nodes = (
"60 -140 LINE",
"620 -140 LINE",
"620 -60 LINE",
"60 -60 LINE"
);
}
);
width = 680;
},
{
layerId = "0F8A7298-526A-4D73-8A76-82A4C1EFD640";
paths = (
{
closed = 1;
nodes = (
"60 -140 LINE",
"620 -140 LINE",
"620 -60 LINE",
"60 -60 LINE"
);
}
);
width = 680;
}
);
unicode = 005F;
},
{
glyphname = quotedblleft;
lastChange = "2022-10-03 23:10:45 +0000";
layers = (
{
layerId = "56B7CB81-CC11-4115-9FB5-EB39306C4A9F";
paths = (
{
closed = 1;
nodes = (
"130 800 LINE",
"130 900 LINE",
"80 900 LINE",
"80 640 LINE",
"180 640 LINE",
"180 800 LINE"
);
},
{
closed = 1;
nodes = (
"310 800 LINE",
"310 900 LINE",
"260 900 LINE",
"260 640 LINE",
"360 640 LINE",
"360 800 LINE"
);
}
);
width = 440;
},
{
layerId = "0F8A7298-526A-4D73-8A76-82A4C1EFD640";
paths = (
{
closed = 1;
nodes = (
"130 800 LINE",
"130 900 LINE",
"80 900 LINE",
"80 640 LINE",
"180 640 LINE",
"180 800 LINE"
);
},
{
closed = 1;
nodes = (
"310 800 LINE",
"310 900 LINE",
"260 900 LINE",
"260 640 LINE",
"360 640 LINE",
"360 800 LINE"
);
}
);
width = 440;
}
);
unicode = 201C;
},
{
glyphname = quotedblright;
lastChange = "2022-10-03 23:16:17 +0000";
layers = (
{
layerId = "56B7CB81-CC11-4115-9FB5-EB39306C4A9F";
paths = (
{
closed = 1;
nodes = (
"310 740 LINE",
"310 640 LINE",
"360 640 LINE",
"360 900 LINE",
"260 900 LINE",
"260 740 LINE"
);
},
{
closed = 1;
nodes = (
"130 740 LINE",
"130 640 LINE",
"180 640 LINE",
"180 900 LINE",
"80 900 LINE",
"80 740 LINE"
);
}
);
width = 440;
},
{
layerId = "0F8A7298-526A-4D73-8A76-82A4C1EFD640";
paths = (
{
closed = 1;
nodes = (
"310 740 LINE",
"310 640 LINE",
"360 640 LINE",
"360 900 LINE",
"260 900 LINE",
"260 740 LINE"
);
},
{
closed = 1;
nodes = (
"130 740 LINE",
"130 640 LINE",
"180 640 LINE",
"180 900 LINE",
"80 900 LINE",
"80 740 LINE"
);
}
);
width = 440;
}
);
unicode = 201D;
},
{
glyphname = quoteleft;
lastChange = "2022-10-03 23:16:34 +0000";
layers = (
{
layerId = "56B7CB81-CC11-4115-9FB5-EB39306C4A9F";
paths = (
{
closed = 1;
nodes = (
"130 800 LINE",
"130 900 LINE",
"80 900 LINE",
"80 640 LINE",
"180 640 LINE",
"180 800 LINE"
);
}
);
width = 260;
},
{
layerId = "0F8A7298-526A-4D73-8A76-82A4C1EFD640";
paths = (
{
closed = 1;
nodes = (
"130 800 LINE",
"130 900 LINE",
"80 900 LINE",
"80 640 LINE",
"180 640 LINE",
"180 800 LINE"
);
}
);
width = 260;
}
);
unicode = 2018;
},
{
glyphname = quoteright;
lastChange = "2022-10-03 23:16:44 +0000";
layers = (
{
layerId = "56B7CB81-CC11-4115-9FB5-EB39306C4A9F";
paths = (
{
closed = 1;
nodes = (
"130 740 LINE",
"130 640 LINE",
"180 640 LINE",
"180 900 LINE",
"80 900 LINE",
"80 740 LINE"
);
}
);
width = 260;
},
{
layerId = "0F8A7298-526A-4D73-8A76-82A4C1EFD640";
paths = (
{
closed = 1;
nodes = (
"130 740 LINE",
"130 640 LINE",
"180 640 LINE",
"180 900 LINE",
"80 900 LINE",
"80 740 LINE"
);
}
);
width = 260;
}
);
unicode = 2019;
},
{
glyphname = quotedbl;
lastChange = "2022-10-03 23:16:54 +0000";
layers = (
{
layerId = "56B7CB81-CC11-4115-9FB5-EB39306C4A9F";
paths = (
{
closed = 1;
nodes = (
"105 640 LINE",
"155 640 LINE",
"180 740 LINE",
"180 900 LINE",
"80 900 LINE",
"80 740 LINE"
);
},
{
closed = 1;
nodes = (
"285 640 LINE",
"335 640 LINE",
"360 740 LINE",
"360 900 LINE",
"260 900 LINE",
"260 740 LINE"
);
}
);
width = 440;
},
{
layerId = "0F8A7298-526A-4D73-8A76-82A4C1EFD640";
paths = (
{
closed = 1;
nodes = (
"105 640 LINE",
"155 640 LINE",
"180 740 LINE",
"180 900 LINE",
"80 900 LINE",
"80 740 LINE"
);
},
{
closed = 1;
nodes = (
"285 640 LINE",
"335 640 LINE",
"360 740 LINE",
"360 900 LINE",
"260 900 LINE",
"260 740 LINE"
);
}
);
width = 440;
}
);
unicode = 0022;
},
{
glyphname = quotesingle;
lastChange = "2022-10-03 23:17:02 +0000";
layers = (
{
layerId = "56B7CB81-CC11-4115-9FB5-EB39306C4A9F";
paths = (
{
closed = 1;
nodes = (
"105 640 LINE",
"155 640 LINE",
"180 740 LINE",
"180 900 LINE",
"80 900 LINE",
"80 740 LINE"
);
}
);
width = 260;
},
{
layerId = "0F8A7298-526A-4D73-8A76-82A4C1EFD640";
paths = (
{
closed = 1;
nodes = (
"105 640 LINE",
"155 640 LINE",
"180 740 LINE",
"180 900 LINE",
"80 900 LINE",
"80 740 LINE"
);
}
);
width = 260;
}
);
unicode = 0027;
},
{
glyphname = .notdef;
lastChange = "2022-10-03 19:24:53 +0000";
layers = (
{
layerId = "56B7CB81-CC11-4115-9FB5-EB39306C4A9F";
paths = (
{
closed = 1;
nodes = (
"80 500 LINE",
"80 260 LINE",
"230 260 LINE",
"230 500 LINE"
);
}
);
width = 310;
},
{
layerId = "0F8A7298-526A-4D73-8A76-82A4C1EFD640";
paths = (
{
closed = 1;
nodes = (
"80 500 LINE",
"80 260 LINE",
"230 260 LINE",
"230 500 LINE"
);
}
);
width = 310;
}
);
},
{
glyphname = plus;
lastChange = "2022-10-07 16:07:55 +0000";
layers = (
{
layerId = "56B7CB81-CC11-4115-9FB5-EB39306C4A9F";
paths = (
{
closed = 1;
nodes = (
"300 340 LINE",
"300 100 LINE",
"380 100 LINE",
"380 340 LINE",
"620 340 LINE",
"620 420 LINE",
"380 420 LINE",
"380 660 LINE",
"300 660 LINE",
"300 420 LINE",
"60 420 LINE",
"60 340 LINE"
);
}
);
width = 680;
},
{
layerId = "0F8A7298-526A-4D73-8A76-82A4C1EFD640";
paths = (
{
closed = 1;
nodes = (
"300 340 LINE",
"300 100 LINE",
"380 100 LINE",
"380 340 LINE",
"620 340 LINE",
"620 420 LINE",
"380 420 LINE",
"380 660 LINE",
"300 660 LINE",
"300 420 LINE",
"60 420 LINE",
"60 340 LINE"
);
}
);
width = 680;
}
);
unicode = 002B;
},
{
glyphname = minus;
lastChange = "2022-10-07 16:08:47 +0000";
layers = (
{
layerId = "56B7CB81-CC11-4115-9FB5-EB39306C4A9F";
paths = (
{
closed = 1;
nodes = (
"60 340 LINE",
"620 340 LINE",
"620 420 LINE",
"60 420 LINE"
);
}
);
width = 680;
},
{
layerId = "0F8A7298-526A-4D73-8A76-82A4C1EFD640";
paths = (
{
closed = 1;
nodes = (
"60 340 LINE",
"620 340 LINE",
"620 420 LINE",
"60 420 LINE"
);
}
);
width = 680;
}
);
unicode = 2212;
},
{
glyphname = multiply;
lastChange = "2022-10-07 16:09:13 +0000";
layers = (
{
layerId = "56B7CB81-CC11-4115-9FB5-EB39306C4A9F";
paths = (
{
closed = 1;
nodes = (
"229 380 LINE",
"60 210 LINE",
"116 154 LINE",
"286 323 LINE",
"456 154 LINE",
"512 210 LINE",
"343 380 LINE",
"512 550 LINE",
"456 606 LINE",
"286 437 LINE",
"116 606 LINE",
"60 550 LINE"
);
}
);
width = 572;
},
{
layerId = "0F8A7298-526A-4D73-8A76-82A4C1EFD640";
paths = (
{
closed = 1;
nodes = (
"229 380 LINE",
"60 210 LINE",
"116 154 LINE",
"286 323 LINE",
"456 154 LINE",
"512 210 LINE",
"343 380 LINE",
"512 550 LINE",
"456 606 LINE",
"286 437 LINE",
"116 606 LINE",
"60 550 LINE"
);
}
);
width = 572;
}
);
unicode = 00D7;
},
{
glyphname = divide;
lastChange = "2022-10-07 16:09:46 +0000";
layers = (
{
layerId = "56B7CB81-CC11-4115-9FB5-EB39306C4A9F";
paths = (
{
closed = 1;
nodes = (
"290 260 LINE",
"290 100 LINE",
"390 100 LINE",
"390 260 LINE"
);
},
{
closed = 1;
nodes = (
"290 660 LINE",
"290 500 LINE",
"390 500 LINE",
"390 660 LINE"
);
},
{
closed = 1;
nodes = (
"60 340 LINE",
"620 340 LINE",
"620 420 LINE",
"60 420 LINE"
);
}
);
width = 680;
},
{
layerId = "0F8A7298-526A-4D73-8A76-82A4C1EFD640";
paths = (
{
closed = 1;
nodes = (
"290 260 LINE",
"290 100 LINE",
"390 100 LINE",
"390 260 LINE"
);
},
{
closed = 1;
nodes = (
"290 660 LINE",
"290 500 LINE",
"390 500 LINE",
"390 660 LINE"
);
},
{
closed = 1;
nodes = (
"60 340 LINE",
"620 340 LINE",
"620 420 LINE",
"60 420 LINE"
);
}
);
width = 680;
}
);
unicode = 00F7;
},
{
glyphname = equal;
lastChange = "2022-10-07 16:10:04 +0000";
layers = (
{
layerId = "56B7CB81-CC11-4115-9FB5-EB39306C4A9F";
paths = (
{
closed = 1;
nodes = (
"60 440 LINE",
"620 440 LINE",
"620 520 LINE",
"60 520 LINE"
);
},
{
closed = 1;
nodes = (
"60 240 LINE",
"620 240 LINE",
"620 320 LINE",
"60 320 LINE"
);
}
);
width = 680;
},
{
layerId = "0F8A7298-526A-4D73-8A76-82A4C1EFD640";
paths = (
{
closed = 1;
nodes = (
"60 440 LINE",
"620 440 LINE",
"620 520 LINE",
"60 520 LINE"
);
},
{
closed = 1;
nodes = (
"60 240 LINE",
"620 240 LINE",
"620 320 LINE",
"60 320 LINE"
);
}
);
width = 680;
}
);
unicode = 003D;
},
{
glyphname = greater;
lastChange = "2022-10-07 16:10:57 +0000";
layers = (
{
layerId = "56B7CB81-CC11-4115-9FB5-EB39306C4A9F";
paths = (
{
closed = 1;
nodes = (
"116 606 LINE",
"60 550 LINE",
"230 380 LINE",
"60 210 LINE",
"116 154 LINE",
"342 380 LINE"
);
}
);
width = 402;
},
{
layerId = "0F8A7298-526A-4D73-8A76-82A4C1EFD640";
paths = (
{
closed = 1;
nodes = (
"116 606 LINE",
"60 550 LINE",
"230 380 LINE",
"60 210 LINE",
"116 154 LINE",
"342 380 LINE"
);
}
);
width = 402;
}
);
unicode = 003E;
},
{
glyphname = less;
lastChange = "2022-10-07 16:11:18 +0000";
layers = (
{
layerId = "56B7CB81-CC11-4115-9FB5-EB39306C4A9F";
paths = (
{
closed = 1;
nodes = (
"286 154 LINE",
"342 210 LINE",
"172 380 LINE",
"342 550 LINE",
"286 606 LINE",
"60 380 LINE"
);
}
);
width = 402;
},
{
layerId = "0F8A7298-526A-4D73-8A76-82A4C1EFD640";
paths = (
{
closed = 1;
nodes = (
"286 154 LINE",
"342 210 LINE",
"172 380 LINE",
"342 550 LINE",
"286 606 LINE",
"60 380 LINE"
);
}
);
width = 402;
}
);
unicode = 003C;
},
{
glyphname = percent;
lastChange = "2022-10-07 00:32:48 +0000";
layers = (
{
layerId = "56B7CB81-CC11-4115-9FB5-EB39306C4A9F";
paths = (
{
closed = 1;
nodes = (
"60 571 OFFCURVE",
"131 500 OFFCURVE",
"220 500 CURVE SMOOTH",
"308 500 OFFCURVE",
"380 571 OFFCURVE",
"380 660 CURVE SMOOTH",
"380 748 OFFCURVE",
"308 820 OFFCURVE",
"220 820 CURVE SMOOTH",
"131 820 OFFCURVE",
"60 748 OFFCURVE",
"60 660 CURVE SMOOTH"
);
},
{
closed = 1;
nodes = (
"140 704 OFFCURVE",
"176 740 OFFCURVE",
"220 740 CURVE SMOOTH",
"264 740 OFFCURVE",
"300 704 OFFCURVE",
"300 660 CURVE SMOOTH",
"300 616 OFFCURVE",
"264 580 OFFCURVE",
"220 580 CURVE SMOOTH",
"176 580 OFFCURVE",
"140 616 OFFCURVE",
"140 660 CURVE SMOOTH"
);
},
{
closed = 1;
nodes = (
"300 51 OFFCURVE",
"371 -20 OFFCURVE",
"460 -20 CURVE SMOOTH",
"548 -20 OFFCURVE",
"620 51 OFFCURVE",
"620 140 CURVE SMOOTH",
"620 228 OFFCURVE",
"548 300 OFFCURVE",
"460 300 CURVE SMOOTH",
"371 300 OFFCURVE",
"300 228 OFFCURVE",
"300 140 CURVE SMOOTH"
);
},
{
closed = 1;
nodes = (
"380 184 OFFCURVE",
"416 220 OFFCURVE",
"460 220 CURVE SMOOTH",
"504 220 OFFCURVE",
"540 184 OFFCURVE",
"540 140 CURVE SMOOTH",
"540 96 OFFCURVE",
"504 60 OFFCURVE",
"460 60 CURVE SMOOTH",
"416 60 OFFCURVE",
"380 96 OFFCURVE",
"380 140 CURVE SMOOTH"
);
},
{
closed = 1;
nodes = (
"140 0 LINE",
"140 200 LINE SMOOTH",
"140 289 OFFCURVE",
"211 360 OFFCURVE",
"300 360 CURVE SMOOTH",
"380 360 LINE SMOOTH",
"513 360 OFFCURVE",
"620 467 OFFCURVE",
"620 600 CURVE SMOOTH",
"620 800 LINE",
"540 800 LINE",
"540 600 LINE SMOOTH",
"540 511 OFFCURVE",
"469 440 OFFCURVE",
"380 440 CURVE SMOOTH",
"300 440 LINE SMOOTH",
"167 440 OFFCURVE",
"60 333 OFFCURVE",
"60 200 CURVE SMOOTH",
"60 0 LINE"
);
}
);
width = 680;
},
{
layerId = "0F8A7298-526A-4D73-8A76-82A4C1EFD640";
paths = (
{
closed = 1;
nodes = (
"60 571 OFFCURVE",
"131 500 OFFCURVE",
"220 500 CURVE SMOOTH",
"308 500 OFFCURVE",
"380 571 OFFCURVE",
"380 660 CURVE SMOOTH",
"380 748 OFFCURVE",
"308 820 OFFCURVE",
"220 820 CURVE SMOOTH",
"131 820 OFFCURVE",
"60 748 OFFCURVE",
"60 660 CURVE SMOOTH"
);
},
{
closed = 1;
nodes = (
"140 704 OFFCURVE",
"176 740 OFFCURVE",
"220 740 CURVE SMOOTH",
"264 740 OFFCURVE",
"300 704 OFFCURVE",
"300 660 CURVE SMOOTH",
"300 616 OFFCURVE",
"264 580 OFFCURVE",
"220 580 CURVE SMOOTH",
"176 580 OFFCURVE",
"140 616 OFFCURVE",
"140 660 CURVE SMOOTH"
);
},
{
closed = 1;
nodes = (
"300 51 OFFCURVE",
"371 -20 OFFCURVE",
"460 -20 CURVE SMOOTH",
"548 -20 OFFCURVE",
"620 51 OFFCURVE",
"620 140 CURVE SMOOTH",
"620 228 OFFCURVE",
"548 300 OFFCURVE",
"460 300 CURVE SMOOTH",
"371 300 OFFCURVE",
"300 228 OFFCURVE",
"300 140 CURVE SMOOTH"
);
},
{
closed = 1;
nodes = (
"380 184 OFFCURVE",
"416 220 OFFCURVE",
"460 220 CURVE SMOOTH",
"504 220 OFFCURVE",
"540 184 OFFCURVE",
"540 140 CURVE SMOOTH",
"540 96 OFFCURVE",
"504 60 OFFCURVE",
"460 60 CURVE SMOOTH",
"416 60 OFFCURVE",
"380 96 OFFCURVE",
"380 140 CURVE SMOOTH"
);
},
{
closed = 1;
nodes = (
"140 0 LINE",
"140 200 LINE SMOOTH",
"140 289 OFFCURVE",
"211 360 OFFCURVE",
"300 360 CURVE SMOOTH",
"380 360 LINE SMOOTH",
"513 360 OFFCURVE",
"620 467 OFFCURVE",
"620 600 CURVE SMOOTH",
"620 800 LINE",
"540 800 LINE",
"540 600 LINE SMOOTH",
"540 511 OFFCURVE",
"469 440 OFFCURVE",
"380 440 CURVE SMOOTH",
"300 440 LINE SMOOTH",
"167 440 OFFCURVE",
"60 333 OFFCURVE",
"60 200 CURVE SMOOTH",
"60 0 LINE"
);
}
);
width = 680;
}
);
unicode = 0025;
},
{
glyphname = at;
lastChange = "2022-10-08 03:15:11 +0000";
layers = (
{
layerId = "56B7CB81-CC11-4115-9FB5-EB39306C4A9F";
paths = (
{
closed = 1;
nodes = (
"60 -55 OFFCURVE",
"185 -180 OFFCURVE",
"340 -180 CURVE SMOOTH",
"500 -180 LINE",
"500 -100 LINE",
"340 -100 LINE SMOOTH",
"229 -100 OFFCURVE",
"140 -11 OFFCURVE",
"140 100 CURVE SMOOTH",
"140 300 LINE SMOOTH",
"140 411 OFFCURVE",
"229 500 OFFCURVE",
"340 500 CURVE SMOOTH",
"451 500 OFFCURVE",
"540 411 OFFCURVE",
"540 300 CURVE SMOOTH",
"540 100 LINE SMOOTH",
"540 78 OFFCURVE",
"522 60 OFFCURVE",
"500 60 CURVE SMOOTH",
"478 60 OFFCURVE",
"460 78 OFFCURVE",
"460 100 CURVE SMOOTH",
"460 300 LINE SMOOTH",
"460 366 OFFCURVE",
"406 420 OFFCURVE",
"340 420 CURVE SMOOTH",
"274 420 OFFCURVE",
"220 366 OFFCURVE",
"220 300 CURVE SMOOTH",
"220 100 LINE SMOOTH",
"220 34 OFFCURVE",
"274 -20 OFFCURVE",
"340 -20 CURVE SMOOTH",
"371 -20 OFFCURVE",
"399 -8 OFFCURVE",
"420 11 CURVE",
"441 -8 OFFCURVE",
"469 -20 OFFCURVE",
"500 -20 CURVE SMOOTH",
"566 -20 OFFCURVE",
"620 34 OFFCURVE",
"620 100 CURVE SMOOTH",
"620 300 LINE SMOOTH",
"620 455 OFFCURVE",
"495 580 OFFCURVE",
"340 580 CURVE SMOOTH",
"185 580 OFFCURVE",
"60 455 OFFCURVE",
"60 300 CURVE SMOOTH",
"60 100 LINE SMOOTH"
);
},
{
closed = 1;
nodes = (
"300 300 LINE SMOOTH",
"300 322 OFFCURVE",
"318 340 OFFCURVE",
"340 340 CURVE SMOOTH",
"362 340 OFFCURVE",
"380 322 OFFCURVE",
"380 300 CURVE SMOOTH",
"380 100 LINE SMOOTH",
"380 78 OFFCURVE",
"362 60 OFFCURVE",
"340 60 CURVE SMOOTH",
"318 60 OFFCURVE",
"300 78 OFFCURVE",
"300 100 CURVE SMOOTH"
);
}
);
width = 680;
},
{
layerId = "0F8A7298-526A-4D73-8A76-82A4C1EFD640";
paths = (
{
closed = 1;
nodes = (
"60 -55 OFFCURVE",
"185 -180 OFFCURVE",
"340 -180 CURVE SMOOTH",
"500 -180 LINE",
"500 -100 LINE",
"340 -100 LINE SMOOTH",
"229 -100 OFFCURVE",
"140 -11 OFFCURVE",
"140 100 CURVE SMOOTH",
"140 300 LINE SMOOTH",
"140 411 OFFCURVE",
"229 500 OFFCURVE",
"340 500 CURVE SMOOTH",
"451 500 OFFCURVE",
"540 411 OFFCURVE",
"540 300 CURVE SMOOTH",
"540 100 LINE SMOOTH",
"540 78 OFFCURVE",
"522 60 OFFCURVE",
"500 60 CURVE SMOOTH",
"478 60 OFFCURVE",
"460 78 OFFCURVE",
"460 100 CURVE SMOOTH",
"460 300 LINE SMOOTH",
"460 366 OFFCURVE",
"406 420 OFFCURVE",
"340 420 CURVE SMOOTH",
"274 420 OFFCURVE",
"220 366 OFFCURVE",
"220 300 CURVE SMOOTH",
"220 100 LINE SMOOTH",
"220 34 OFFCURVE",
"274 -20 OFFCURVE",
"340 -20 CURVE SMOOTH",
"371 -20 OFFCURVE",
"399 -8 OFFCURVE",
"420 11 CURVE",
"441 -8 OFFCURVE",
"469 -20 OFFCURVE",
"500 -20 CURVE SMOOTH",
"566 -20 OFFCURVE",
"620 34 OFFCURVE",
"620 100 CURVE SMOOTH",
"620 300 LINE SMOOTH",
"620 455 OFFCURVE",
"495 580 OFFCURVE",
"340 580 CURVE SMOOTH",
"185 580 OFFCURVE",
"60 455 OFFCURVE",
"60 300 CURVE SMOOTH",
"60 100 LINE SMOOTH"
);
},
{
closed = 1;
nodes = (
"300 300 LINE SMOOTH",
"300 322 OFFCURVE",
"318 340 OFFCURVE",
"340 340 CURVE SMOOTH",
"362 340 OFFCURVE",
"380 322 OFFCURVE",
"380 300 CURVE SMOOTH",
"380 100 LINE SMOOTH",
"380 78 OFFCURVE",
"362 60 OFFCURVE",
"340 60 CURVE SMOOTH",
"318 60 OFFCURVE",
"300 78 OFFCURVE",
"300 100 CURVE SMOOTH"
);
}
);
width = 680;
}
);
unicode = 0040;
},
{
glyphname = ampersand;
lastChange = "2022-10-07 16:13:31 +0000";
layers = (
{
layerId = "56B7CB81-CC11-4115-9FB5-EB39306C4A9F";
paths = (
{
closed = 1;
nodes = (
"60 98 OFFCURVE",
"158 0 OFFCURVE",
"280 0 CURVE SMOOTH",
"480 0 LINE",
"480 360 LINE",
"640 360 LINE",
"640 440 LINE",
"480 440 LINE",
"480 560 LINE",
"400 560 LINE",
"400 440 LINE",
"280 440 LINE SMOOTH",
"202 440 OFFCURVE",
"140 502 OFFCURVE",
"140 580 CURVE SMOOTH",
"140 658 OFFCURVE",
"202 720 OFFCURVE",
"280 720 CURVE SMOOTH",
"400 720 LINE",
"400 800 LINE",
"280 800 LINE SMOOTH",
"158 800 OFFCURVE",
"60 702 OFFCURVE",
"60 580 CURVE SMOOTH",
"60 505 OFFCURVE",
"97 440 OFFCURVE",
"153 400 CURVE",
"97 360 OFFCURVE",
"60 295 OFFCURVE",
"60 220 CURVE SMOOTH"
);
},
{
closed = 1;
nodes = (
"140 298 OFFCURVE",
"202 360 OFFCURVE",
"280 360 CURVE SMOOTH",
"400 360 LINE",
"400 80 LINE",
"280 80 LINE SMOOTH",
"202 80 OFFCURVE",
"140 142 OFFCURVE",
"140 220 CURVE SMOOTH"
);
}
);
width = 700;
},
{
layerId = "0F8A7298-526A-4D73-8A76-82A4C1EFD640";
paths = (
{
closed = 1;
nodes = (
"60 98 OFFCURVE",
"158 0 OFFCURVE",
"280 0 CURVE SMOOTH",
"480 0 LINE",
"480 360 LINE",
"640 360 LINE",
"640 440 LINE",
"480 440 LINE",
"480 560 LINE",
"400 560 LINE",
"400 440 LINE",
"280 440 LINE SMOOTH",
"202 440 OFFCURVE",
"140 502 OFFCURVE",
"140 580 CURVE SMOOTH",
"140 658 OFFCURVE",
"202 720 OFFCURVE",
"280 720 CURVE SMOOTH",
"400 720 LINE",
"400 800 LINE",
"280 800 LINE SMOOTH",
"158 800 OFFCURVE",
"60 702 OFFCURVE",
"60 580 CURVE SMOOTH",
"60 505 OFFCURVE",
"97 440 OFFCURVE",
"153 400 CURVE",
"97 360 OFFCURVE",
"60 295 OFFCURVE",
"60 220 CURVE SMOOTH"
);
},
{
closed = 1;
nodes = (
"140 298 OFFCURVE",
"202 360 OFFCURVE",
"280 360 CURVE SMOOTH",
"400 360 LINE",
"400 80 LINE",
"280 80 LINE SMOOTH",
"202 80 OFFCURVE",
"140 142 OFFCURVE",
"140 220 CURVE SMOOTH"
);
}
);
width = 700;
}
);
unicode = 0026;
},
{
glyphname = copyright;
lastChange = "2022-10-08 03:15:33 +0000";
layers = (
{
layerId = "56B7CB81-CC11-4115-9FB5-EB39306C4A9F";
paths = (
{
closed = 1;
nodes = (
"60 105 OFFCURVE",
"185 -20 OFFCURVE",
"340 -20 CURVE SMOOTH",
"495 -20 OFFCURVE",
"620 105 OFFCURVE",
"620 260 CURVE SMOOTH",
"620 460 LINE SMOOTH",
"620 615 OFFCURVE",
"495 740 OFFCURVE",
"340 740 CURVE SMOOTH",
"185 740 OFFCURVE",
"60 615 OFFCURVE",
"60 460 CURVE SMOOTH",
"60 260 LINE SMOOTH"
);
},
{
closed = 1;
nodes = (
"140 460 LINE SMOOTH",
"140 571 OFFCURVE",
"229 660 OFFCURVE",
"340 660 CURVE SMOOTH",
"451 660 OFFCURVE",
"540 572 OFFCURVE",
"540 460 CURVE SMOOTH",
"540 260 LINE SMOOTH",
"540 148 OFFCURVE",
"451 60 OFFCURVE",
"340 60 CURVE SMOOTH",
"229 60 OFFCURVE",
"140 149 OFFCURVE",
"140 260 CURVE SMOOTH"
);
},
{
closed = 1;
nodes = (
"220 194 OFFCURVE",
"274 140 OFFCURVE",
"340 140 CURVE SMOOTH",
"406 140 OFFCURVE",
"460 194 OFFCURVE",
"460 260 CURVE",
"380 260 LINE",
"380 238 OFFCURVE",
"362 220 OFFCURVE",
"340 220 CURVE SMOOTH",
"318 220 OFFCURVE",
"300 238 OFFCURVE",
"300 260 CURVE SMOOTH",
"300 460 LINE SMOOTH",
"300 482 OFFCURVE",
"318 500 OFFCURVE",
"340 500 CURVE SMOOTH",
"362 500 OFFCURVE",
"380 482 OFFCURVE",
"380 460 CURVE",
"460 460 LINE",
"460 526 OFFCURVE",
"406 580 OFFCURVE",
"340 580 CURVE SMOOTH",
"274 580 OFFCURVE",
"220 527 OFFCURVE",
"220 460 CURVE SMOOTH",
"220 260 LINE SMOOTH"
);
}
);
width = 680;
},
{
layerId = "0F8A7298-526A-4D73-8A76-82A4C1EFD640";
paths = (
{
closed = 1;
nodes = (
"60 105 OFFCURVE",
"185 -20 OFFCURVE",
"340 -20 CURVE SMOOTH",
"495 -20 OFFCURVE",
"620 105 OFFCURVE",
"620 260 CURVE SMOOTH",
"620 460 LINE SMOOTH",
"620 615 OFFCURVE",
"495 740 OFFCURVE",
"340 740 CURVE SMOOTH",
"185 740 OFFCURVE",
"60 615 OFFCURVE",
"60 460 CURVE SMOOTH",
"60 260 LINE SMOOTH"
);
},
{
closed = 1;
nodes = (
"140 460 LINE SMOOTH",
"140 571 OFFCURVE",
"229 660 OFFCURVE",
"340 660 CURVE SMOOTH",
"451 660 OFFCURVE",
"540 572 OFFCURVE",
"540 460 CURVE SMOOTH",
"540 260 LINE SMOOTH",
"540 148 OFFCURVE",
"451 60 OFFCURVE",
"340 60 CURVE SMOOTH",
"229 60 OFFCURVE",
"140 149 OFFCURVE",
"140 260 CURVE SMOOTH"
);
},
{
closed = 1;
nodes = (
"220 194 OFFCURVE",
"274 140 OFFCURVE",
"340 140 CURVE SMOOTH",
"406 140 OFFCURVE",
"460 194 OFFCURVE",
"460 260 CURVE",
"380 260 LINE",
"380 238 OFFCURVE",
"362 220 OFFCURVE",
"340 220 CURVE SMOOTH",
"318 220 OFFCURVE",
"300 238 OFFCURVE",
"300 260 CURVE SMOOTH",
"300 460 LINE SMOOTH",
"300 482 OFFCURVE",
"318 500 OFFCURVE",
"340 500 CURVE SMOOTH",
"362 500 OFFCURVE",
"380 482 OFFCURVE",
"380 460 CURVE",
"460 460 LINE",
"460 526 OFFCURVE",
"406 580 OFFCURVE",
"340 580 CURVE SMOOTH",
"274 580 OFFCURVE",
"220 527 OFFCURVE",
"220 460 CURVE SMOOTH",
"220 260 LINE SMOOTH"
);
}
);
width = 680;
}
);
unicode = 00A9;
},
{
glyphname = degree;
lastChange = "2022-10-08 03:16:03 +0000";
layers = (
{
layerId = "56B7CB81-CC11-4115-9FB5-EB39306C4A9F";
paths = (
{
closed = 1;
nodes = (
"80 571 OFFCURVE",
"151 500 OFFCURVE",
"240 500 CURVE SMOOTH",
"328 500 OFFCURVE",
"400 571 OFFCURVE",
"400 660 CURVE SMOOTH",
"400 748 OFFCURVE",
"328 820 OFFCURVE",
"240 820 CURVE SMOOTH",
"151 820 OFFCURVE",
"80 748 OFFCURVE",
"80 660 CURVE SMOOTH"
);
},
{
closed = 1;
nodes = (
"160 704 OFFCURVE",
"196 740 OFFCURVE",
"240 740 CURVE SMOOTH",
"284 740 OFFCURVE",
"320 704 OFFCURVE",
"320 660 CURVE SMOOTH",
"320 616 OFFCURVE",
"284 580 OFFCURVE",
"240 580 CURVE SMOOTH",
"196 580 OFFCURVE",
"160 616 OFFCURVE",
"160 660 CURVE SMOOTH"
);
}
);
width = 480;
},
{
layerId = "0F8A7298-526A-4D73-8A76-82A4C1EFD640";
paths = (
{
closed = 1;
nodes = (
"80 571 OFFCURVE",
"151 500 OFFCURVE",
"240 500 CURVE SMOOTH",
"328 500 OFFCURVE",
"400 571 OFFCURVE",
"400 660 CURVE SMOOTH",
"400 748 OFFCURVE",
"328 820 OFFCURVE",
"240 820 CURVE SMOOTH",
"151 820 OFFCURVE",
"80 748 OFFCURVE",
"80 660 CURVE SMOOTH"
);
},
{
closed = 1;
nodes = (
"160 704 OFFCURVE",
"196 740 OFFCURVE",
"240 740 CURVE SMOOTH",
"284 740 OFFCURVE",
"320 704 OFFCURVE",
"320 660 CURVE SMOOTH",
"320 616 OFFCURVE",
"284 580 OFFCURVE",
"240 580 CURVE SMOOTH",
"196 580 OFFCURVE",
"160 616 OFFCURVE",
"160 660 CURVE SMOOTH"
);
}
);
width = 480;
}
);
unicode = 00B0;
},
{
glyphname = bar;
lastChange = "2022-10-07 04:00:49 +0000";
layers = (
{
layerId = "56B7CB81-CC11-4115-9FB5-EB39306C4A9F";
paths = (
{
closed = 1;
nodes = (
"80 930 LINE",
"80 -130 LINE",
"160 -130 LINE",
"160 930 LINE"
);
}
);
width = 240;
},
{
layerId = "0F8A7298-526A-4D73-8A76-82A4C1EFD640";
paths = (
{
closed = 1;
nodes = (
"80 930 LINE",
"80 -130 LINE",
"160 -130 LINE",
"160 930 LINE"
);
}
);
width = 240;
}
);
unicode = 007C;
},
{
glyphname = doubleprimemod;
lastChange = "2022-10-03 23:17:12 +0000";
layers = (
{
layerId = "56B7CB81-CC11-4115-9FB5-EB39306C4A9F";
paths = (
{
closed = 1;
nodes = (
"105 640 LINE",
"155 640 LINE",
"180 740 LINE",
"180 900 LINE",
"80 900 LINE",
"80 740 LINE"
);
},
{
closed = 1;
nodes = (
"285 640 LINE",
"335 640 LINE",
"360 740 LINE",
"360 900 LINE",
"260 900 LINE",
"260 740 LINE"
);
}
);
width = 440;
},
{
layerId = "0F8A7298-526A-4D73-8A76-82A4C1EFD640";
paths = (
{
closed = 1;
nodes = (
"105 640 LINE",
"155 640 LINE",
"180 740 LINE",
"180 900 LINE",
"80 900 LINE",
"80 740 LINE"
);
},
{
closed = 1;
nodes = (
"285 640 LINE",
"335 640 LINE",
"360 740 LINE",
"360 900 LINE",
"260 900 LINE",
"260 740 LINE"
);
}
);
width = 440;
}
);
unicode = 02BA;
},
{
glyphname = primemod;
lastChange = "2022-10-03 23:17:23 +0000";
layers = (
{
layerId = "56B7CB81-CC11-4115-9FB5-EB39306C4A9F";
paths = (
{
closed = 1;
nodes = (
"105 640 LINE",
"155 640 LINE",
"180 740 LINE",
"180 900 LINE",
"80 900 LINE",
"80 740 LINE"
);
}
